%TF.GenerationSoftware,KiCad,Pcbnew,8.0.0*%
%TF.CreationDate,2025-01-10T11:52:10+00:00*%
%TF.ProjectId,vape_powerbank_pcb,76617065-5f70-46f7-9765-7262616e6b5f,rev?*%
%TF.SameCoordinates,Original*%
%TF.FileFunction,Copper,L1,Top*%
%TF.FilePolarity,Positive*%
%FSLAX46Y46*%
G04 Gerber Fmt 4.6, Leading zero omitted, Abs format (unit mm)*
G04 Created by KiCad (PCBNEW 8.0.0) date 2025-01-10 11:52:10*
%MOMM*%
%LPD*%
G01*
G04 APERTURE LIST*
G04 Aperture macros list*
%AMRoundRect*
0 Rectangle with rounded corners*
0 $1 Rounding radius*
0 $2 $3 $4 $5 $6 $7 $8 $9 X,Y pos of 4 corners*
0 Add a 4 corners polygon primitive as box body*
4,1,4,$2,$3,$4,$5,$6,$7,$8,$9,$2,$3,0*
0 Add four circle primitives for the rounded corners*
1,1,$1+$1,$2,$3*
1,1,$1+$1,$4,$5*
1,1,$1+$1,$6,$7*
1,1,$1+$1,$8,$9*
0 Add four rect primitives between the rounded corners*
20,1,$1+$1,$2,$3,$4,$5,0*
20,1,$1+$1,$4,$5,$6,$7,0*
20,1,$1+$1,$6,$7,$8,$9,0*
20,1,$1+$1,$8,$9,$2,$3,0*%
%AMFreePoly0*
4,1,6,1.000000,0.000000,0.500000,-0.750000,-0.500000,-0.750000,-0.500000,0.750000,0.500000,0.750000,1.000000,0.000000,1.000000,0.000000,$1*%
%AMFreePoly1*
4,1,6,0.500000,-0.750000,-0.650000,-0.750000,-0.150000,0.000000,-0.650000,0.750000,0.500000,0.750000,0.500000,-0.750000,0.500000,-0.750000,$1*%
G04 Aperture macros list end*
%TA.AperFunction,SMDPad,CuDef*%
%ADD10RoundRect,0.200000X-0.275000X0.200000X-0.275000X-0.200000X0.275000X-0.200000X0.275000X0.200000X0*%
%TD*%
%TA.AperFunction,SMDPad,CuDef*%
%ADD11RoundRect,0.200000X-1.300000X-0.800000X1.300000X-0.800000X1.300000X0.800000X-1.300000X0.800000X0*%
%TD*%
%TA.AperFunction,SMDPad,CuDef*%
%ADD12FreePoly0,270.000000*%
%TD*%
%TA.AperFunction,SMDPad,CuDef*%
%ADD13FreePoly1,270.000000*%
%TD*%
%TA.AperFunction,SMDPad,CuDef*%
%ADD14FreePoly0,90.000000*%
%TD*%
%TA.AperFunction,SMDPad,CuDef*%
%ADD15FreePoly1,90.000000*%
%TD*%
%TA.AperFunction,SMDPad,CuDef*%
%ADD16RoundRect,0.237500X0.237500X-0.287500X0.237500X0.287500X-0.237500X0.287500X-0.237500X-0.287500X0*%
%TD*%
%TA.AperFunction,SMDPad,CuDef*%
%ADD17RoundRect,0.499999X-2.500001X0.499998X-2.500001X-0.499998X2.500001X-0.499998X2.500001X0.499998X0*%
%TD*%
%TA.AperFunction,SMDPad,CuDef*%
%ADD18RoundRect,0.499999X-1.000001X0.499998X-1.000001X-0.499998X1.000001X-0.499998X1.000001X0.499998X0*%
%TD*%
%TA.AperFunction,SMDPad,CuDef*%
%ADD19RoundRect,0.499999X0.499998X2.500001X-0.499998X2.500001X-0.499998X-2.500001X0.499998X-2.500001X0*%
%TD*%
%TA.AperFunction,SMDPad,CuDef*%
%ADD20RoundRect,0.499999X0.499998X1.000001X-0.499998X1.000001X-0.499998X-1.000001X0.499998X-1.000001X0*%
%TD*%
%TA.AperFunction,SMDPad,CuDef*%
%ADD21RoundRect,0.237500X-0.237500X0.287500X-0.237500X-0.287500X0.237500X-0.287500X0.237500X0.287500X0*%
%TD*%
%TA.AperFunction,SMDPad,CuDef*%
%ADD22RoundRect,0.237500X-0.287500X-0.237500X0.287500X-0.237500X0.287500X0.237500X-0.287500X0.237500X0*%
%TD*%
%TA.AperFunction,Conductor*%
%ADD23C,0.300000*%
%TD*%
%TA.AperFunction,Conductor*%
%ADD24C,1.000000*%
%TD*%
G04 APERTURE END LIST*
D10*
%TO.P,R2,1*%
%TO.N,Net-(JP1-B)*%
X24800000Y-24675000D03*
%TO.P,R2,2*%
%TO.N,Net-(JP1-A)*%
X24800000Y-26325000D03*
%TD*%
%TO.P,R97,1*%
%TO.N,Net-(JP22-A)*%
X96500000Y-82175000D03*
%TO.P,R97,2*%
%TO.N,Net-(JP33-B)*%
X96500000Y-83825000D03*
%TD*%
%TO.P,R100,1*%
%TO.N,Net-(JP22-A)*%
X115000000Y-82175000D03*
%TO.P,R100,2*%
%TO.N,Net-(JP34-B)*%
X115000000Y-83825000D03*
%TD*%
%TO.P,R85,1*%
%TO.N,Net-(JP22-A)*%
X23400000Y-82275000D03*
%TO.P,R85,2*%
%TO.N,Net-(JP29-B)*%
X23400000Y-83925000D03*
%TD*%
%TO.P,R55,1*%
%TO.N,Net-(JP10-A)*%
X96750000Y-50275000D03*
%TO.P,R55,2*%
%TO.N,Net-(JP19-B)*%
X96750000Y-51925000D03*
%TD*%
D11*
%TO.P,SPRING34,1,1*%
%TO.N,Net-(JP34-B)*%
X114372496Y-86203427D03*
%TD*%
%TO.P,SPRING31,1,1*%
%TO.N,Net-(JP31-B)*%
X58872486Y-86203417D03*
%TD*%
D10*
%TO.P,R48,1*%
%TO.N,Net-(JP10-A)*%
X38250000Y-50275000D03*
%TO.P,R48,2*%
%TO.N,Net-(JP16-B)*%
X38250000Y-51925000D03*
%TD*%
D12*
%TO.P,JP19,1,A*%
%TO.N,Net-(JP10-A)*%
X98800000Y-50275000D03*
D13*
%TO.P,JP19,2,B*%
%TO.N,Net-(JP19-B)*%
X98800000Y-51725000D03*
%TD*%
D14*
%TO.P,JP26,1,A*%
%TO.N,Net-(JP22-A)*%
X84000000Y-74225000D03*
D15*
%TO.P,JP26,2,B*%
%TO.N,Net-(JP26-B)*%
X84000000Y-72775000D03*
%TD*%
D10*
%TO.P,R78,1*%
%TO.N,Net-(JP26-B)*%
X86000000Y-72675000D03*
%TO.P,R78,2*%
%TO.N,Net-(JP22-A)*%
X86000000Y-74325000D03*
%TD*%
%TO.P,R50,1*%
%TO.N,Net-(JP10-A)*%
X58250000Y-50275000D03*
%TO.P,R50,2*%
%TO.N,Net-(JP17-B)*%
X58250000Y-51925000D03*
%TD*%
%TO.P,R66,1*%
%TO.N,Net-(JP22-B)*%
X12000000Y-72675000D03*
%TO.P,R66,2*%
%TO.N,Net-(JP22-A)*%
X12000000Y-74325000D03*
%TD*%
%TO.P,R69,1*%
%TO.N,Net-(JP23-B)*%
X30490000Y-72675000D03*
%TO.P,R69,2*%
%TO.N,Net-(JP22-A)*%
X30490000Y-74325000D03*
%TD*%
%TO.P,R34,1*%
%TO.N,Net-(JP12-B)*%
X89000000Y-40675000D03*
%TO.P,R34,2*%
%TO.N,Net-(JP10-A)*%
X89000000Y-42325000D03*
%TD*%
%TO.P,R12,1*%
%TO.N,Net-(JP4-B)*%
X76750000Y-24675000D03*
%TO.P,R12,2*%
%TO.N,Net-(JP1-A)*%
X76750000Y-26325000D03*
%TD*%
%TO.P,R56,1*%
%TO.N,Net-(JP10-A)*%
X95250000Y-50275000D03*
%TO.P,R56,2*%
%TO.N,Net-(JP19-B)*%
X95250000Y-51925000D03*
%TD*%
%TO.P,R16,1*%
%TO.N,Net-(JP6-B)*%
X116750000Y-24675000D03*
%TO.P,R16,2*%
%TO.N,Net-(JP1-A)*%
X116750000Y-26325000D03*
%TD*%
D11*
%TO.P,SPRING33,1,1*%
%TO.N,Net-(JP33-B)*%
X95872486Y-86203417D03*
%TD*%
D12*
%TO.P,JP16,1,A*%
%TO.N,Net-(JP10-A)*%
X43300000Y-50275000D03*
D13*
%TO.P,JP16,2,B*%
%TO.N,Net-(JP16-B)*%
X43300000Y-51725000D03*
%TD*%
D10*
%TO.P,R33,1*%
%TO.N,Net-(JP11-B)*%
X67500000Y-40675000D03*
%TO.P,R33,2*%
%TO.N,Net-(JP10-A)*%
X67500000Y-42325000D03*
%TD*%
%TO.P,R51,1*%
%TO.N,Net-(JP10-A)*%
X56750000Y-50275000D03*
%TO.P,R51,2*%
%TO.N,Net-(JP17-B)*%
X56750000Y-51925000D03*
%TD*%
D16*
%TO.P,F3,1*%
%TO.N,Net-(J3-Pin_1)*%
X12000000Y-90625000D03*
%TO.P,F3,2*%
%TO.N,Net-(JP22-A)*%
X12000000Y-88875000D03*
%TD*%
D11*
%TO.P,SPRING21,1,1*%
%TO.N,Net-(JP21-B)*%
X132908222Y-54194903D03*
%TD*%
D10*
%TO.P,R1,1*%
%TO.N,Net-(JP1-B)*%
X26300000Y-24675000D03*
%TO.P,R1,2*%
%TO.N,Net-(JP1-A)*%
X26300000Y-26325000D03*
%TD*%
D11*
%TO.P,SPRING18,1,1*%
%TO.N,Net-(JP18-B)*%
X77450030Y-54200020D03*
%TD*%
%TO.P,SPRING6,1,1*%
%TO.N,Net-(JP6-B)*%
X114400000Y-22100000D03*
%TD*%
D10*
%TO.P,R31,1*%
%TO.N,Net-(JP11-B)*%
X70500000Y-40675000D03*
%TO.P,R31,2*%
%TO.N,Net-(JP10-A)*%
X70500000Y-42325000D03*
%TD*%
D11*
%TO.P,SPRING13,1,1*%
%TO.N,Net-(JP13-B)*%
X105159387Y-38237195D03*
%TD*%
D10*
%TO.P,R58,1*%
%TO.N,Net-(JP10-A)*%
X115250000Y-50275000D03*
%TO.P,R58,2*%
%TO.N,Net-(JP20-B)*%
X115250000Y-51925000D03*
%TD*%
%TO.P,R75,1*%
%TO.N,Net-(JP25-B)*%
X67500000Y-72675000D03*
%TO.P,R75,2*%
%TO.N,Net-(JP22-A)*%
X67500000Y-74325000D03*
%TD*%
%TO.P,R95,1*%
%TO.N,Net-(JP22-A)*%
X76500000Y-82175000D03*
%TO.P,R95,2*%
%TO.N,Net-(JP32-B)*%
X76500000Y-83825000D03*
%TD*%
D14*
%TO.P,JP11,1,A*%
%TO.N,Net-(JP10-A)*%
X65500000Y-42225000D03*
D15*
%TO.P,JP11,2,B*%
%TO.N,Net-(JP11-B)*%
X65500000Y-40775000D03*
%TD*%
D10*
%TO.P,R80,1*%
%TO.N,Net-(JP27-B)*%
X106000000Y-72675000D03*
%TO.P,R80,2*%
%TO.N,Net-(JP22-A)*%
X106000000Y-74325000D03*
%TD*%
%TO.P,R17,1*%
%TO.N,Net-(JP6-B)*%
X115250000Y-24675000D03*
%TO.P,R17,2*%
%TO.N,Net-(JP1-A)*%
X115250000Y-26325000D03*
%TD*%
%TO.P,R57,1*%
%TO.N,Net-(JP10-A)*%
X93750000Y-50275000D03*
%TO.P,R57,2*%
%TO.N,Net-(JP19-B)*%
X93750000Y-51925000D03*
%TD*%
%TO.P,R76,1*%
%TO.N,Net-(JP26-B)*%
X89000000Y-72675000D03*
%TO.P,R76,2*%
%TO.N,Net-(JP22-A)*%
X89000000Y-74325000D03*
%TD*%
D14*
%TO.P,JP10,1,A*%
%TO.N,Net-(JP10-A)*%
X47000000Y-42225000D03*
D15*
%TO.P,JP10,2,B*%
%TO.N,Net-(JP10-B)*%
X47000000Y-40775000D03*
%TD*%
D14*
%TO.P,JP7,1,A*%
%TO.N,Net-(JP1-A)*%
X130250000Y-26225000D03*
D15*
%TO.P,JP7,2,B*%
%TO.N,Net-(JP7-B)*%
X130250000Y-24775000D03*
%TD*%
D10*
%TO.P,R47,1*%
%TO.N,Net-(JP10-A)*%
X39750000Y-50275000D03*
%TO.P,R47,2*%
%TO.N,Net-(JP16-B)*%
X39750000Y-51925000D03*
%TD*%
D11*
%TO.P,SPRING28,1,1*%
%TO.N,Net-(JP28-B)*%
X123647500Y-70189537D03*
%TD*%
D10*
%TO.P,R88,1*%
%TO.N,Net-(JP22-A)*%
X41000000Y-82175000D03*
%TO.P,R88,2*%
%TO.N,Net-(JP30-B)*%
X41000000Y-83825000D03*
%TD*%
%TO.P,R30,1*%
%TO.N,Net-(JP10-B)*%
X49000000Y-40675000D03*
%TO.P,R30,2*%
%TO.N,Net-(JP10-A)*%
X49000000Y-42325000D03*
%TD*%
D14*
%TO.P,JP1,1,A*%
%TO.N,Net-(JP1-A)*%
X21300000Y-26225000D03*
D15*
%TO.P,JP1,2,B*%
%TO.N,Net-(JP1-B)*%
X21300000Y-24775000D03*
%TD*%
D17*
%TO.P,J1,1,Pin_1*%
%TO.N,Net-(J1-Pin_1)*%
X5275000Y-14800000D03*
D18*
X14275000Y-14800000D03*
%TD*%
D10*
%TO.P,R44,1*%
%TO.N,Net-(JP10-A)*%
X21250000Y-50275000D03*
%TO.P,R44,2*%
%TO.N,Net-(JP15-B)*%
X21250000Y-51925000D03*
%TD*%
%TO.P,R23,1*%
%TO.N,Net-(JP8-B)*%
X13500000Y-40675000D03*
%TO.P,R23,2*%
%TO.N,Net-(JP10-A)*%
X13500000Y-42325000D03*
%TD*%
%TO.P,R3,1*%
%TO.N,Net-(JP1-B)*%
X23300000Y-24675000D03*
%TO.P,R3,2*%
%TO.N,Net-(JP1-A)*%
X23300000Y-26325000D03*
%TD*%
%TO.P,R32,1*%
%TO.N,Net-(JP11-B)*%
X69000000Y-40675000D03*
%TO.P,R32,2*%
%TO.N,Net-(JP10-A)*%
X69000000Y-42325000D03*
%TD*%
%TO.P,R25,1*%
%TO.N,Net-(JP9-B)*%
X33500000Y-40675000D03*
%TO.P,R25,2*%
%TO.N,Net-(JP10-A)*%
X33500000Y-42325000D03*
%TD*%
%TO.P,R72,1*%
%TO.N,Net-(JP24-B)*%
X49000000Y-72675000D03*
%TO.P,R72,2*%
%TO.N,Net-(JP22-A)*%
X49000000Y-74325000D03*
%TD*%
D12*
%TO.P,JP17,1,A*%
%TO.N,Net-(JP10-A)*%
X61800000Y-50275000D03*
D13*
%TO.P,JP17,2,B*%
%TO.N,Net-(JP17-B)*%
X61800000Y-51725000D03*
%TD*%
D10*
%TO.P,R102,1*%
%TO.N,Net-(JP22-A)*%
X112000000Y-82175000D03*
%TO.P,R102,2*%
%TO.N,Net-(JP34-B)*%
X112000000Y-83825000D03*
%TD*%
D11*
%TO.P,SPRING17,1,1*%
%TO.N,Net-(JP17-B)*%
X58991888Y-54205166D03*
%TD*%
D10*
%TO.P,R63,1*%
%TO.N,Net-(JP10-A)*%
X130500000Y-50175000D03*
%TO.P,R63,2*%
%TO.N,Net-(JP21-B)*%
X130500000Y-51825000D03*
%TD*%
D11*
%TO.P,SPRING12,1,1*%
%TO.N,Net-(JP12-B)*%
X86660652Y-38136591D03*
%TD*%
%TO.P,SPRING11,1,1*%
%TO.N,Net-(JP11-B)*%
X68202510Y-38141737D03*
%TD*%
%TO.P,SPRING7,1,1*%
%TO.N,Net-(JP7-B)*%
X132872500Y-22117600D03*
%TD*%
D10*
%TO.P,R81,1*%
%TO.N,Net-(JP27-B)*%
X104500000Y-72675000D03*
%TO.P,R81,2*%
%TO.N,Net-(JP22-A)*%
X104500000Y-74325000D03*
%TD*%
%TO.P,R6,1*%
%TO.N,Net-(JP2-B)*%
X39750000Y-24675000D03*
%TO.P,R6,2*%
%TO.N,Net-(JP1-A)*%
X39750000Y-26325000D03*
%TD*%
%TO.P,R90,1*%
%TO.N,Net-(JP22-A)*%
X38000000Y-82175000D03*
%TO.P,R90,2*%
%TO.N,Net-(JP30-B)*%
X38000000Y-83825000D03*
%TD*%
%TO.P,R26,1*%
%TO.N,Net-(JP9-B)*%
X32000000Y-40675000D03*
%TO.P,R26,2*%
%TO.N,Net-(JP10-A)*%
X32000000Y-42325000D03*
%TD*%
%TO.P,R89,1*%
%TO.N,Net-(JP22-A)*%
X39500000Y-82175000D03*
%TO.P,R89,2*%
%TO.N,Net-(JP30-B)*%
X39500000Y-83825000D03*
%TD*%
%TO.P,R52,1*%
%TO.N,Net-(JP10-A)*%
X78250000Y-50475000D03*
%TO.P,R52,2*%
%TO.N,Net-(JP18-B)*%
X78250000Y-52125000D03*
%TD*%
%TO.P,R87,1*%
%TO.N,Net-(JP22-A)*%
X20400000Y-82275000D03*
%TO.P,R87,2*%
%TO.N,Net-(JP29-B)*%
X20400000Y-83925000D03*
%TD*%
D12*
%TO.P,JP30,1,A*%
%TO.N,Net-(JP22-A)*%
X43000000Y-82275000D03*
D13*
%TO.P,JP30,2,B*%
%TO.N,Net-(JP30-B)*%
X43000000Y-83725000D03*
%TD*%
D11*
%TO.P,SPRING2,1,1*%
%TO.N,Net-(JP2-B)*%
X40400000Y-22122696D03*
%TD*%
D10*
%TO.P,R71,1*%
%TO.N,Net-(JP24-B)*%
X50500000Y-72675000D03*
%TO.P,R71,2*%
%TO.N,Net-(JP22-A)*%
X50500000Y-74325000D03*
%TD*%
D14*
%TO.P,JP23,1,A*%
%TO.N,Net-(JP22-A)*%
X28500000Y-74225000D03*
D15*
%TO.P,JP23,2,B*%
%TO.N,Net-(JP23-B)*%
X28500000Y-72775000D03*
%TD*%
D14*
%TO.P,JP14,1,A*%
%TO.N,Net-(JP10-A)*%
X121000000Y-42225000D03*
D15*
%TO.P,JP14,2,B*%
%TO.N,Net-(JP14-B)*%
X121000000Y-40775000D03*
%TD*%
D14*
%TO.P,JP9,1,A*%
%TO.N,Net-(JP10-A)*%
X28500000Y-42225000D03*
D15*
%TO.P,JP9,2,B*%
%TO.N,Net-(JP9-B)*%
X28500000Y-40775000D03*
%TD*%
D19*
%TO.P,J2,1,Pin_1*%
%TO.N,Net-(J2-Pin_1)*%
X4400000Y-54175000D03*
D20*
X4400000Y-63175000D03*
%TD*%
D14*
%TO.P,JP4,1,A*%
%TO.N,Net-(JP1-A)*%
X74750000Y-26225000D03*
D15*
%TO.P,JP4,2,B*%
%TO.N,Net-(JP4-B)*%
X74750000Y-24775000D03*
%TD*%
D10*
%TO.P,R36,1*%
%TO.N,Net-(JP12-B)*%
X85990000Y-40675000D03*
%TO.P,R36,2*%
%TO.N,Net-(JP10-A)*%
X85990000Y-42325000D03*
%TD*%
%TO.P,R9,1*%
%TO.N,Net-(JP3-B)*%
X58250000Y-24675000D03*
%TO.P,R9,2*%
%TO.N,Net-(JP1-A)*%
X58250000Y-26325000D03*
%TD*%
%TO.P,R5,1*%
%TO.N,Net-(JP2-B)*%
X41250000Y-24675000D03*
%TO.P,R5,2*%
%TO.N,Net-(JP1-A)*%
X41250000Y-26325000D03*
%TD*%
%TO.P,R39,1*%
%TO.N,Net-(JP13-B)*%
X104500000Y-40675000D03*
%TO.P,R39,2*%
%TO.N,Net-(JP10-A)*%
X104500000Y-42325000D03*
%TD*%
%TO.P,R83,1*%
%TO.N,Net-(JP28-B)*%
X124500000Y-72675000D03*
%TO.P,R83,2*%
%TO.N,Net-(JP22-A)*%
X124500000Y-74325000D03*
%TD*%
%TO.P,R67,1*%
%TO.N,Net-(JP23-B)*%
X33500000Y-72675000D03*
%TO.P,R67,2*%
%TO.N,Net-(JP22-A)*%
X33500000Y-74325000D03*
%TD*%
D11*
%TO.P,SPRING27,1,1*%
%TO.N,Net-(JP27-B)*%
X105105662Y-70184430D03*
%TD*%
D10*
%TO.P,R14,1*%
%TO.N,Net-(JP5-B)*%
X96750000Y-24675000D03*
%TO.P,R14,2*%
%TO.N,Net-(JP1-A)*%
X96750000Y-26325000D03*
%TD*%
%TO.P,R37,1*%
%TO.N,Net-(JP13-B)*%
X107500000Y-40675000D03*
%TO.P,R37,2*%
%TO.N,Net-(JP10-A)*%
X107500000Y-42325000D03*
%TD*%
D14*
%TO.P,JP2,1,A*%
%TO.N,Net-(JP1-A)*%
X37750000Y-26225000D03*
D15*
%TO.P,JP2,2,B*%
%TO.N,Net-(JP2-B)*%
X37750000Y-24775000D03*
%TD*%
D10*
%TO.P,R46,1*%
%TO.N,Net-(JP10-A)*%
X41250000Y-50275000D03*
%TO.P,R46,2*%
%TO.N,Net-(JP16-B)*%
X41250000Y-51925000D03*
%TD*%
D14*
%TO.P,JP25,1,A*%
%TO.N,Net-(JP22-A)*%
X65500000Y-74225000D03*
D15*
%TO.P,JP25,2,B*%
%TO.N,Net-(JP25-B)*%
X65500000Y-72775000D03*
%TD*%
D12*
%TO.P,JP34,1,A*%
%TO.N,Net-(JP22-A)*%
X117000000Y-82275000D03*
D13*
%TO.P,JP34,2,B*%
%TO.N,Net-(JP34-B)*%
X117000000Y-83725000D03*
%TD*%
D10*
%TO.P,R74,1*%
%TO.N,Net-(JP25-B)*%
X69000000Y-72675000D03*
%TO.P,R74,2*%
%TO.N,Net-(JP22-A)*%
X69000000Y-74325000D03*
%TD*%
%TO.P,R22,1*%
%TO.N,Net-(JP8-B)*%
X15000000Y-40675000D03*
%TO.P,R22,2*%
%TO.N,Net-(JP10-A)*%
X15000000Y-42325000D03*
%TD*%
%TO.P,R73,1*%
%TO.N,Net-(JP25-B)*%
X70500000Y-72675000D03*
%TO.P,R73,2*%
%TO.N,Net-(JP22-A)*%
X70500000Y-74325000D03*
%TD*%
%TO.P,R77,1*%
%TO.N,Net-(JP26-B)*%
X87500000Y-72675000D03*
%TO.P,R77,2*%
%TO.N,Net-(JP22-A)*%
X87500000Y-74325000D03*
%TD*%
%TO.P,R79,1*%
%TO.N,Net-(JP27-B)*%
X107500000Y-72675000D03*
%TO.P,R79,2*%
%TO.N,Net-(JP22-A)*%
X107500000Y-74325000D03*
%TD*%
%TO.P,R70,1*%
%TO.N,Net-(JP24-B)*%
X52000000Y-72675000D03*
%TO.P,R70,2*%
%TO.N,Net-(JP22-A)*%
X52000000Y-74325000D03*
%TD*%
D12*
%TO.P,JP21,1,A*%
%TO.N,Net-(JP10-A)*%
X135500000Y-50275000D03*
D13*
%TO.P,JP21,2,B*%
%TO.N,Net-(JP21-B)*%
X135500000Y-51725000D03*
%TD*%
D12*
%TO.P,JP29,1,A*%
%TO.N,Net-(JP22-A)*%
X25400000Y-82375000D03*
D13*
%TO.P,JP29,2,B*%
%TO.N,Net-(JP29-B)*%
X25400000Y-83825000D03*
%TD*%
D17*
%TO.P,J3,1,Pin_1*%
%TO.N,Net-(J3-Pin_1)*%
X5275000Y-93600000D03*
D18*
X14275000Y-93600000D03*
%TD*%
D10*
%TO.P,R98,1*%
%TO.N,Net-(JP22-A)*%
X95000000Y-82175000D03*
%TO.P,R98,2*%
%TO.N,Net-(JP33-B)*%
X95000000Y-83825000D03*
%TD*%
%TO.P,R40,1*%
%TO.N,Net-(JP14-B)*%
X126000000Y-40675000D03*
%TO.P,R40,2*%
%TO.N,Net-(JP10-A)*%
X126000000Y-42325000D03*
%TD*%
%TO.P,R94,1*%
%TO.N,Net-(JP22-A)*%
X78000000Y-82175000D03*
%TO.P,R94,2*%
%TO.N,Net-(JP32-B)*%
X78000000Y-83825000D03*
%TD*%
D11*
%TO.P,SPRING29,1,1*%
%TO.N,Net-(JP29-B)*%
X21872490Y-86203430D03*
%TD*%
D10*
%TO.P,R59,1*%
%TO.N,Net-(JP10-A)*%
X113750000Y-50275000D03*
%TO.P,R59,2*%
%TO.N,Net-(JP20-B)*%
X113750000Y-51925000D03*
%TD*%
D21*
%TO.P,F1,1*%
%TO.N,Net-(J1-Pin_1)*%
X12025000Y-17775000D03*
%TO.P,F1,2*%
%TO.N,Net-(JP1-A)*%
X12025000Y-19525000D03*
%TD*%
D10*
%TO.P,R68,1*%
%TO.N,Net-(JP23-B)*%
X32000000Y-72675000D03*
%TO.P,R68,2*%
%TO.N,Net-(JP22-A)*%
X32000000Y-74325000D03*
%TD*%
D14*
%TO.P,JP28,1,A*%
%TO.N,Net-(JP22-A)*%
X121000000Y-74225000D03*
D15*
%TO.P,JP28,2,B*%
%TO.N,Net-(JP28-B)*%
X121000000Y-72775000D03*
%TD*%
D10*
%TO.P,R35,1*%
%TO.N,Net-(JP12-B)*%
X87500000Y-40675000D03*
%TO.P,R35,2*%
%TO.N,Net-(JP10-A)*%
X87500000Y-42325000D03*
%TD*%
D11*
%TO.P,SPRING24,1,1*%
%TO.N,Net-(JP24-B)*%
X49605632Y-70184410D03*
%TD*%
D10*
%TO.P,R53,1*%
%TO.N,Net-(JP10-A)*%
X76750000Y-50475000D03*
%TO.P,R53,2*%
%TO.N,Net-(JP18-B)*%
X76750000Y-52125000D03*
%TD*%
%TO.P,R105,1*%
%TO.N,Net-(JP22-A)*%
X130490000Y-82175000D03*
%TO.P,R105,2*%
%TO.N,Net-(JP35-B)*%
X130490000Y-83825000D03*
%TD*%
%TO.P,R18,1*%
%TO.N,Net-(JP6-B)*%
X113750000Y-24675000D03*
%TO.P,R18,2*%
%TO.N,Net-(JP1-A)*%
X113750000Y-26325000D03*
%TD*%
%TO.P,R15,1*%
%TO.N,Net-(JP5-B)*%
X95250000Y-24675000D03*
%TO.P,R15,2*%
%TO.N,Net-(JP1-A)*%
X95250000Y-26325000D03*
%TD*%
%TO.P,R38,1*%
%TO.N,Net-(JP13-B)*%
X106000000Y-40675000D03*
%TO.P,R38,2*%
%TO.N,Net-(JP10-A)*%
X106000000Y-42325000D03*
%TD*%
D12*
%TO.P,JP33,1,A*%
%TO.N,Net-(JP22-A)*%
X98500000Y-82275000D03*
D13*
%TO.P,JP33,2,B*%
%TO.N,Net-(JP33-B)*%
X98500000Y-83725000D03*
%TD*%
D10*
%TO.P,R7,1*%
%TO.N,Net-(JP3-B)*%
X61250000Y-24675000D03*
%TO.P,R7,2*%
%TO.N,Net-(JP1-A)*%
X61250000Y-26325000D03*
%TD*%
%TO.P,R92,1*%
%TO.N,Net-(JP22-A)*%
X58000000Y-82175000D03*
%TO.P,R92,2*%
%TO.N,Net-(JP31-B)*%
X58000000Y-83825000D03*
%TD*%
D12*
%TO.P,JP31,1,A*%
%TO.N,Net-(JP22-A)*%
X61500000Y-82275000D03*
D13*
%TO.P,JP31,2,B*%
%TO.N,Net-(JP31-B)*%
X61500000Y-83725000D03*
%TD*%
D10*
%TO.P,R24,1*%
%TO.N,Net-(JP8-B)*%
X12000000Y-40675000D03*
%TO.P,R24,2*%
%TO.N,Net-(JP10-A)*%
X12000000Y-42325000D03*
%TD*%
D14*
%TO.P,JP8,1,A*%
%TO.N,Net-(JP10-A)*%
X10000000Y-42225000D03*
D15*
%TO.P,JP8,2,B*%
%TO.N,Net-(JP8-B)*%
X10000000Y-40775000D03*
%TD*%
D11*
%TO.P,SPRING8,1,1*%
%TO.N,Net-(JP8-B)*%
X12700000Y-38144167D03*
%TD*%
%TO.P,SPRING15,1,1*%
%TO.N,Net-(JP15-B)*%
X21950000Y-54200000D03*
%TD*%
D10*
%TO.P,R62,1*%
%TO.N,Net-(JP10-A)*%
X132000000Y-50175000D03*
%TO.P,R62,2*%
%TO.N,Net-(JP21-B)*%
X132000000Y-51825000D03*
%TD*%
%TO.P,R93,1*%
%TO.N,Net-(JP22-A)*%
X56500000Y-82175000D03*
%TO.P,R93,2*%
%TO.N,Net-(JP31-B)*%
X56500000Y-83825000D03*
%TD*%
D12*
%TO.P,JP35,1,A*%
%TO.N,Net-(JP22-A)*%
X135500000Y-82275000D03*
D13*
%TO.P,JP35,2,B*%
%TO.N,Net-(JP35-B)*%
X135500000Y-83725000D03*
%TD*%
D10*
%TO.P,R41,1*%
%TO.N,Net-(JP14-B)*%
X124500000Y-40675000D03*
%TO.P,R41,2*%
%TO.N,Net-(JP10-A)*%
X124500000Y-42325000D03*
%TD*%
D11*
%TO.P,SPRING1,1,1*%
%TO.N,Net-(JP1-B)*%
X21914338Y-22122696D03*
%TD*%
D10*
%TO.P,R60,1*%
%TO.N,Net-(JP10-A)*%
X112250000Y-50275000D03*
%TO.P,R60,2*%
%TO.N,Net-(JP20-B)*%
X112250000Y-51925000D03*
%TD*%
%TO.P,R20,1*%
%TO.N,Net-(JP7-B)*%
X133750000Y-24675000D03*
%TO.P,R20,2*%
%TO.N,Net-(JP1-A)*%
X133750000Y-26325000D03*
%TD*%
%TO.P,R4,1*%
%TO.N,Net-(JP2-B)*%
X42750000Y-24675000D03*
%TO.P,R4,2*%
%TO.N,Net-(JP1-A)*%
X42750000Y-26325000D03*
%TD*%
%TO.P,R61,1*%
%TO.N,Net-(JP10-A)*%
X133500000Y-50175000D03*
%TO.P,R61,2*%
%TO.N,Net-(JP21-B)*%
X133500000Y-51825000D03*
%TD*%
D14*
%TO.P,JP24,1,A*%
%TO.N,Net-(JP22-A)*%
X47000000Y-74225000D03*
D15*
%TO.P,JP24,2,B*%
%TO.N,Net-(JP24-B)*%
X47000000Y-72775000D03*
%TD*%
D14*
%TO.P,JP27,1,A*%
%TO.N,Net-(JP22-A)*%
X102500000Y-74225000D03*
D15*
%TO.P,JP27,2,B*%
%TO.N,Net-(JP27-B)*%
X102500000Y-72775000D03*
%TD*%
D10*
%TO.P,R29,1*%
%TO.N,Net-(JP10-B)*%
X50500000Y-40675000D03*
%TO.P,R29,2*%
%TO.N,Net-(JP10-A)*%
X50500000Y-42325000D03*
%TD*%
%TO.P,R65,1*%
%TO.N,Net-(JP22-B)*%
X13500000Y-72675000D03*
%TO.P,R65,2*%
%TO.N,Net-(JP22-A)*%
X13500000Y-74325000D03*
%TD*%
%TO.P,R10,1*%
%TO.N,Net-(JP4-B)*%
X79750000Y-24675000D03*
%TO.P,R10,2*%
%TO.N,Net-(JP1-A)*%
X79750000Y-26325000D03*
%TD*%
%TO.P,R84,1*%
%TO.N,Net-(JP28-B)*%
X123000000Y-72675000D03*
%TO.P,R84,2*%
%TO.N,Net-(JP22-A)*%
X123000000Y-74325000D03*
%TD*%
D14*
%TO.P,JP12,1,A*%
%TO.N,Net-(JP10-A)*%
X84000000Y-42225000D03*
D15*
%TO.P,JP12,2,B*%
%TO.N,Net-(JP12-B)*%
X84000000Y-40775000D03*
%TD*%
D10*
%TO.P,R103,1*%
%TO.N,Net-(JP22-A)*%
X133500000Y-82175000D03*
%TO.P,R103,2*%
%TO.N,Net-(JP35-B)*%
X133500000Y-83825000D03*
%TD*%
D14*
%TO.P,JP13,1,A*%
%TO.N,Net-(JP10-A)*%
X102500000Y-42225000D03*
D15*
%TO.P,JP13,2,B*%
%TO.N,Net-(JP13-B)*%
X102500000Y-40775000D03*
%TD*%
D11*
%TO.P,SPRING4,1,1*%
%TO.N,Net-(JP4-B)*%
X77400000Y-22117550D03*
%TD*%
D10*
%TO.P,R99,1*%
%TO.N,Net-(JP22-A)*%
X93500000Y-82175000D03*
%TO.P,R99,2*%
%TO.N,Net-(JP33-B)*%
X93500000Y-83825000D03*
%TD*%
%TO.P,R27,1*%
%TO.N,Net-(JP9-B)*%
X30500000Y-40675000D03*
%TO.P,R27,2*%
%TO.N,Net-(JP10-A)*%
X30500000Y-42325000D03*
%TD*%
%TO.P,R49,1*%
%TO.N,Net-(JP10-A)*%
X59750000Y-50275000D03*
%TO.P,R49,2*%
%TO.N,Net-(JP17-B)*%
X59750000Y-51925000D03*
%TD*%
%TO.P,R101,1*%
%TO.N,Net-(JP22-A)*%
X113500000Y-82175000D03*
%TO.P,R101,2*%
%TO.N,Net-(JP34-B)*%
X113500000Y-83825000D03*
%TD*%
%TO.P,R11,1*%
%TO.N,Net-(JP4-B)*%
X78260000Y-24675000D03*
%TO.P,R11,2*%
%TO.N,Net-(JP1-A)*%
X78260000Y-26325000D03*
%TD*%
D11*
%TO.P,SPRING35,1,1*%
%TO.N,Net-(JP35-B)*%
X132872486Y-86203427D03*
%TD*%
%TO.P,SPRING14,1,1*%
%TO.N,Net-(JP14-B)*%
X123635663Y-38150000D03*
%TD*%
D10*
%TO.P,R42,1*%
%TO.N,Net-(JP14-B)*%
X123000000Y-40675000D03*
%TO.P,R42,2*%
%TO.N,Net-(JP10-A)*%
X123000000Y-42325000D03*
%TD*%
D11*
%TO.P,SPRING22,1,1*%
%TO.N,Net-(JP22-B)*%
X12650000Y-70187126D03*
%TD*%
%TO.P,SPRING19,1,1*%
%TO.N,Net-(JP19-B)*%
X95952540Y-54197590D03*
%TD*%
%TO.P,SPRING25,1,1*%
%TO.N,Net-(JP25-B)*%
X68104367Y-70285014D03*
%TD*%
D12*
%TO.P,JP20,1,A*%
%TO.N,Net-(JP10-A)*%
X117300000Y-50275000D03*
D13*
%TO.P,JP20,2,B*%
%TO.N,Net-(JP20-B)*%
X117300000Y-51725000D03*
%TD*%
D10*
%TO.P,R54,1*%
%TO.N,Net-(JP10-A)*%
X75250000Y-50475000D03*
%TO.P,R54,2*%
%TO.N,Net-(JP18-B)*%
X75250000Y-52125000D03*
%TD*%
D11*
%TO.P,SPRING5,1,1*%
%TO.N,Net-(JP5-B)*%
X95900000Y-22100000D03*
%TD*%
%TO.P,SPRING3,1,1*%
%TO.N,Net-(JP3-B)*%
X58914338Y-22122696D03*
%TD*%
D10*
%TO.P,R21,1*%
%TO.N,Net-(JP7-B)*%
X132250000Y-24675000D03*
%TO.P,R21,2*%
%TO.N,Net-(JP1-A)*%
X132250000Y-26325000D03*
%TD*%
%TO.P,R13,1*%
%TO.N,Net-(JP5-B)*%
X98250000Y-24675000D03*
%TO.P,R13,2*%
%TO.N,Net-(JP1-A)*%
X98250000Y-26325000D03*
%TD*%
%TO.P,R45,1*%
%TO.N,Net-(JP10-A)*%
X19750000Y-50275000D03*
%TO.P,R45,2*%
%TO.N,Net-(JP15-B)*%
X19750000Y-51925000D03*
%TD*%
D11*
%TO.P,SPRING32,1,1*%
%TO.N,Net-(JP32-B)*%
X77372486Y-86203417D03*
%TD*%
D12*
%TO.P,JP32,1,A*%
%TO.N,Net-(JP22-A)*%
X80000000Y-82275000D03*
D13*
%TO.P,JP32,2,B*%
%TO.N,Net-(JP32-B)*%
X80000000Y-83725000D03*
%TD*%
D22*
%TO.P,F2,1*%
%TO.N,Net-(J2-Pin_1)*%
X11075000Y-49100000D03*
%TO.P,F2,2*%
%TO.N,Net-(JP10-A)*%
X12825000Y-49100000D03*
%TD*%
D11*
%TO.P,SPRING20,1,1*%
%TO.N,Net-(JP20-B)*%
X114451275Y-54298194D03*
%TD*%
D10*
%TO.P,R82,1*%
%TO.N,Net-(JP28-B)*%
X126000000Y-72675000D03*
%TO.P,R82,2*%
%TO.N,Net-(JP22-A)*%
X126000000Y-74325000D03*
%TD*%
%TO.P,R28,1*%
%TO.N,Net-(JP10-B)*%
X52000000Y-40675000D03*
%TO.P,R28,2*%
%TO.N,Net-(JP10-A)*%
X52000000Y-42325000D03*
%TD*%
D11*
%TO.P,SPRING23,1,1*%
%TO.N,Net-(JP23-B)*%
X31147490Y-70189556D03*
%TD*%
D10*
%TO.P,R43,1*%
%TO.N,Net-(JP10-A)*%
X22750000Y-50275000D03*
%TO.P,R43,2*%
%TO.N,Net-(JP15-B)*%
X22750000Y-51925000D03*
%TD*%
%TO.P,R19,1*%
%TO.N,Net-(JP7-B)*%
X135250000Y-24675000D03*
%TO.P,R19,2*%
%TO.N,Net-(JP1-A)*%
X135250000Y-26325000D03*
%TD*%
%TO.P,R91,1*%
%TO.N,Net-(JP22-A)*%
X59500000Y-82175000D03*
%TO.P,R91,2*%
%TO.N,Net-(JP31-B)*%
X59500000Y-83825000D03*
%TD*%
D12*
%TO.P,JP15,1,A*%
%TO.N,Net-(JP10-A)*%
X24750000Y-50275000D03*
D13*
%TO.P,JP15,2,B*%
%TO.N,Net-(JP15-B)*%
X24750000Y-51725000D03*
%TD*%
D14*
%TO.P,JP3,1,A*%
%TO.N,Net-(JP1-A)*%
X56250000Y-26225000D03*
D15*
%TO.P,JP3,2,B*%
%TO.N,Net-(JP3-B)*%
X56250000Y-24775000D03*
%TD*%
D10*
%TO.P,R8,1*%
%TO.N,Net-(JP3-B)*%
X59750000Y-24675000D03*
%TO.P,R8,2*%
%TO.N,Net-(JP1-A)*%
X59750000Y-26325000D03*
%TD*%
%TO.P,R86,1*%
%TO.N,Net-(JP22-A)*%
X21900000Y-82275000D03*
%TO.P,R86,2*%
%TO.N,Net-(JP29-B)*%
X21900000Y-83925000D03*
%TD*%
D14*
%TO.P,JP6,1,A*%
%TO.N,Net-(JP1-A)*%
X111750000Y-26225000D03*
D15*
%TO.P,JP6,2,B*%
%TO.N,Net-(JP6-B)*%
X111750000Y-24775000D03*
%TD*%
D11*
%TO.P,SPRING30,1,1*%
%TO.N,Net-(JP30-B)*%
X40374996Y-86200987D03*
%TD*%
%TO.P,SPRING9,1,1*%
%TO.N,Net-(JP9-B)*%
X31202510Y-38141737D03*
%TD*%
D14*
%TO.P,JP5,1,A*%
%TO.N,Net-(JP1-A)*%
X93250000Y-26225000D03*
D15*
%TO.P,JP5,2,B*%
%TO.N,Net-(JP5-B)*%
X93250000Y-24775000D03*
%TD*%
D11*
%TO.P,SPRING16,1,1*%
%TO.N,Net-(JP16-B)*%
X40494398Y-54202736D03*
%TD*%
D10*
%TO.P,R96,1*%
%TO.N,Net-(JP22-A)*%
X74990000Y-82175000D03*
%TO.P,R96,2*%
%TO.N,Net-(JP32-B)*%
X74990000Y-83825000D03*
%TD*%
D11*
%TO.P,SPRING26,1,1*%
%TO.N,Net-(JP26-B)*%
X86606877Y-70282584D03*
%TD*%
D10*
%TO.P,R104,1*%
%TO.N,Net-(JP22-A)*%
X132000000Y-82175000D03*
%TO.P,R104,2*%
%TO.N,Net-(JP35-B)*%
X132000000Y-83825000D03*
%TD*%
D14*
%TO.P,JP22,1,A*%
%TO.N,Net-(JP22-A)*%
X10000000Y-74225000D03*
D15*
%TO.P,JP22,2,B*%
%TO.N,Net-(JP22-B)*%
X10000000Y-72775000D03*
%TD*%
D12*
%TO.P,JP18,1,A*%
%TO.N,Net-(JP10-A)*%
X80300000Y-50275000D03*
D13*
%TO.P,JP18,2,B*%
%TO.N,Net-(JP18-B)*%
X80300000Y-51725000D03*
%TD*%
D11*
%TO.P,SPRING10,1,1*%
%TO.N,Net-(JP10-B)*%
X49700000Y-38144167D03*
%TD*%
D10*
%TO.P,R64,1*%
%TO.N,Net-(JP22-B)*%
X15000000Y-72675000D03*
%TO.P,R64,2*%
%TO.N,Net-(JP22-A)*%
X15000000Y-74325000D03*
%TD*%
D23*
%TO.N,Net-(JP1-B)*%
X21914338Y-24114338D02*
X22000000Y-24200000D01*
X21914338Y-22122696D02*
X21914338Y-24114338D01*
%TO.N,Net-(JP2-B)*%
X40400000Y-22122696D02*
X40400000Y-24100000D01*
X40400000Y-24100000D02*
X40500000Y-24200000D01*
%TO.N,Net-(JP3-B)*%
X58914338Y-22122696D02*
X58914338Y-24114338D01*
X58914338Y-24114338D02*
X59000000Y-24200000D01*
%TO.N,Net-(JP4-B)*%
X77400000Y-24100000D02*
X77500000Y-24200000D01*
X77400000Y-22117550D02*
X77400000Y-24100000D01*
%TO.N,Net-(JP5-B)*%
X95900000Y-22100000D02*
X95900000Y-24100000D01*
X95900000Y-24100000D02*
X96000000Y-24200000D01*
%TO.N,Net-(JP6-B)*%
X114400000Y-22100000D02*
X114400000Y-24100000D01*
X114400000Y-24100000D02*
X114500000Y-24200000D01*
%TO.N,Net-(JP7-B)*%
X132872500Y-24172500D02*
X132900000Y-24200000D01*
X132872500Y-22117600D02*
X132872500Y-24172500D01*
%TO.N,Net-(JP8-B)*%
X12700000Y-40100000D02*
X12800000Y-40200000D01*
X12700000Y-38144167D02*
X12700000Y-40100000D01*
%TO.N,Net-(JP9-B)*%
X31202510Y-40197490D02*
X31200000Y-40200000D01*
X31202510Y-38141737D02*
X31202510Y-40197490D01*
%TO.N,Net-(JP10-B)*%
X49700000Y-38144167D02*
X49700000Y-40200000D01*
%TO.N,Net-(JP11-B)*%
X68202510Y-38141737D02*
X68202510Y-40197490D01*
X68202510Y-40197490D02*
X68200000Y-40200000D01*
%TO.N,Net-(JP12-B)*%
X86660652Y-40260652D02*
X86700000Y-40300000D01*
X86660652Y-38136591D02*
X86660652Y-40260652D01*
%TO.N,Net-(JP13-B)*%
X105159387Y-38237195D02*
X105159387Y-40159387D01*
X105159387Y-40159387D02*
X105200000Y-40200000D01*
%TO.N,Net-(JP14-B)*%
X123635663Y-40135663D02*
X123700000Y-40200000D01*
X123635663Y-38150000D02*
X123635663Y-40135663D01*
%TO.N,Net-(JP15-B)*%
X21950000Y-54200000D02*
X21950000Y-52350000D01*
X21950000Y-52350000D02*
X21900000Y-52300000D01*
%TO.N,Net-(JP22-B)*%
X12650000Y-72150000D02*
X12700000Y-72200000D01*
X12650000Y-70187126D02*
X12650000Y-72150000D01*
D24*
%TO.N,Net-(JP23-B)*%
X31664338Y-70187107D02*
X31012893Y-70187107D01*
D23*
X31147490Y-72047490D02*
X31300000Y-72200000D01*
X31147490Y-70189556D02*
X31147490Y-72047490D01*
%TO.N,Net-(JP24-B)*%
X49605632Y-70184410D02*
X49605632Y-72105632D01*
X49605632Y-72105632D02*
X49700000Y-72200000D01*
%TO.N,Net-(JP25-B)*%
X68104367Y-70285014D02*
X68104367Y-72104367D01*
X68104367Y-72104367D02*
X68200000Y-72200000D01*
%TO.N,Net-(JP26-B)*%
X86606877Y-70282584D02*
X86606877Y-72106877D01*
X86606877Y-72106877D02*
X86700000Y-72200000D01*
%TO.N,Net-(JP27-B)*%
X105105662Y-72105662D02*
X105200000Y-72200000D01*
X105105662Y-70184430D02*
X105105662Y-72105662D01*
%TO.N,Net-(JP28-B)*%
X123647500Y-70189537D02*
X123647500Y-72047500D01*
X123647500Y-72047500D02*
X123800000Y-72200000D01*
%TO.N,Net-(JP29-B)*%
X21872490Y-86203430D02*
X21872490Y-84372490D01*
X21872490Y-84372490D02*
X21700000Y-84200000D01*
%TO.N,Net-(JP30-B)*%
X40374996Y-86200987D02*
X40374996Y-84274996D01*
X40374996Y-84274996D02*
X40300000Y-84200000D01*
%TO.N,Net-(JP31-B)*%
X58872486Y-84372486D02*
X58700000Y-84200000D01*
X58872486Y-86203417D02*
X58872486Y-84372486D01*
%TO.N,Net-(JP32-B)*%
X77372486Y-86203417D02*
X77372486Y-84272486D01*
X77372486Y-84272486D02*
X77300000Y-84200000D01*
%TO.N,Net-(JP33-B)*%
X95872486Y-86203417D02*
X95872486Y-84272486D01*
X95872486Y-84272486D02*
X95800000Y-84200000D01*
%TO.N,Net-(JP34-B)*%
X114372496Y-86203427D02*
X114372496Y-84272496D01*
X114372496Y-84272496D02*
X114300000Y-84200000D01*
%TO.N,Net-(JP35-B)*%
X132872486Y-84272486D02*
X132800000Y-84200000D01*
X132872486Y-86203427D02*
X132872486Y-84272486D01*
%TO.N,Net-(JP16-B)*%
X40494398Y-54202736D02*
X40494398Y-52394398D01*
X40494398Y-52394398D02*
X40400000Y-52300000D01*
%TO.N,Net-(JP17-B)*%
X58991888Y-54205166D02*
X58991888Y-52391888D01*
X58991888Y-52391888D02*
X58900000Y-52300000D01*
%TO.N,Net-(JP19-B)*%
X95952540Y-52352540D02*
X95900000Y-52300000D01*
X95952540Y-54197590D02*
X95952540Y-52352540D01*
%TO.N,Net-(JP20-B)*%
X114451275Y-54298194D02*
X114451275Y-52351275D01*
X114451275Y-52351275D02*
X114400000Y-52300000D01*
%TO.N,Net-(JP21-B)*%
X132908222Y-54194903D02*
X132908222Y-52308222D01*
X132908222Y-52308222D02*
X132800000Y-52200000D01*
%TO.N,Net-(JP18-B)*%
X77450030Y-52350030D02*
X77400000Y-52300000D01*
X77450030Y-54200020D02*
X77450030Y-52350030D01*
%TD*%
%TA.AperFunction,Conductor*%
%TO.N,Net-(JP8-B)*%
G36*
X15543039Y-40119685D02*
G01*
X15588794Y-40172489D01*
X15600000Y-40224000D01*
X15600000Y-40876000D01*
X15580315Y-40943039D01*
X15527511Y-40988794D01*
X15476000Y-41000000D01*
X10611347Y-41000000D01*
X10544308Y-40980315D01*
X10542564Y-40979174D01*
X10280414Y-40804407D01*
X10266109Y-40795213D01*
X10134244Y-40737651D01*
X9991509Y-40719570D01*
X9849454Y-40742438D01*
X9849451Y-40742439D01*
X9719598Y-40804399D01*
X9457436Y-40979174D01*
X9390737Y-40999982D01*
X9388653Y-41000000D01*
X9224000Y-41000000D01*
X9156961Y-40980315D01*
X9111206Y-40927511D01*
X9100000Y-40876000D01*
X9100000Y-40224000D01*
X9119685Y-40156961D01*
X9172489Y-40111206D01*
X9224000Y-40100000D01*
X15476000Y-40100000D01*
X15543039Y-40119685D01*
G37*
%TD.AperFunction*%
%TD*%
%TA.AperFunction,Conductor*%
%TO.N,Net-(JP28-B)*%
G36*
X126543039Y-72119685D02*
G01*
X126588794Y-72172489D01*
X126600000Y-72224000D01*
X126600000Y-72876000D01*
X126580315Y-72943039D01*
X126527511Y-72988794D01*
X126476000Y-73000000D01*
X121611347Y-73000000D01*
X121544308Y-72980315D01*
X121542564Y-72979174D01*
X121280414Y-72804407D01*
X121266109Y-72795213D01*
X121134244Y-72737651D01*
X120991509Y-72719570D01*
X120849454Y-72742438D01*
X120849451Y-72742439D01*
X120719598Y-72804399D01*
X120457436Y-72979174D01*
X120390737Y-72999982D01*
X120388653Y-73000000D01*
X120224000Y-73000000D01*
X120156961Y-72980315D01*
X120111206Y-72927511D01*
X120100000Y-72876000D01*
X120100000Y-72224000D01*
X120119685Y-72156961D01*
X120172489Y-72111206D01*
X120224000Y-72100000D01*
X126476000Y-72100000D01*
X126543039Y-72119685D01*
G37*
%TD.AperFunction*%
%TD*%
%TA.AperFunction,Conductor*%
%TO.N,Net-(JP22-A)*%
G36*
X16800000Y-82500000D02*
G01*
X20323077Y-82500000D01*
X20199760Y-82645738D01*
X19934774Y-82958901D01*
X19876443Y-82997363D01*
X19853371Y-83002093D01*
X19816543Y-83006053D01*
X19765027Y-83017260D01*
X19662502Y-83051383D01*
X19662496Y-83051386D01*
X19541462Y-83129171D01*
X19541451Y-83129179D01*
X19488659Y-83174923D01*
X19394433Y-83283664D01*
X19394430Y-83283668D01*
X19334664Y-83414534D01*
X19314976Y-83481582D01*
X19294500Y-83624001D01*
X19294500Y-83670167D01*
X19274815Y-83737206D01*
X19265160Y-83750264D01*
X14437149Y-89456097D01*
X14378818Y-89494559D01*
X14342489Y-89500000D01*
X13244384Y-89500000D01*
X13226738Y-89498738D01*
X13197262Y-89494500D01*
X13197261Y-89494500D01*
X11074000Y-89494500D01*
X11006961Y-89474815D01*
X10961206Y-89422011D01*
X10950000Y-89370500D01*
X10950000Y-87850460D01*
X10969685Y-87783421D01*
X10985230Y-87763881D01*
X16800000Y-81802521D01*
X16800000Y-82500000D01*
G37*
%TD.AperFunction*%
%TD*%
%TA.AperFunction,Conductor*%
%TO.N,Net-(JP23-B)*%
G36*
X34043039Y-72119685D02*
G01*
X34088794Y-72172489D01*
X34100000Y-72224000D01*
X34100000Y-72876000D01*
X34080315Y-72943039D01*
X34027511Y-72988794D01*
X33976000Y-73000000D01*
X29111347Y-73000000D01*
X29044308Y-72980315D01*
X29042564Y-72979174D01*
X28780414Y-72804407D01*
X28766109Y-72795213D01*
X28634244Y-72737651D01*
X28491509Y-72719570D01*
X28349454Y-72742438D01*
X28349451Y-72742439D01*
X28219598Y-72804399D01*
X27957436Y-72979174D01*
X27890737Y-72999982D01*
X27888653Y-73000000D01*
X27724000Y-73000000D01*
X27656961Y-72980315D01*
X27611206Y-72927511D01*
X27600000Y-72876000D01*
X27600000Y-72224000D01*
X27619685Y-72156961D01*
X27672489Y-72111206D01*
X27724000Y-72100000D01*
X33976000Y-72100000D01*
X34043039Y-72119685D01*
G37*
%TD.AperFunction*%
%TD*%
%TA.AperFunction,Conductor*%
%TO.N,Net-(JP31-B)*%
G36*
X60805692Y-83419685D02*
G01*
X60807436Y-83420826D01*
X60807437Y-83420826D01*
X61219599Y-83695601D01*
X61233890Y-83704786D01*
X61365754Y-83762348D01*
X61394302Y-83765964D01*
X61508490Y-83780429D01*
X61508491Y-83780428D01*
X61508494Y-83780429D01*
X61650546Y-83757562D01*
X61780401Y-83695601D01*
X62138361Y-83456961D01*
X62192564Y-83420826D01*
X62259263Y-83400018D01*
X62261347Y-83400000D01*
X62276000Y-83400000D01*
X62343039Y-83419685D01*
X62388794Y-83472489D01*
X62400000Y-83524000D01*
X62400000Y-84176000D01*
X62380315Y-84243039D01*
X62327511Y-84288794D01*
X62276000Y-84300000D01*
X56024000Y-84300000D01*
X55956961Y-84280315D01*
X55911206Y-84227511D01*
X55900000Y-84176000D01*
X55900000Y-83524000D01*
X55919685Y-83456961D01*
X55972489Y-83411206D01*
X56024000Y-83400000D01*
X60738653Y-83400000D01*
X60805692Y-83419685D01*
G37*
%TD.AperFunction*%
%TD*%
%TA.AperFunction,Conductor*%
%TO.N,Net-(JP20-B)*%
G36*
X116755692Y-51519685D02*
G01*
X116757436Y-51520826D01*
X116757437Y-51520826D01*
X117019599Y-51695601D01*
X117033890Y-51704786D01*
X117165754Y-51762348D01*
X117194302Y-51765964D01*
X117308490Y-51780429D01*
X117308491Y-51780428D01*
X117308494Y-51780429D01*
X117450546Y-51757562D01*
X117580401Y-51695601D01*
X117788361Y-51556961D01*
X117842564Y-51520826D01*
X117909263Y-51500018D01*
X117911347Y-51500000D01*
X118006000Y-51500000D01*
X118073039Y-51519685D01*
X118118794Y-51572489D01*
X118130000Y-51624000D01*
X118130000Y-52276000D01*
X118110315Y-52343039D01*
X118057511Y-52388794D01*
X118006000Y-52400000D01*
X111754000Y-52400000D01*
X111686961Y-52380315D01*
X111641206Y-52327511D01*
X111630000Y-52276000D01*
X111630000Y-51624000D01*
X111649685Y-51556961D01*
X111702489Y-51511206D01*
X111754000Y-51500000D01*
X116688653Y-51500000D01*
X116755692Y-51519685D01*
G37*
%TD.AperFunction*%
%TD*%
%TA.AperFunction,Conductor*%
%TO.N,Net-(JP10-A)*%
G36*
X84280692Y-41719685D02*
G01*
X84282436Y-41720826D01*
X84315393Y-41742797D01*
X84469599Y-41845601D01*
X84540008Y-41884819D01*
X84591473Y-41899930D01*
X84678059Y-41925355D01*
X84678060Y-41925355D01*
X84821941Y-41925355D01*
X84866237Y-41912348D01*
X84959992Y-41884819D01*
X85081032Y-41807031D01*
X85136692Y-41742796D01*
X85195469Y-41705023D01*
X85230404Y-41700000D01*
X89476000Y-41700000D01*
X89543039Y-41719685D01*
X89588794Y-41772489D01*
X89600000Y-41824000D01*
X89600000Y-42776000D01*
X89580315Y-42843039D01*
X89527511Y-42888794D01*
X89476000Y-42900000D01*
X88400000Y-42900000D01*
X88400000Y-46800000D01*
X84400000Y-46800000D01*
X84400000Y-42900000D01*
X83324000Y-42900000D01*
X83256961Y-42880315D01*
X83211206Y-42827511D01*
X83200000Y-42776000D01*
X83200000Y-42045480D01*
X83219685Y-41978441D01*
X83272489Y-41932686D01*
X83304289Y-41923056D01*
X83400546Y-41907562D01*
X83530401Y-41845601D01*
X83684607Y-41742797D01*
X83717564Y-41720826D01*
X83784263Y-41700018D01*
X83786347Y-41700000D01*
X84213653Y-41700000D01*
X84280692Y-41719685D01*
G37*
%TD.AperFunction*%
%TD*%
%TA.AperFunction,Conductor*%
%TO.N,Net-(JP17-B)*%
G36*
X61255692Y-51519685D02*
G01*
X61257436Y-51520826D01*
X61257437Y-51520826D01*
X61519599Y-51695601D01*
X61533890Y-51704786D01*
X61665754Y-51762348D01*
X61694302Y-51765964D01*
X61808490Y-51780429D01*
X61808491Y-51780428D01*
X61808494Y-51780429D01*
X61950546Y-51757562D01*
X62080401Y-51695601D01*
X62288361Y-51556961D01*
X62342564Y-51520826D01*
X62409263Y-51500018D01*
X62411347Y-51500000D01*
X62506000Y-51500000D01*
X62573039Y-51519685D01*
X62618794Y-51572489D01*
X62630000Y-51624000D01*
X62630000Y-52276000D01*
X62610315Y-52343039D01*
X62557511Y-52388794D01*
X62506000Y-52400000D01*
X56254000Y-52400000D01*
X56186961Y-52380315D01*
X56141206Y-52327511D01*
X56130000Y-52276000D01*
X56130000Y-51624000D01*
X56149685Y-51556961D01*
X56202489Y-51511206D01*
X56254000Y-51500000D01*
X61188653Y-51500000D01*
X61255692Y-51519685D01*
G37*
%TD.AperFunction*%
%TD*%
%TA.AperFunction,Conductor*%
%TO.N,Net-(J3-Pin_1)*%
G36*
X13264300Y-90019685D02*
G01*
X13286581Y-90037988D01*
X15815320Y-92663986D01*
X15847642Y-92725930D01*
X15850000Y-92749998D01*
X15850000Y-94526000D01*
X15830315Y-94593039D01*
X15777511Y-94638794D01*
X15726000Y-94650000D01*
X2874500Y-94650000D01*
X2807461Y-94630315D01*
X2761706Y-94577511D01*
X2750500Y-94526000D01*
X2750500Y-92574000D01*
X2770185Y-92506961D01*
X2822989Y-92461206D01*
X2874500Y-92450000D01*
X8599999Y-92450000D01*
X8600000Y-92450000D01*
X10913394Y-90038164D01*
X10974007Y-90003409D01*
X11002883Y-90000000D01*
X13197261Y-90000000D01*
X13264300Y-90019685D01*
G37*
%TD.AperFunction*%
%TD*%
%TA.AperFunction,Conductor*%
%TO.N,Net-(JP3-B)*%
G36*
X61743039Y-24119685D02*
G01*
X61788794Y-24172489D01*
X61800000Y-24224000D01*
X61800000Y-24776000D01*
X61780315Y-24843039D01*
X61727511Y-24888794D01*
X61676000Y-24900000D01*
X56711347Y-24900000D01*
X56644308Y-24880315D01*
X56642564Y-24879174D01*
X56530414Y-24804407D01*
X56516109Y-24795213D01*
X56384244Y-24737651D01*
X56241509Y-24719570D01*
X56099454Y-24742438D01*
X56099451Y-24742439D01*
X55969598Y-24804399D01*
X55857436Y-24879174D01*
X55790737Y-24899982D01*
X55788653Y-24900000D01*
X55624000Y-24900000D01*
X55556961Y-24880315D01*
X55511206Y-24827511D01*
X55500000Y-24776000D01*
X55500000Y-24224000D01*
X55519685Y-24156961D01*
X55572489Y-24111206D01*
X55624000Y-24100000D01*
X61676000Y-24100000D01*
X61743039Y-24119685D01*
G37*
%TD.AperFunction*%
%TD*%
%TA.AperFunction,Conductor*%
%TO.N,Net-(JP10-A)*%
G36*
X121250692Y-41699685D02*
G01*
X121252436Y-41700826D01*
X121285393Y-41722797D01*
X121469599Y-41845601D01*
X121540008Y-41884819D01*
X121591473Y-41899930D01*
X121678059Y-41925355D01*
X121678060Y-41925355D01*
X121821941Y-41925355D01*
X121866237Y-41912348D01*
X121959992Y-41884819D01*
X122081032Y-41807031D01*
X122154022Y-41722795D01*
X122212800Y-41685023D01*
X122247734Y-41680000D01*
X126476000Y-41680000D01*
X126543039Y-41699685D01*
X126588794Y-41752489D01*
X126600000Y-41804000D01*
X126600000Y-42756000D01*
X126580315Y-42823039D01*
X126527511Y-42868794D01*
X126476000Y-42880000D01*
X125400000Y-42880000D01*
X125400000Y-46780000D01*
X121400000Y-46780000D01*
X121400000Y-42880000D01*
X120324000Y-42880000D01*
X120256961Y-42860315D01*
X120211206Y-42807511D01*
X120200000Y-42756000D01*
X120200000Y-42045480D01*
X120219685Y-41978441D01*
X120272489Y-41932686D01*
X120304289Y-41923056D01*
X120400546Y-41907562D01*
X120530401Y-41845601D01*
X120714607Y-41722797D01*
X120747564Y-41700826D01*
X120814263Y-41680018D01*
X120816347Y-41680000D01*
X121183653Y-41680000D01*
X121250692Y-41699685D01*
G37*
%TD.AperFunction*%
%TD*%
%TA.AperFunction,Conductor*%
%TO.N,Net-(JP16-B)*%
G36*
X42755692Y-51519685D02*
G01*
X42757436Y-51520826D01*
X42757437Y-51520826D01*
X43019599Y-51695601D01*
X43033890Y-51704786D01*
X43165754Y-51762348D01*
X43194302Y-51765964D01*
X43308490Y-51780429D01*
X43308491Y-51780428D01*
X43308494Y-51780429D01*
X43450546Y-51757562D01*
X43580401Y-51695601D01*
X43788361Y-51556961D01*
X43842564Y-51520826D01*
X43909263Y-51500018D01*
X43911347Y-51500000D01*
X44076000Y-51500000D01*
X44143039Y-51519685D01*
X44188794Y-51572489D01*
X44200000Y-51624000D01*
X44200000Y-52276000D01*
X44180315Y-52343039D01*
X44127511Y-52388794D01*
X44076000Y-52400000D01*
X37824000Y-52400000D01*
X37756961Y-52380315D01*
X37711206Y-52327511D01*
X37700000Y-52276000D01*
X37700000Y-51624000D01*
X37719685Y-51556961D01*
X37772489Y-51511206D01*
X37824000Y-51500000D01*
X42688653Y-51500000D01*
X42755692Y-51519685D01*
G37*
%TD.AperFunction*%
%TD*%
%TA.AperFunction,Conductor*%
%TO.N,Net-(JP11-B)*%
G36*
X71043039Y-40119685D02*
G01*
X71088794Y-40172489D01*
X71100000Y-40224000D01*
X71100000Y-40876000D01*
X71080315Y-40943039D01*
X71027511Y-40988794D01*
X70976000Y-41000000D01*
X66111347Y-41000000D01*
X66044308Y-40980315D01*
X66042564Y-40979174D01*
X65780414Y-40804407D01*
X65766109Y-40795213D01*
X65634244Y-40737651D01*
X65491509Y-40719570D01*
X65349454Y-40742438D01*
X65349451Y-40742439D01*
X65219598Y-40804399D01*
X64957436Y-40979174D01*
X64890737Y-40999982D01*
X64888653Y-41000000D01*
X64724000Y-41000000D01*
X64656961Y-40980315D01*
X64611206Y-40927511D01*
X64600000Y-40876000D01*
X64600000Y-40224000D01*
X64619685Y-40156961D01*
X64672489Y-40111206D01*
X64724000Y-40100000D01*
X70976000Y-40100000D01*
X71043039Y-40119685D01*
G37*
%TD.AperFunction*%
%TD*%
%TA.AperFunction,Conductor*%
%TO.N,Net-(JP22-A)*%
G36*
X47280692Y-73719685D02*
G01*
X47282436Y-73720826D01*
X47315393Y-73742797D01*
X47469599Y-73845601D01*
X47540008Y-73884819D01*
X47591473Y-73899930D01*
X47678059Y-73925355D01*
X47678060Y-73925355D01*
X47821941Y-73925355D01*
X47866237Y-73912348D01*
X47959992Y-73884819D01*
X48081032Y-73807031D01*
X48136692Y-73742796D01*
X48195469Y-73705023D01*
X48230404Y-73700000D01*
X52476000Y-73700000D01*
X52543039Y-73719685D01*
X52588794Y-73772489D01*
X52600000Y-73824000D01*
X52600000Y-74776000D01*
X52580315Y-74843039D01*
X52527511Y-74888794D01*
X52476000Y-74900000D01*
X51400000Y-74900000D01*
X51400000Y-78800000D01*
X47400000Y-78800000D01*
X47400000Y-74900000D01*
X46324000Y-74900000D01*
X46256961Y-74880315D01*
X46211206Y-74827511D01*
X46200000Y-74776000D01*
X46200000Y-74045480D01*
X46219685Y-73978441D01*
X46272489Y-73932686D01*
X46304289Y-73923056D01*
X46400546Y-73907562D01*
X46530401Y-73845601D01*
X46684607Y-73742797D01*
X46717564Y-73720826D01*
X46784263Y-73700018D01*
X46786347Y-73700000D01*
X47213653Y-73700000D01*
X47280692Y-73719685D01*
G37*
%TD.AperFunction*%
%TD*%
%TA.AperFunction,Conductor*%
%TO.N,Net-(JP26-B)*%
G36*
X89543039Y-72119685D02*
G01*
X89588794Y-72172489D01*
X89600000Y-72224000D01*
X89600000Y-72876000D01*
X89580315Y-72943039D01*
X89527511Y-72988794D01*
X89476000Y-73000000D01*
X84611347Y-73000000D01*
X84544308Y-72980315D01*
X84542564Y-72979174D01*
X84280414Y-72804407D01*
X84266109Y-72795213D01*
X84134244Y-72737651D01*
X83991509Y-72719570D01*
X83849454Y-72742438D01*
X83849451Y-72742439D01*
X83719598Y-72804399D01*
X83457436Y-72979174D01*
X83390737Y-72999982D01*
X83388653Y-73000000D01*
X83224000Y-73000000D01*
X83156961Y-72980315D01*
X83111206Y-72927511D01*
X83100000Y-72876000D01*
X83100000Y-72224000D01*
X83119685Y-72156961D01*
X83172489Y-72111206D01*
X83224000Y-72100000D01*
X89476000Y-72100000D01*
X89543039Y-72119685D01*
G37*
%TD.AperFunction*%
%TD*%
%TA.AperFunction,Conductor*%
%TO.N,Net-(JP22-A)*%
G36*
X65780692Y-73719685D02*
G01*
X65782436Y-73720826D01*
X65815393Y-73742797D01*
X65969599Y-73845601D01*
X66040008Y-73884819D01*
X66091473Y-73899930D01*
X66178059Y-73925355D01*
X66178060Y-73925355D01*
X66321941Y-73925355D01*
X66366237Y-73912348D01*
X66459992Y-73884819D01*
X66581032Y-73807031D01*
X66636692Y-73742796D01*
X66695469Y-73705023D01*
X66730404Y-73700000D01*
X70976000Y-73700000D01*
X71043039Y-73719685D01*
X71088794Y-73772489D01*
X71100000Y-73824000D01*
X71100000Y-74776000D01*
X71080315Y-74843039D01*
X71027511Y-74888794D01*
X70976000Y-74900000D01*
X69900000Y-74900000D01*
X69900000Y-78800000D01*
X65900000Y-78800000D01*
X65900000Y-74900000D01*
X64824000Y-74900000D01*
X64756961Y-74880315D01*
X64711206Y-74827511D01*
X64700000Y-74776000D01*
X64700000Y-74045480D01*
X64719685Y-73978441D01*
X64772489Y-73932686D01*
X64804289Y-73923056D01*
X64900546Y-73907562D01*
X65030401Y-73845601D01*
X65184607Y-73742797D01*
X65217564Y-73720826D01*
X65284263Y-73700018D01*
X65286347Y-73700000D01*
X65713653Y-73700000D01*
X65780692Y-73719685D01*
G37*
%TD.AperFunction*%
%TD*%
%TA.AperFunction,Conductor*%
%TO.N,Net-(JP10-A)*%
G36*
X10280692Y-41719685D02*
G01*
X10282436Y-41720826D01*
X10376017Y-41783213D01*
X10469599Y-41845601D01*
X10540008Y-41884819D01*
X10591473Y-41899930D01*
X10678059Y-41925355D01*
X10678060Y-41925355D01*
X10821941Y-41925355D01*
X10866237Y-41912348D01*
X10959992Y-41884819D01*
X11081032Y-41807031D01*
X11136692Y-41742796D01*
X11195469Y-41705023D01*
X11230404Y-41700000D01*
X15424059Y-41700000D01*
X15491098Y-41719685D01*
X15534513Y-41767646D01*
X17999999Y-46599999D01*
X17999999Y-46600000D01*
X15700000Y-46600000D01*
X15700000Y-50600000D01*
X12424000Y-50600000D01*
X12356961Y-50580315D01*
X12311206Y-50527511D01*
X12300000Y-50476000D01*
X12300000Y-46700000D01*
X11182268Y-45618323D01*
X9237768Y-43736549D01*
X9203282Y-43675783D01*
X9200000Y-43647442D01*
X9200000Y-42045480D01*
X9219685Y-41978441D01*
X9272489Y-41932686D01*
X9304289Y-41923056D01*
X9400546Y-41907562D01*
X9530401Y-41845601D01*
X9684607Y-41742797D01*
X9717564Y-41720826D01*
X9784263Y-41700018D01*
X9786347Y-41700000D01*
X10213653Y-41700000D01*
X10280692Y-41719685D01*
G37*
%TD.AperFunction*%
%TD*%
%TA.AperFunction,Conductor*%
%TO.N,Net-(JP22-A)*%
G36*
X10280692Y-73719685D02*
G01*
X10282436Y-73720826D01*
X10315393Y-73742797D01*
X10469599Y-73845601D01*
X10540008Y-73884819D01*
X10591473Y-73899930D01*
X10678059Y-73925355D01*
X10678060Y-73925355D01*
X10821941Y-73925355D01*
X10866237Y-73912348D01*
X10959992Y-73884819D01*
X11081032Y-73807031D01*
X11136692Y-73742796D01*
X11195469Y-73705023D01*
X11230404Y-73700000D01*
X15657454Y-73700000D01*
X15724493Y-73719685D01*
X15733581Y-73726118D01*
X21871429Y-78500000D01*
X16800000Y-78500000D01*
X16800000Y-78600000D01*
X12700000Y-75500000D01*
X9324000Y-75500000D01*
X9256961Y-75480315D01*
X9211206Y-75427511D01*
X9200000Y-75376000D01*
X9200000Y-74045480D01*
X9219685Y-73978441D01*
X9272489Y-73932686D01*
X9304289Y-73923056D01*
X9400546Y-73907562D01*
X9530401Y-73845601D01*
X9684607Y-73742797D01*
X9717564Y-73720826D01*
X9784263Y-73700018D01*
X9786347Y-73700000D01*
X10213653Y-73700000D01*
X10280692Y-73719685D01*
G37*
%TD.AperFunction*%
%TD*%
%TA.AperFunction,Conductor*%
%TO.N,Net-(J1-Pin_1)*%
G36*
X15793039Y-13619685D02*
G01*
X15838794Y-13672489D01*
X15850000Y-13724000D01*
X15850000Y-15852496D01*
X15830315Y-15919535D01*
X15818262Y-15935344D01*
X13686953Y-18308848D01*
X13627516Y-18345576D01*
X13594691Y-18350000D01*
X12450000Y-18350000D01*
X11112000Y-18350000D01*
X11044961Y-18330315D01*
X11012800Y-18300400D01*
X9250000Y-15950000D01*
X2874500Y-15950000D01*
X2807461Y-15930315D01*
X2761706Y-15877511D01*
X2750500Y-15826000D01*
X2750500Y-13724000D01*
X2770185Y-13656961D01*
X2822989Y-13611206D01*
X2874500Y-13600000D01*
X15726000Y-13600000D01*
X15793039Y-13619685D01*
G37*
%TD.AperFunction*%
%TD*%
%TA.AperFunction,Conductor*%
%TO.N,Net-(JP10-A)*%
G36*
X28900000Y-46800000D02*
G01*
X32900000Y-46800000D01*
X32900000Y-46600000D01*
X47400000Y-46600000D01*
X47400000Y-46800000D01*
X51400000Y-46800000D01*
X51400000Y-46600000D01*
X65900000Y-46600000D01*
X65900000Y-46800000D01*
X69900000Y-46800000D01*
X69900000Y-46600000D01*
X84400000Y-46600000D01*
X84400000Y-46800000D01*
X88400000Y-46800000D01*
X88400000Y-46600000D01*
X102900000Y-46600000D01*
X102900000Y-46780000D01*
X106900000Y-46780000D01*
X106900000Y-46600000D01*
X121400000Y-46600000D01*
X121400000Y-46780000D01*
X125400000Y-46780000D01*
X125400000Y-46600000D01*
X136076000Y-46600000D01*
X136143039Y-46619685D01*
X136188794Y-46672489D01*
X136200000Y-46724000D01*
X136200000Y-50470617D01*
X136180315Y-50537656D01*
X136127511Y-50583411D01*
X136107787Y-50589384D01*
X136107917Y-50589798D01*
X136093248Y-50594374D01*
X136056321Y-50600000D01*
X134926119Y-50600000D01*
X134891184Y-50594977D01*
X134821941Y-50574645D01*
X134821940Y-50574645D01*
X134678060Y-50574645D01*
X134678059Y-50574645D01*
X134608816Y-50594977D01*
X134573881Y-50600000D01*
X118238418Y-50600000D01*
X118188809Y-50589644D01*
X118188213Y-50589384D01*
X118184246Y-50587652D01*
X118184244Y-50587651D01*
X118041509Y-50569570D01*
X117899454Y-50592438D01*
X117893246Y-50594375D01*
X117856321Y-50600000D01*
X116726119Y-50600000D01*
X116691184Y-50594977D01*
X116621941Y-50574645D01*
X116621940Y-50574645D01*
X116478060Y-50574645D01*
X116478059Y-50574645D01*
X116408816Y-50594977D01*
X116373881Y-50600000D01*
X99738418Y-50600000D01*
X99688809Y-50589644D01*
X99688213Y-50589384D01*
X99684246Y-50587652D01*
X99684244Y-50587651D01*
X99541509Y-50569570D01*
X99399454Y-50592438D01*
X99393246Y-50594375D01*
X99356321Y-50600000D01*
X98226119Y-50600000D01*
X98191184Y-50594977D01*
X98121941Y-50574645D01*
X98121940Y-50574645D01*
X97978060Y-50574645D01*
X97978059Y-50574645D01*
X97908816Y-50594977D01*
X97873881Y-50600000D01*
X81238418Y-50600000D01*
X81188809Y-50589644D01*
X81188213Y-50589384D01*
X81184246Y-50587652D01*
X81184244Y-50587651D01*
X81041509Y-50569570D01*
X80899454Y-50592438D01*
X80893246Y-50594375D01*
X80856321Y-50600000D01*
X79726119Y-50600000D01*
X79691184Y-50594977D01*
X79621941Y-50574645D01*
X79621940Y-50574645D01*
X79478060Y-50574645D01*
X79478059Y-50574645D01*
X79408816Y-50594977D01*
X79373881Y-50600000D01*
X62738418Y-50600000D01*
X62688809Y-50589644D01*
X62688213Y-50589384D01*
X62684246Y-50587652D01*
X62684244Y-50587651D01*
X62541509Y-50569570D01*
X62399454Y-50592438D01*
X62393246Y-50594375D01*
X62356321Y-50600000D01*
X61226119Y-50600000D01*
X61191184Y-50594977D01*
X61121941Y-50574645D01*
X61121940Y-50574645D01*
X60978060Y-50574645D01*
X60978059Y-50574645D01*
X60908816Y-50594977D01*
X60873881Y-50600000D01*
X44238418Y-50600000D01*
X44188809Y-50589644D01*
X44188213Y-50589384D01*
X44184246Y-50587652D01*
X44184244Y-50587651D01*
X44041509Y-50569570D01*
X43899454Y-50592438D01*
X43893246Y-50594375D01*
X43856321Y-50600000D01*
X42726119Y-50600000D01*
X42691184Y-50594977D01*
X42621941Y-50574645D01*
X42621940Y-50574645D01*
X42478060Y-50574645D01*
X42478059Y-50574645D01*
X42408816Y-50594977D01*
X42373881Y-50600000D01*
X25688418Y-50600000D01*
X25638809Y-50589644D01*
X25638213Y-50589384D01*
X25634246Y-50587652D01*
X25634244Y-50587651D01*
X25491509Y-50569570D01*
X25349454Y-50592438D01*
X25343246Y-50594375D01*
X25306321Y-50600000D01*
X24176119Y-50600000D01*
X24141184Y-50594977D01*
X24071941Y-50574645D01*
X24071940Y-50574645D01*
X23928060Y-50574645D01*
X23928059Y-50574645D01*
X23858816Y-50594977D01*
X23823881Y-50600000D01*
X15700000Y-50600000D01*
X15700000Y-46600000D01*
X28900000Y-46600000D01*
X28900000Y-46800000D01*
G37*
%TD.AperFunction*%
%TD*%
%TA.AperFunction,Conductor*%
%TO.N,Net-(JP22-A)*%
G36*
X28780692Y-73719685D02*
G01*
X28782436Y-73720826D01*
X28815393Y-73742797D01*
X28969599Y-73845601D01*
X29040008Y-73884819D01*
X29091473Y-73899930D01*
X29178059Y-73925355D01*
X29178060Y-73925355D01*
X29321941Y-73925355D01*
X29366237Y-73912348D01*
X29459992Y-73884819D01*
X29581032Y-73807031D01*
X29636692Y-73742796D01*
X29695469Y-73705023D01*
X29730404Y-73700000D01*
X33976000Y-73700000D01*
X34043039Y-73719685D01*
X34088794Y-73772489D01*
X34100000Y-73824000D01*
X34100000Y-74776000D01*
X34080315Y-74843039D01*
X34027511Y-74888794D01*
X33976000Y-74900000D01*
X32900000Y-74900000D01*
X32900000Y-78800000D01*
X28900000Y-78800000D01*
X28900000Y-74900000D01*
X27824000Y-74900000D01*
X27756961Y-74880315D01*
X27711206Y-74827511D01*
X27700000Y-74776000D01*
X27700000Y-74045480D01*
X27719685Y-73978441D01*
X27772489Y-73932686D01*
X27804289Y-73923056D01*
X27900546Y-73907562D01*
X28030401Y-73845601D01*
X28184607Y-73742797D01*
X28217564Y-73720826D01*
X28284263Y-73700018D01*
X28286347Y-73700000D01*
X28713653Y-73700000D01*
X28780692Y-73719685D01*
G37*
%TD.AperFunction*%
%TD*%
%TA.AperFunction,Conductor*%
%TO.N,Net-(JP22-A)*%
G36*
X102780692Y-73719685D02*
G01*
X102782436Y-73720826D01*
X102815393Y-73742797D01*
X102969599Y-73845601D01*
X103040008Y-73884819D01*
X103091473Y-73899930D01*
X103178059Y-73925355D01*
X103178060Y-73925355D01*
X103321941Y-73925355D01*
X103366237Y-73912348D01*
X103459992Y-73884819D01*
X103581032Y-73807031D01*
X103636692Y-73742796D01*
X103695469Y-73705023D01*
X103730404Y-73700000D01*
X107976000Y-73700000D01*
X108043039Y-73719685D01*
X108088794Y-73772489D01*
X108100000Y-73824000D01*
X108100000Y-74776000D01*
X108080315Y-74843039D01*
X108027511Y-74888794D01*
X107976000Y-74900000D01*
X106900000Y-74900000D01*
X106900000Y-78800000D01*
X102900000Y-78800000D01*
X102900000Y-74900000D01*
X101824000Y-74900000D01*
X101756961Y-74880315D01*
X101711206Y-74827511D01*
X101700000Y-74776000D01*
X101700000Y-74045480D01*
X101719685Y-73978441D01*
X101772489Y-73932686D01*
X101804289Y-73923056D01*
X101900546Y-73907562D01*
X102030401Y-73845601D01*
X102184607Y-73742797D01*
X102217564Y-73720826D01*
X102284263Y-73700018D01*
X102286347Y-73700000D01*
X102713653Y-73700000D01*
X102780692Y-73719685D01*
G37*
%TD.AperFunction*%
%TD*%
%TA.AperFunction,Conductor*%
%TO.N,Net-(JP10-A)*%
G36*
X65780692Y-41719685D02*
G01*
X65782436Y-41720826D01*
X65815393Y-41742797D01*
X65969599Y-41845601D01*
X66040008Y-41884819D01*
X66091473Y-41899930D01*
X66178059Y-41925355D01*
X66178060Y-41925355D01*
X66321941Y-41925355D01*
X66366237Y-41912348D01*
X66459992Y-41884819D01*
X66581032Y-41807031D01*
X66636692Y-41742796D01*
X66695469Y-41705023D01*
X66730404Y-41700000D01*
X70976000Y-41700000D01*
X71043039Y-41719685D01*
X71088794Y-41772489D01*
X71100000Y-41824000D01*
X71100000Y-42776000D01*
X71080315Y-42843039D01*
X71027511Y-42888794D01*
X70976000Y-42900000D01*
X69900000Y-42900000D01*
X69900000Y-46800000D01*
X65900000Y-46800000D01*
X65900000Y-42900000D01*
X64824000Y-42900000D01*
X64756961Y-42880315D01*
X64711206Y-42827511D01*
X64700000Y-42776000D01*
X64700000Y-42045480D01*
X64719685Y-41978441D01*
X64772489Y-41932686D01*
X64804289Y-41923056D01*
X64900546Y-41907562D01*
X65030401Y-41845601D01*
X65184607Y-41742797D01*
X65217564Y-41720826D01*
X65284263Y-41700018D01*
X65286347Y-41700000D01*
X65713653Y-41700000D01*
X65780692Y-41719685D01*
G37*
%TD.AperFunction*%
%TD*%
%TA.AperFunction,Conductor*%
%TO.N,Net-(JP6-B)*%
G36*
X117243039Y-24119685D02*
G01*
X117288794Y-24172489D01*
X117300000Y-24224000D01*
X117300000Y-24776000D01*
X117280315Y-24843039D01*
X117227511Y-24888794D01*
X117176000Y-24900000D01*
X112211347Y-24900000D01*
X112144308Y-24880315D01*
X112142564Y-24879174D01*
X112030414Y-24804407D01*
X112016109Y-24795213D01*
X111884244Y-24737651D01*
X111741509Y-24719570D01*
X111599454Y-24742438D01*
X111599451Y-24742439D01*
X111469598Y-24804399D01*
X111357436Y-24879174D01*
X111290737Y-24899982D01*
X111288653Y-24900000D01*
X111124000Y-24900000D01*
X111056961Y-24880315D01*
X111011206Y-24827511D01*
X111000000Y-24776000D01*
X111000000Y-24224000D01*
X111019685Y-24156961D01*
X111072489Y-24111206D01*
X111124000Y-24100000D01*
X117176000Y-24100000D01*
X117243039Y-24119685D01*
G37*
%TD.AperFunction*%
%TD*%
%TA.AperFunction,Conductor*%
%TO.N,Net-(JP5-B)*%
G36*
X98743039Y-24119685D02*
G01*
X98788794Y-24172489D01*
X98800000Y-24224000D01*
X98800000Y-24776000D01*
X98780315Y-24843039D01*
X98727511Y-24888794D01*
X98676000Y-24900000D01*
X93711347Y-24900000D01*
X93644308Y-24880315D01*
X93642564Y-24879174D01*
X93530414Y-24804407D01*
X93516109Y-24795213D01*
X93384244Y-24737651D01*
X93241509Y-24719570D01*
X93099454Y-24742438D01*
X93099451Y-24742439D01*
X92969598Y-24804399D01*
X92857436Y-24879174D01*
X92790737Y-24899982D01*
X92788653Y-24900000D01*
X92624000Y-24900000D01*
X92556961Y-24880315D01*
X92511206Y-24827511D01*
X92500000Y-24776000D01*
X92500000Y-24224000D01*
X92519685Y-24156961D01*
X92572489Y-24111206D01*
X92624000Y-24100000D01*
X98676000Y-24100000D01*
X98743039Y-24119685D01*
G37*
%TD.AperFunction*%
%TD*%
%TA.AperFunction,Conductor*%
%TO.N,Net-(JP2-B)*%
G36*
X43243039Y-24119685D02*
G01*
X43288794Y-24172489D01*
X43300000Y-24224000D01*
X43300000Y-24776000D01*
X43280315Y-24843039D01*
X43227511Y-24888794D01*
X43176000Y-24900000D01*
X38211347Y-24900000D01*
X38144308Y-24880315D01*
X38142564Y-24879174D01*
X38030414Y-24804407D01*
X38016109Y-24795213D01*
X37884244Y-24737651D01*
X37741509Y-24719570D01*
X37599454Y-24742438D01*
X37599451Y-24742439D01*
X37469598Y-24804399D01*
X37357436Y-24879174D01*
X37290737Y-24899982D01*
X37288653Y-24900000D01*
X37124000Y-24900000D01*
X37056961Y-24880315D01*
X37011206Y-24827511D01*
X37000000Y-24776000D01*
X37000000Y-24224000D01*
X37019685Y-24156961D01*
X37072489Y-24111206D01*
X37124000Y-24100000D01*
X43176000Y-24100000D01*
X43243039Y-24119685D01*
G37*
%TD.AperFunction*%
%TD*%
%TA.AperFunction,Conductor*%
%TO.N,Net-(JP22-A)*%
G36*
X28900000Y-78800000D02*
G01*
X32900000Y-78800000D01*
X32900000Y-78500000D01*
X47400000Y-78500000D01*
X47400000Y-78800000D01*
X51400000Y-78800000D01*
X51400000Y-78500000D01*
X65900000Y-78500000D01*
X65900000Y-78800000D01*
X69900000Y-78800000D01*
X69900000Y-78500000D01*
X84400000Y-78500000D01*
X84400000Y-78800000D01*
X88400000Y-78800000D01*
X88400000Y-78500000D01*
X102900000Y-78500000D01*
X102900000Y-78800000D01*
X106900000Y-78800000D01*
X106900000Y-78500000D01*
X121400000Y-78500000D01*
X121400000Y-78800000D01*
X125400000Y-78800000D01*
X125400000Y-78500000D01*
X136176000Y-78500000D01*
X136243039Y-78519685D01*
X136288794Y-78572489D01*
X136300000Y-78624000D01*
X136300000Y-82376000D01*
X136280315Y-82443039D01*
X136227511Y-82488794D01*
X136176000Y-82500000D01*
X16800000Y-82500000D01*
X16800000Y-78500000D01*
X28900000Y-78500000D01*
X28900000Y-78800000D01*
G37*
%TD.AperFunction*%
%TD*%
%TA.AperFunction,Conductor*%
%TO.N,Net-(JP33-B)*%
G36*
X97805692Y-83419685D02*
G01*
X97807436Y-83420826D01*
X97807437Y-83420826D01*
X98219599Y-83695601D01*
X98233890Y-83704786D01*
X98365754Y-83762348D01*
X98394302Y-83765964D01*
X98508490Y-83780429D01*
X98508491Y-83780428D01*
X98508494Y-83780429D01*
X98650546Y-83757562D01*
X98780401Y-83695601D01*
X99138361Y-83456961D01*
X99192564Y-83420826D01*
X99259263Y-83400018D01*
X99261347Y-83400000D01*
X99276000Y-83400000D01*
X99343039Y-83419685D01*
X99388794Y-83472489D01*
X99400000Y-83524000D01*
X99400000Y-84176000D01*
X99380315Y-84243039D01*
X99327511Y-84288794D01*
X99276000Y-84300000D01*
X93024000Y-84300000D01*
X92956961Y-84280315D01*
X92911206Y-84227511D01*
X92900000Y-84176000D01*
X92900000Y-83524000D01*
X92919685Y-83456961D01*
X92972489Y-83411206D01*
X93024000Y-83400000D01*
X97738653Y-83400000D01*
X97805692Y-83419685D01*
G37*
%TD.AperFunction*%
%TD*%
%TA.AperFunction,Conductor*%
%TO.N,Net-(JP4-B)*%
G36*
X80243039Y-24119685D02*
G01*
X80288794Y-24172489D01*
X80300000Y-24224000D01*
X80300000Y-24776000D01*
X80280315Y-24843039D01*
X80227511Y-24888794D01*
X80176000Y-24900000D01*
X75211347Y-24900000D01*
X75144308Y-24880315D01*
X75142564Y-24879174D01*
X75030414Y-24804407D01*
X75016109Y-24795213D01*
X74884244Y-24737651D01*
X74741509Y-24719570D01*
X74599454Y-24742438D01*
X74599451Y-24742439D01*
X74469598Y-24804399D01*
X74357436Y-24879174D01*
X74290737Y-24899982D01*
X74288653Y-24900000D01*
X74124000Y-24900000D01*
X74056961Y-24880315D01*
X74011206Y-24827511D01*
X74000000Y-24776000D01*
X74000000Y-24224000D01*
X74019685Y-24156961D01*
X74072489Y-24111206D01*
X74124000Y-24100000D01*
X80176000Y-24100000D01*
X80243039Y-24119685D01*
G37*
%TD.AperFunction*%
%TD*%
%TA.AperFunction,Conductor*%
%TO.N,Net-(JP32-B)*%
G36*
X79305692Y-83419685D02*
G01*
X79307436Y-83420826D01*
X79307437Y-83420826D01*
X79719599Y-83695601D01*
X79733890Y-83704786D01*
X79865754Y-83762348D01*
X79894302Y-83765964D01*
X80008490Y-83780429D01*
X80008491Y-83780428D01*
X80008494Y-83780429D01*
X80150546Y-83757562D01*
X80280401Y-83695601D01*
X80638361Y-83456961D01*
X80692564Y-83420826D01*
X80759263Y-83400018D01*
X80761347Y-83400000D01*
X80776000Y-83400000D01*
X80843039Y-83419685D01*
X80888794Y-83472489D01*
X80900000Y-83524000D01*
X80900000Y-84176000D01*
X80880315Y-84243039D01*
X80827511Y-84288794D01*
X80776000Y-84300000D01*
X74524000Y-84300000D01*
X74456961Y-84280315D01*
X74411206Y-84227511D01*
X74400000Y-84176000D01*
X74400000Y-83524000D01*
X74419685Y-83456961D01*
X74472489Y-83411206D01*
X74524000Y-83400000D01*
X79238653Y-83400000D01*
X79305692Y-83419685D01*
G37*
%TD.AperFunction*%
%TD*%
%TA.AperFunction,Conductor*%
%TO.N,Net-(JP14-B)*%
G36*
X126543039Y-40119685D02*
G01*
X126588794Y-40172489D01*
X126600000Y-40224000D01*
X126600000Y-40876000D01*
X126580315Y-40943039D01*
X126527511Y-40988794D01*
X126476000Y-41000000D01*
X121611347Y-41000000D01*
X121544308Y-40980315D01*
X121542564Y-40979174D01*
X121280414Y-40804407D01*
X121266109Y-40795213D01*
X121134244Y-40737651D01*
X120991509Y-40719570D01*
X120849454Y-40742438D01*
X120849451Y-40742439D01*
X120719598Y-40804399D01*
X120457436Y-40979174D01*
X120390737Y-40999982D01*
X120388653Y-41000000D01*
X120224000Y-41000000D01*
X120156961Y-40980315D01*
X120111206Y-40927511D01*
X120100000Y-40876000D01*
X120100000Y-40224000D01*
X120119685Y-40156961D01*
X120172489Y-40111206D01*
X120224000Y-40100000D01*
X126476000Y-40100000D01*
X126543039Y-40119685D01*
G37*
%TD.AperFunction*%
%TD*%
%TA.AperFunction,Conductor*%
%TO.N,Net-(JP7-B)*%
G36*
X135743039Y-24119685D02*
G01*
X135788794Y-24172489D01*
X135800000Y-24224000D01*
X135800000Y-24776000D01*
X135780315Y-24843039D01*
X135727511Y-24888794D01*
X135676000Y-24900000D01*
X130711347Y-24900000D01*
X130644308Y-24880315D01*
X130642564Y-24879174D01*
X130530414Y-24804407D01*
X130516109Y-24795213D01*
X130384244Y-24737651D01*
X130241509Y-24719570D01*
X130099454Y-24742438D01*
X130099451Y-24742439D01*
X129969598Y-24804399D01*
X129857436Y-24879174D01*
X129790737Y-24899982D01*
X129788653Y-24900000D01*
X129624000Y-24900000D01*
X129556961Y-24880315D01*
X129511206Y-24827511D01*
X129500000Y-24776000D01*
X129500000Y-24224000D01*
X129519685Y-24156961D01*
X129572489Y-24111206D01*
X129624000Y-24100000D01*
X135676000Y-24100000D01*
X135743039Y-24119685D01*
G37*
%TD.AperFunction*%
%TD*%
%TA.AperFunction,Conductor*%
%TO.N,Net-(JP18-B)*%
G36*
X79755692Y-51519685D02*
G01*
X79757436Y-51520826D01*
X79757437Y-51520826D01*
X80019599Y-51695601D01*
X80033890Y-51704786D01*
X80165754Y-51762348D01*
X80194302Y-51765964D01*
X80308490Y-51780429D01*
X80308491Y-51780428D01*
X80308494Y-51780429D01*
X80450546Y-51757562D01*
X80580401Y-51695601D01*
X80788361Y-51556961D01*
X80842564Y-51520826D01*
X80909263Y-51500018D01*
X80911347Y-51500000D01*
X81006000Y-51500000D01*
X81073039Y-51519685D01*
X81118794Y-51572489D01*
X81130000Y-51624000D01*
X81130000Y-52276000D01*
X81110315Y-52343039D01*
X81057511Y-52388794D01*
X81006000Y-52400000D01*
X74754000Y-52400000D01*
X74686961Y-52380315D01*
X74641206Y-52327511D01*
X74630000Y-52276000D01*
X74630000Y-51624000D01*
X74649685Y-51556961D01*
X74702489Y-51511206D01*
X74754000Y-51500000D01*
X79688653Y-51500000D01*
X79755692Y-51519685D01*
G37*
%TD.AperFunction*%
%TD*%
%TA.AperFunction,Conductor*%
%TO.N,Net-(JP21-B)*%
G36*
X134805692Y-51419685D02*
G01*
X134807436Y-51420826D01*
X135017545Y-51560898D01*
X135219599Y-51695601D01*
X135233890Y-51704786D01*
X135365754Y-51762348D01*
X135394302Y-51765964D01*
X135508490Y-51780429D01*
X135508491Y-51780428D01*
X135508494Y-51780429D01*
X135650546Y-51757562D01*
X135780401Y-51695601D01*
X136137217Y-51457724D01*
X136203916Y-51436916D01*
X136271277Y-51455471D01*
X136317913Y-51507499D01*
X136330000Y-51560898D01*
X136330000Y-52176000D01*
X136310315Y-52243039D01*
X136257511Y-52288794D01*
X136206000Y-52300000D01*
X129954000Y-52300000D01*
X129886961Y-52280315D01*
X129841206Y-52227511D01*
X129830000Y-52176000D01*
X129830000Y-51524000D01*
X129849685Y-51456961D01*
X129902489Y-51411206D01*
X129954000Y-51400000D01*
X134738653Y-51400000D01*
X134805692Y-51419685D01*
G37*
%TD.AperFunction*%
%TD*%
%TA.AperFunction,Conductor*%
%TO.N,Net-(JP1-A)*%
G36*
X14206771Y-19019685D02*
G01*
X14237234Y-19047389D01*
X15221428Y-20300000D01*
X19689930Y-25987184D01*
X19689931Y-25987185D01*
X19121544Y-25987616D01*
X19121544Y-30070097D01*
X19114162Y-30067936D01*
X19084277Y-30041011D01*
X11319021Y-20330040D01*
X11292527Y-20265388D01*
X11292196Y-20261636D01*
X11209722Y-19133037D01*
X11224468Y-19064742D01*
X11273797Y-19015260D01*
X11333392Y-19000000D01*
X14139732Y-19000000D01*
X14206771Y-19019685D01*
G37*
%TD.AperFunction*%
%TD*%
%TA.AperFunction,Conductor*%
%TO.N,Net-(JP13-B)*%
G36*
X108043039Y-40119685D02*
G01*
X108088794Y-40172489D01*
X108100000Y-40224000D01*
X108100000Y-40876000D01*
X108080315Y-40943039D01*
X108027511Y-40988794D01*
X107976000Y-41000000D01*
X103111347Y-41000000D01*
X103044308Y-40980315D01*
X103042564Y-40979174D01*
X102780414Y-40804407D01*
X102766109Y-40795213D01*
X102634244Y-40737651D01*
X102491509Y-40719570D01*
X102349454Y-40742438D01*
X102349451Y-40742439D01*
X102219598Y-40804399D01*
X101957436Y-40979174D01*
X101890737Y-40999982D01*
X101888653Y-41000000D01*
X101724000Y-41000000D01*
X101656961Y-40980315D01*
X101611206Y-40927511D01*
X101600000Y-40876000D01*
X101600000Y-40224000D01*
X101619685Y-40156961D01*
X101672489Y-40111206D01*
X101724000Y-40100000D01*
X107976000Y-40100000D01*
X108043039Y-40119685D01*
G37*
%TD.AperFunction*%
%TD*%
%TA.AperFunction,Conductor*%
%TO.N,Net-(JP35-B)*%
G36*
X134805692Y-83419685D02*
G01*
X134807436Y-83420826D01*
X135159890Y-83655795D01*
X135219599Y-83695601D01*
X135233890Y-83704786D01*
X135365754Y-83762348D01*
X135394302Y-83765964D01*
X135508490Y-83780429D01*
X135508491Y-83780428D01*
X135508494Y-83780429D01*
X135650546Y-83757562D01*
X135780401Y-83695601D01*
X136138361Y-83456961D01*
X136192564Y-83420826D01*
X136259263Y-83400018D01*
X136261347Y-83400000D01*
X136276000Y-83400000D01*
X136343039Y-83419685D01*
X136388794Y-83472489D01*
X136400000Y-83524000D01*
X136400000Y-84176000D01*
X136380315Y-84243039D01*
X136327511Y-84288794D01*
X136276000Y-84300000D01*
X130024000Y-84300000D01*
X129956961Y-84280315D01*
X129911206Y-84227511D01*
X129900000Y-84176000D01*
X129900000Y-83524000D01*
X129919685Y-83456961D01*
X129972489Y-83411206D01*
X130024000Y-83400000D01*
X134738653Y-83400000D01*
X134805692Y-83419685D01*
G37*
%TD.AperFunction*%
%TD*%
%TA.AperFunction,Conductor*%
%TO.N,Net-(JP10-A)*%
G36*
X102750692Y-41699685D02*
G01*
X102752436Y-41700826D01*
X102785393Y-41722797D01*
X102969599Y-41845601D01*
X103040008Y-41884819D01*
X103091473Y-41899930D01*
X103178059Y-41925355D01*
X103178060Y-41925355D01*
X103321941Y-41925355D01*
X103366237Y-41912348D01*
X103459992Y-41884819D01*
X103581032Y-41807031D01*
X103654022Y-41722795D01*
X103712800Y-41685023D01*
X103747734Y-41680000D01*
X107976000Y-41680000D01*
X108043039Y-41699685D01*
X108088794Y-41752489D01*
X108100000Y-41804000D01*
X108100000Y-42756000D01*
X108080315Y-42823039D01*
X108027511Y-42868794D01*
X107976000Y-42880000D01*
X106900000Y-42880000D01*
X106900000Y-46780000D01*
X102900000Y-46780000D01*
X102900000Y-42880000D01*
X101824000Y-42880000D01*
X101756961Y-42860315D01*
X101711206Y-42807511D01*
X101700000Y-42756000D01*
X101700000Y-42045480D01*
X101719685Y-41978441D01*
X101772489Y-41932686D01*
X101804289Y-41923056D01*
X101900546Y-41907562D01*
X102030401Y-41845601D01*
X102214607Y-41722797D01*
X102247564Y-41700826D01*
X102314263Y-41680018D01*
X102316347Y-41680000D01*
X102683653Y-41680000D01*
X102750692Y-41699685D01*
G37*
%TD.AperFunction*%
%TD*%
%TA.AperFunction,Conductor*%
%TO.N,Net-(JP19-B)*%
G36*
X98255692Y-51519685D02*
G01*
X98257436Y-51520826D01*
X98257437Y-51520826D01*
X98519599Y-51695601D01*
X98533890Y-51704786D01*
X98665754Y-51762348D01*
X98694302Y-51765964D01*
X98808490Y-51780429D01*
X98808491Y-51780428D01*
X98808494Y-51780429D01*
X98950546Y-51757562D01*
X99080401Y-51695601D01*
X99288361Y-51556961D01*
X99342564Y-51520826D01*
X99409263Y-51500018D01*
X99411347Y-51500000D01*
X99506000Y-51500000D01*
X99573039Y-51519685D01*
X99618794Y-51572489D01*
X99630000Y-51624000D01*
X99630000Y-52276000D01*
X99610315Y-52343039D01*
X99557511Y-52388794D01*
X99506000Y-52400000D01*
X93254000Y-52400000D01*
X93186961Y-52380315D01*
X93141206Y-52327511D01*
X93130000Y-52276000D01*
X93130000Y-51624000D01*
X93149685Y-51556961D01*
X93202489Y-51511206D01*
X93254000Y-51500000D01*
X98188653Y-51500000D01*
X98255692Y-51519685D01*
G37*
%TD.AperFunction*%
%TD*%
%TA.AperFunction,Conductor*%
%TO.N,Net-(JP12-B)*%
G36*
X89543039Y-40119685D02*
G01*
X89588794Y-40172489D01*
X89600000Y-40224000D01*
X89600000Y-40876000D01*
X89580315Y-40943039D01*
X89527511Y-40988794D01*
X89476000Y-41000000D01*
X84611347Y-41000000D01*
X84544308Y-40980315D01*
X84542564Y-40979174D01*
X84280414Y-40804407D01*
X84266109Y-40795213D01*
X84134244Y-40737651D01*
X83991509Y-40719570D01*
X83849454Y-40742438D01*
X83849451Y-40742439D01*
X83719598Y-40804399D01*
X83457436Y-40979174D01*
X83390737Y-40999982D01*
X83388653Y-41000000D01*
X83224000Y-41000000D01*
X83156961Y-40980315D01*
X83111206Y-40927511D01*
X83100000Y-40876000D01*
X83100000Y-40224000D01*
X83119685Y-40156961D01*
X83172489Y-40111206D01*
X83224000Y-40100000D01*
X89476000Y-40100000D01*
X89543039Y-40119685D01*
G37*
%TD.AperFunction*%
%TD*%
%TA.AperFunction,Conductor*%
%TO.N,Net-(JP1-B)*%
G36*
X26793039Y-24119685D02*
G01*
X26838794Y-24172489D01*
X26850000Y-24224000D01*
X26850000Y-24776000D01*
X26830315Y-24843039D01*
X26777511Y-24888794D01*
X26726000Y-24900000D01*
X21761347Y-24900000D01*
X21694308Y-24880315D01*
X21692564Y-24879174D01*
X21580414Y-24804407D01*
X21566109Y-24795213D01*
X21434244Y-24737651D01*
X21291509Y-24719570D01*
X21149454Y-24742438D01*
X21149451Y-24742439D01*
X21019598Y-24804399D01*
X20907436Y-24879174D01*
X20840737Y-24899982D01*
X20838653Y-24900000D01*
X20674000Y-24900000D01*
X20606961Y-24880315D01*
X20561206Y-24827511D01*
X20550000Y-24776000D01*
X20550000Y-24224000D01*
X20569685Y-24156961D01*
X20622489Y-24111206D01*
X20674000Y-24100000D01*
X26726000Y-24100000D01*
X26793039Y-24119685D01*
G37*
%TD.AperFunction*%
%TD*%
%TA.AperFunction,Conductor*%
%TO.N,Net-(JP10-A)*%
G36*
X47280692Y-41719685D02*
G01*
X47282436Y-41720826D01*
X47315393Y-41742797D01*
X47469599Y-41845601D01*
X47540008Y-41884819D01*
X47591473Y-41899930D01*
X47678059Y-41925355D01*
X47678060Y-41925355D01*
X47821941Y-41925355D01*
X47866237Y-41912348D01*
X47959992Y-41884819D01*
X48081032Y-41807031D01*
X48136692Y-41742796D01*
X48195469Y-41705023D01*
X48230404Y-41700000D01*
X52476000Y-41700000D01*
X52543039Y-41719685D01*
X52588794Y-41772489D01*
X52600000Y-41824000D01*
X52600000Y-42776000D01*
X52580315Y-42843039D01*
X52527511Y-42888794D01*
X52476000Y-42900000D01*
X51400000Y-42900000D01*
X51400000Y-46800000D01*
X47400000Y-46800000D01*
X47400000Y-42900000D01*
X46324000Y-42900000D01*
X46256961Y-42880315D01*
X46211206Y-42827511D01*
X46200000Y-42776000D01*
X46200000Y-42045480D01*
X46219685Y-41978441D01*
X46272489Y-41932686D01*
X46304289Y-41923056D01*
X46400546Y-41907562D01*
X46530401Y-41845601D01*
X46684607Y-41742797D01*
X46717564Y-41720826D01*
X46784263Y-41700018D01*
X46786347Y-41700000D01*
X47213653Y-41700000D01*
X47280692Y-41719685D01*
G37*
%TD.AperFunction*%
%TD*%
%TA.AperFunction,Conductor*%
%TO.N,Net-(JP24-B)*%
G36*
X52543039Y-72119685D02*
G01*
X52588794Y-72172489D01*
X52600000Y-72224000D01*
X52600000Y-72876000D01*
X52580315Y-72943039D01*
X52527511Y-72988794D01*
X52476000Y-73000000D01*
X47611347Y-73000000D01*
X47544308Y-72980315D01*
X47542564Y-72979174D01*
X47280414Y-72804407D01*
X47266109Y-72795213D01*
X47134244Y-72737651D01*
X46991509Y-72719570D01*
X46849454Y-72742438D01*
X46849451Y-72742439D01*
X46719598Y-72804399D01*
X46457436Y-72979174D01*
X46390737Y-72999982D01*
X46388653Y-73000000D01*
X46224000Y-73000000D01*
X46156961Y-72980315D01*
X46111206Y-72927511D01*
X46100000Y-72876000D01*
X46100000Y-72224000D01*
X46119685Y-72156961D01*
X46172489Y-72111206D01*
X46224000Y-72100000D01*
X52476000Y-72100000D01*
X52543039Y-72119685D01*
G37*
%TD.AperFunction*%
%TD*%
%TA.AperFunction,Conductor*%
%TO.N,Net-(JP34-B)*%
G36*
X116305692Y-83419685D02*
G01*
X116307436Y-83420826D01*
X116307437Y-83420826D01*
X116719599Y-83695601D01*
X116733890Y-83704786D01*
X116865754Y-83762348D01*
X116894302Y-83765964D01*
X117008490Y-83780429D01*
X117008491Y-83780428D01*
X117008494Y-83780429D01*
X117150546Y-83757562D01*
X117280401Y-83695601D01*
X117638361Y-83456961D01*
X117692564Y-83420826D01*
X117759263Y-83400018D01*
X117761347Y-83400000D01*
X117776000Y-83400000D01*
X117843039Y-83419685D01*
X117888794Y-83472489D01*
X117900000Y-83524000D01*
X117900000Y-84176000D01*
X117880315Y-84243039D01*
X117827511Y-84288794D01*
X117776000Y-84300000D01*
X111524000Y-84300000D01*
X111456961Y-84280315D01*
X111411206Y-84227511D01*
X111400000Y-84176000D01*
X111400000Y-83524000D01*
X111419685Y-83456961D01*
X111472489Y-83411206D01*
X111524000Y-83400000D01*
X116238653Y-83400000D01*
X116305692Y-83419685D01*
G37*
%TD.AperFunction*%
%TD*%
%TA.AperFunction,Conductor*%
%TO.N,Net-(JP25-B)*%
G36*
X71043039Y-72119685D02*
G01*
X71088794Y-72172489D01*
X71100000Y-72224000D01*
X71100000Y-72876000D01*
X71080315Y-72943039D01*
X71027511Y-72988794D01*
X70976000Y-73000000D01*
X66111347Y-73000000D01*
X66044308Y-72980315D01*
X66042564Y-72979174D01*
X65780414Y-72804407D01*
X65766109Y-72795213D01*
X65634244Y-72737651D01*
X65491509Y-72719570D01*
X65349454Y-72742438D01*
X65349451Y-72742439D01*
X65219598Y-72804399D01*
X64957436Y-72979174D01*
X64890737Y-72999982D01*
X64888653Y-73000000D01*
X64724000Y-73000000D01*
X64656961Y-72980315D01*
X64611206Y-72927511D01*
X64600000Y-72876000D01*
X64600000Y-72224000D01*
X64619685Y-72156961D01*
X64672489Y-72111206D01*
X64724000Y-72100000D01*
X70976000Y-72100000D01*
X71043039Y-72119685D01*
G37*
%TD.AperFunction*%
%TD*%
%TA.AperFunction,Conductor*%
%TO.N,Net-(JP22-A)*%
G36*
X121280692Y-73719685D02*
G01*
X121282436Y-73720826D01*
X121315393Y-73742797D01*
X121469599Y-73845601D01*
X121540008Y-73884819D01*
X121591473Y-73899930D01*
X121678059Y-73925355D01*
X121678060Y-73925355D01*
X121821941Y-73925355D01*
X121866237Y-73912348D01*
X121959992Y-73884819D01*
X122081032Y-73807031D01*
X122136692Y-73742796D01*
X122195469Y-73705023D01*
X122230404Y-73700000D01*
X126476000Y-73700000D01*
X126543039Y-73719685D01*
X126588794Y-73772489D01*
X126600000Y-73824000D01*
X126600000Y-74776000D01*
X126580315Y-74843039D01*
X126527511Y-74888794D01*
X126476000Y-74900000D01*
X125400000Y-74900000D01*
X125400000Y-78800000D01*
X121400000Y-78800000D01*
X121400000Y-74900000D01*
X120324000Y-74900000D01*
X120256961Y-74880315D01*
X120211206Y-74827511D01*
X120200000Y-74776000D01*
X120200000Y-74045480D01*
X120219685Y-73978441D01*
X120272489Y-73932686D01*
X120304289Y-73923056D01*
X120400546Y-73907562D01*
X120530401Y-73845601D01*
X120684607Y-73742797D01*
X120717564Y-73720826D01*
X120784263Y-73700018D01*
X120786347Y-73700000D01*
X121213653Y-73700000D01*
X121280692Y-73719685D01*
G37*
%TD.AperFunction*%
%TD*%
%TA.AperFunction,Conductor*%
%TO.N,Net-(J2-Pin_1)*%
G36*
X11737539Y-48319685D02*
G01*
X11783294Y-48372489D01*
X11794500Y-48424000D01*
X11794500Y-50476000D01*
X11798643Y-50514540D01*
X11786238Y-50583298D01*
X11738627Y-50634435D01*
X11677151Y-50651780D01*
X8350000Y-50700000D01*
X8349999Y-50700000D01*
X5800000Y-53100000D01*
X5800000Y-64776000D01*
X5780315Y-64843039D01*
X5727511Y-64888794D01*
X5676000Y-64900000D01*
X3324000Y-64900000D01*
X3256961Y-64880315D01*
X3211206Y-64827511D01*
X3200000Y-64776000D01*
X3200000Y-51309722D01*
X3219685Y-51242683D01*
X3246695Y-51212769D01*
X6866079Y-48327044D01*
X6930768Y-48300643D01*
X6943381Y-48300000D01*
X11670500Y-48300000D01*
X11737539Y-48319685D01*
G37*
%TD.AperFunction*%
%TD*%
%TA.AperFunction,Conductor*%
%TO.N,Net-(JP22-A)*%
G36*
X84280692Y-73719685D02*
G01*
X84282436Y-73720826D01*
X84315393Y-73742797D01*
X84469599Y-73845601D01*
X84540008Y-73884819D01*
X84591473Y-73899930D01*
X84678059Y-73925355D01*
X84678060Y-73925355D01*
X84821941Y-73925355D01*
X84866237Y-73912348D01*
X84959992Y-73884819D01*
X85081032Y-73807031D01*
X85136692Y-73742796D01*
X85195469Y-73705023D01*
X85230404Y-73700000D01*
X89476000Y-73700000D01*
X89543039Y-73719685D01*
X89588794Y-73772489D01*
X89600000Y-73824000D01*
X89600000Y-74776000D01*
X89580315Y-74843039D01*
X89527511Y-74888794D01*
X89476000Y-74900000D01*
X88400000Y-74900000D01*
X88400000Y-78800000D01*
X84400000Y-78800000D01*
X84400000Y-74900000D01*
X83324000Y-74900000D01*
X83256961Y-74880315D01*
X83211206Y-74827511D01*
X83200000Y-74776000D01*
X83200000Y-74045480D01*
X83219685Y-73978441D01*
X83272489Y-73932686D01*
X83304289Y-73923056D01*
X83400546Y-73907562D01*
X83530401Y-73845601D01*
X83684607Y-73742797D01*
X83717564Y-73720826D01*
X83784263Y-73700018D01*
X83786347Y-73700000D01*
X84213653Y-73700000D01*
X84280692Y-73719685D01*
G37*
%TD.AperFunction*%
%TD*%
%TA.AperFunction,Conductor*%
%TO.N,Net-(JP10-B)*%
G36*
X52543039Y-40119685D02*
G01*
X52588794Y-40172489D01*
X52600000Y-40224000D01*
X52600000Y-40876000D01*
X52580315Y-40943039D01*
X52527511Y-40988794D01*
X52476000Y-41000000D01*
X47611347Y-41000000D01*
X47544308Y-40980315D01*
X47542564Y-40979174D01*
X47280414Y-40804407D01*
X47266109Y-40795213D01*
X47134244Y-40737651D01*
X46991509Y-40719570D01*
X46849454Y-40742438D01*
X46849451Y-40742439D01*
X46719598Y-40804399D01*
X46457436Y-40979174D01*
X46390737Y-40999982D01*
X46388653Y-41000000D01*
X46224000Y-41000000D01*
X46156961Y-40980315D01*
X46111206Y-40927511D01*
X46100000Y-40876000D01*
X46100000Y-40224000D01*
X46119685Y-40156961D01*
X46172489Y-40111206D01*
X46224000Y-40100000D01*
X52476000Y-40100000D01*
X52543039Y-40119685D01*
G37*
%TD.AperFunction*%
%TD*%
%TA.AperFunction,Conductor*%
%TO.N,Net-(JP30-B)*%
G36*
X42305692Y-83419685D02*
G01*
X42307436Y-83420826D01*
X42307437Y-83420826D01*
X42719599Y-83695601D01*
X42733890Y-83704786D01*
X42865754Y-83762348D01*
X42894302Y-83765964D01*
X43008490Y-83780429D01*
X43008491Y-83780428D01*
X43008494Y-83780429D01*
X43150546Y-83757562D01*
X43280401Y-83695601D01*
X43638361Y-83456961D01*
X43692564Y-83420826D01*
X43759263Y-83400018D01*
X43761347Y-83400000D01*
X43776000Y-83400000D01*
X43843039Y-83419685D01*
X43888794Y-83472489D01*
X43900000Y-83524000D01*
X43900000Y-84176000D01*
X43880315Y-84243039D01*
X43827511Y-84288794D01*
X43776000Y-84300000D01*
X37524000Y-84300000D01*
X37456961Y-84280315D01*
X37411206Y-84227511D01*
X37400000Y-84176000D01*
X37400000Y-83524000D01*
X37419685Y-83456961D01*
X37472489Y-83411206D01*
X37524000Y-83400000D01*
X42238653Y-83400000D01*
X42305692Y-83419685D01*
G37*
%TD.AperFunction*%
%TD*%
%TA.AperFunction,Conductor*%
%TO.N,Net-(JP29-B)*%
G36*
X24705692Y-83519685D02*
G01*
X24707436Y-83520826D01*
X24707437Y-83520826D01*
X25119599Y-83795601D01*
X25133890Y-83804786D01*
X25265754Y-83862348D01*
X25294302Y-83865964D01*
X25408490Y-83880429D01*
X25408491Y-83880428D01*
X25408494Y-83880429D01*
X25550546Y-83857562D01*
X25680401Y-83795601D01*
X26038361Y-83556961D01*
X26092564Y-83520826D01*
X26159263Y-83500018D01*
X26161347Y-83500000D01*
X26176000Y-83500000D01*
X26243039Y-83519685D01*
X26288794Y-83572489D01*
X26300000Y-83624000D01*
X26300000Y-84276000D01*
X26280315Y-84343039D01*
X26227511Y-84388794D01*
X26176000Y-84400000D01*
X19924000Y-84400000D01*
X19856961Y-84380315D01*
X19811206Y-84327511D01*
X19800000Y-84276000D01*
X19800000Y-83624000D01*
X19819685Y-83556961D01*
X19872489Y-83511206D01*
X19924000Y-83500000D01*
X24638653Y-83500000D01*
X24705692Y-83519685D01*
G37*
%TD.AperFunction*%
%TD*%
%TA.AperFunction,Conductor*%
%TO.N,Net-(JP22-B)*%
G36*
X15573039Y-72119685D02*
G01*
X15618794Y-72172489D01*
X15630000Y-72224000D01*
X15630000Y-72876000D01*
X15610315Y-72943039D01*
X15557511Y-72988794D01*
X15506000Y-73000000D01*
X10611347Y-73000000D01*
X10544308Y-72980315D01*
X10542564Y-72979174D01*
X10280414Y-72804407D01*
X10266109Y-72795213D01*
X10134244Y-72737651D01*
X9991509Y-72719570D01*
X9849454Y-72742438D01*
X9849451Y-72742439D01*
X9719598Y-72804399D01*
X9457436Y-72979174D01*
X9390737Y-72999982D01*
X9388653Y-73000000D01*
X9254000Y-73000000D01*
X9186961Y-72980315D01*
X9141206Y-72927511D01*
X9130000Y-72876000D01*
X9130000Y-72224000D01*
X9149685Y-72156961D01*
X9202489Y-72111206D01*
X9254000Y-72100000D01*
X15506000Y-72100000D01*
X15573039Y-72119685D01*
G37*
%TD.AperFunction*%
%TD*%
%TA.AperFunction,Conductor*%
%TO.N,Net-(JP27-B)*%
G36*
X108043039Y-72119685D02*
G01*
X108088794Y-72172489D01*
X108100000Y-72224000D01*
X108100000Y-72876000D01*
X108080315Y-72943039D01*
X108027511Y-72988794D01*
X107976000Y-73000000D01*
X103111347Y-73000000D01*
X103044308Y-72980315D01*
X103042564Y-72979174D01*
X102780414Y-72804407D01*
X102766109Y-72795213D01*
X102634244Y-72737651D01*
X102491509Y-72719570D01*
X102349454Y-72742438D01*
X102349451Y-72742439D01*
X102219598Y-72804399D01*
X101957436Y-72979174D01*
X101890737Y-72999982D01*
X101888653Y-73000000D01*
X101724000Y-73000000D01*
X101656961Y-72980315D01*
X101611206Y-72927511D01*
X101600000Y-72876000D01*
X101600000Y-72224000D01*
X101619685Y-72156961D01*
X101672489Y-72111206D01*
X101724000Y-72100000D01*
X107976000Y-72100000D01*
X108043039Y-72119685D01*
G37*
%TD.AperFunction*%
%TD*%
%TA.AperFunction,Conductor*%
%TO.N,Net-(JP15-B)*%
G36*
X24205692Y-51519685D02*
G01*
X24207436Y-51520826D01*
X24207437Y-51520826D01*
X24469599Y-51695601D01*
X24483890Y-51704786D01*
X24615754Y-51762348D01*
X24644302Y-51765964D01*
X24758490Y-51780429D01*
X24758491Y-51780428D01*
X24758494Y-51780429D01*
X24900546Y-51757562D01*
X25030401Y-51695601D01*
X25238361Y-51556961D01*
X25292564Y-51520826D01*
X25359263Y-51500018D01*
X25361347Y-51500000D01*
X25476000Y-51500000D01*
X25543039Y-51519685D01*
X25588794Y-51572489D01*
X25600000Y-51624000D01*
X25600000Y-52276000D01*
X25580315Y-52343039D01*
X25527511Y-52388794D01*
X25476000Y-52400000D01*
X19224000Y-52400000D01*
X19156961Y-52380315D01*
X19111206Y-52327511D01*
X19100000Y-52276000D01*
X19100000Y-51624000D01*
X19119685Y-51556961D01*
X19172489Y-51511206D01*
X19224000Y-51500000D01*
X24138653Y-51500000D01*
X24205692Y-51519685D01*
G37*
%TD.AperFunction*%
%TD*%
%TA.AperFunction,Conductor*%
%TO.N,Net-(JP1-A)*%
G36*
X135953122Y-25918711D02*
G01*
X135998917Y-25971480D01*
X136010162Y-26023394D01*
X136000315Y-29875393D01*
X135980459Y-29942382D01*
X135927538Y-29988002D01*
X135876409Y-29999076D01*
X19181216Y-30087570D01*
X19121544Y-30070097D01*
X19121544Y-25987616D01*
X110902646Y-25918021D01*
X110918280Y-25919001D01*
X111008494Y-25930429D01*
X111076702Y-25919449D01*
X111096297Y-25917874D01*
X112381349Y-25916900D01*
X112416364Y-25921920D01*
X112428060Y-25925355D01*
X112428063Y-25925355D01*
X112571939Y-25925355D01*
X112571940Y-25925355D01*
X112584243Y-25921742D01*
X112619076Y-25916719D01*
X129320783Y-25904055D01*
X129356773Y-25911555D01*
X129357204Y-25909992D01*
X129365746Y-25912344D01*
X129365754Y-25912348D01*
X129508494Y-25930429D01*
X129650546Y-25907562D01*
X129650546Y-25907561D01*
X129659304Y-25906152D01*
X129659463Y-25907144D01*
X129681455Y-25903782D01*
X130833699Y-25902908D01*
X130868718Y-25907930D01*
X130928057Y-25925354D01*
X130928058Y-25925355D01*
X130928060Y-25925355D01*
X131071942Y-25925355D01*
X131071942Y-25925354D01*
X131132139Y-25907678D01*
X131166975Y-25902655D01*
X135886069Y-25899077D01*
X135953122Y-25918711D01*
G37*
%TD.AperFunction*%
%TD*%
%TA.AperFunction,Conductor*%
%TO.N,Net-(JP9-B)*%
G36*
X34073039Y-40119685D02*
G01*
X34118794Y-40172489D01*
X34130000Y-40224000D01*
X34130000Y-40876000D01*
X34110315Y-40943039D01*
X34057511Y-40988794D01*
X34006000Y-41000000D01*
X29111347Y-41000000D01*
X29044308Y-40980315D01*
X29042564Y-40979174D01*
X28780414Y-40804407D01*
X28766109Y-40795213D01*
X28634244Y-40737651D01*
X28491509Y-40719570D01*
X28349454Y-40742438D01*
X28349451Y-40742439D01*
X28219598Y-40804399D01*
X27957436Y-40979174D01*
X27890737Y-40999982D01*
X27888653Y-41000000D01*
X27754000Y-41000000D01*
X27686961Y-40980315D01*
X27641206Y-40927511D01*
X27630000Y-40876000D01*
X27630000Y-40224000D01*
X27649685Y-40156961D01*
X27702489Y-40111206D01*
X27754000Y-40100000D01*
X34006000Y-40100000D01*
X34073039Y-40119685D01*
G37*
%TD.AperFunction*%
%TD*%
%TA.AperFunction,Conductor*%
%TO.N,Net-(JP10-A)*%
G36*
X28780692Y-41719685D02*
G01*
X28782436Y-41720826D01*
X28815393Y-41742797D01*
X28969599Y-41845601D01*
X29040008Y-41884819D01*
X29091473Y-41899930D01*
X29178059Y-41925355D01*
X29178060Y-41925355D01*
X29321941Y-41925355D01*
X29366237Y-41912348D01*
X29459992Y-41884819D01*
X29581032Y-41807031D01*
X29636692Y-41742796D01*
X29695469Y-41705023D01*
X29730404Y-41700000D01*
X33976000Y-41700000D01*
X34043039Y-41719685D01*
X34088794Y-41772489D01*
X34100000Y-41824000D01*
X34100000Y-42776000D01*
X34080315Y-42843039D01*
X34027511Y-42888794D01*
X33976000Y-42900000D01*
X32900000Y-42900000D01*
X32900000Y-46800000D01*
X28900000Y-46800000D01*
X28900000Y-42900000D01*
X27824000Y-42900000D01*
X27756961Y-42880315D01*
X27711206Y-42827511D01*
X27700000Y-42776000D01*
X27700000Y-42045480D01*
X27719685Y-41978441D01*
X27772489Y-41932686D01*
X27804289Y-41923056D01*
X27900546Y-41907562D01*
X28030401Y-41845601D01*
X28184607Y-41742797D01*
X28217564Y-41720826D01*
X28284263Y-41700018D01*
X28286347Y-41700000D01*
X28713653Y-41700000D01*
X28780692Y-41719685D01*
G37*
%TD.AperFunction*%
%TD*%
M02*
