%TF.GenerationSoftware,KiCad,Pcbnew,8.0.0*%
%TF.CreationDate,2025-01-10T11:52:10+00:00*%
%TF.ProjectId,vape_powerbank_pcb,76617065-5f70-46f7-9765-7262616e6b5f,rev?*%
%TF.SameCoordinates,Original*%
%TF.FileFunction,Paste,Top*%
%TF.FilePolarity,Positive*%
%FSLAX46Y46*%
G04 Gerber Fmt 4.6, Leading zero omitted, Abs format (unit mm)*
G04 Created by KiCad (PCBNEW 8.0.0) date 2025-01-10 11:52:10*
%MOMM*%
%LPD*%
G01*
G04 APERTURE LIST*
G04 Aperture macros list*
%AMRoundRect*
0 Rectangle with rounded corners*
0 $1 Rounding radius*
0 $2 $3 $4 $5 $6 $7 $8 $9 X,Y pos of 4 corners*
0 Add a 4 corners polygon primitive as box body*
4,1,4,$2,$3,$4,$5,$6,$7,$8,$9,$2,$3,0*
0 Add four circle primitives for the rounded corners*
1,1,$1+$1,$2,$3*
1,1,$1+$1,$4,$5*
1,1,$1+$1,$6,$7*
1,1,$1+$1,$8,$9*
0 Add four rect primitives between the rounded corners*
20,1,$1+$1,$2,$3,$4,$5,0*
20,1,$1+$1,$4,$5,$6,$7,0*
20,1,$1+$1,$6,$7,$8,$9,0*
20,1,$1+$1,$8,$9,$2,$3,0*%
G04 Aperture macros list end*
%ADD10RoundRect,0.200000X-0.275000X0.200000X-0.275000X-0.200000X0.275000X-0.200000X0.275000X0.200000X0*%
%ADD11RoundRect,0.200000X-1.300000X-0.800000X1.300000X-0.800000X1.300000X0.800000X-1.300000X0.800000X0*%
%ADD12RoundRect,0.237500X0.237500X-0.287500X0.237500X0.287500X-0.237500X0.287500X-0.237500X-0.287500X0*%
%ADD13RoundRect,0.499999X-2.500001X0.499998X-2.500001X-0.499998X2.500001X-0.499998X2.500001X0.499998X0*%
%ADD14RoundRect,0.499999X-1.000001X0.499998X-1.000001X-0.499998X1.000001X-0.499998X1.000001X0.499998X0*%
%ADD15RoundRect,0.499999X0.499998X2.500001X-0.499998X2.500001X-0.499998X-2.500001X0.499998X-2.500001X0*%
%ADD16RoundRect,0.499999X0.499998X1.000001X-0.499998X1.000001X-0.499998X-1.000001X0.499998X-1.000001X0*%
%ADD17RoundRect,0.237500X-0.237500X0.287500X-0.237500X-0.287500X0.237500X-0.287500X0.237500X0.287500X0*%
%ADD18RoundRect,0.237500X-0.287500X-0.237500X0.287500X-0.237500X0.287500X0.237500X-0.287500X0.237500X0*%
G04 APERTURE END LIST*
D10*
%TO.C,R2*%
X24800000Y-24675000D03*
X24800000Y-26325000D03*
%TD*%
%TO.C,R97*%
X96500000Y-82175000D03*
X96500000Y-83825000D03*
%TD*%
%TO.C,R100*%
X115000000Y-82175000D03*
X115000000Y-83825000D03*
%TD*%
%TO.C,R85*%
X23400000Y-82275000D03*
X23400000Y-83925000D03*
%TD*%
%TO.C,R55*%
X96750000Y-50275000D03*
X96750000Y-51925000D03*
%TD*%
D11*
%TO.C,SPRING34*%
X114372496Y-86203427D03*
%TD*%
%TO.C,SPRING31*%
X58872486Y-86203417D03*
%TD*%
D10*
%TO.C,R48*%
X38250000Y-50275000D03*
X38250000Y-51925000D03*
%TD*%
%TO.C,R78*%
X86000000Y-72675000D03*
X86000000Y-74325000D03*
%TD*%
%TO.C,R50*%
X58250000Y-50275000D03*
X58250000Y-51925000D03*
%TD*%
%TO.C,R66*%
X12000000Y-72675000D03*
X12000000Y-74325000D03*
%TD*%
%TO.C,R69*%
X30490000Y-72675000D03*
X30490000Y-74325000D03*
%TD*%
%TO.C,R34*%
X89000000Y-40675000D03*
X89000000Y-42325000D03*
%TD*%
%TO.C,R12*%
X76750000Y-24675000D03*
X76750000Y-26325000D03*
%TD*%
%TO.C,R56*%
X95250000Y-50275000D03*
X95250000Y-51925000D03*
%TD*%
%TO.C,R16*%
X116750000Y-24675000D03*
X116750000Y-26325000D03*
%TD*%
D11*
%TO.C,SPRING33*%
X95872486Y-86203417D03*
%TD*%
D10*
%TO.C,R33*%
X67500000Y-40675000D03*
X67500000Y-42325000D03*
%TD*%
%TO.C,R51*%
X56750000Y-50275000D03*
X56750000Y-51925000D03*
%TD*%
D12*
%TO.C,F3*%
X12000000Y-90625000D03*
X12000000Y-88875000D03*
%TD*%
D11*
%TO.C,SPRING21*%
X132908222Y-54194903D03*
%TD*%
D10*
%TO.C,R1*%
X26300000Y-24675000D03*
X26300000Y-26325000D03*
%TD*%
D11*
%TO.C,SPRING18*%
X77450030Y-54200020D03*
%TD*%
%TO.C,SPRING6*%
X114400000Y-22100000D03*
%TD*%
D10*
%TO.C,R31*%
X70500000Y-40675000D03*
X70500000Y-42325000D03*
%TD*%
D11*
%TO.C,SPRING13*%
X105159387Y-38237195D03*
%TD*%
D10*
%TO.C,R58*%
X115250000Y-50275000D03*
X115250000Y-51925000D03*
%TD*%
%TO.C,R75*%
X67500000Y-72675000D03*
X67500000Y-74325000D03*
%TD*%
%TO.C,R95*%
X76500000Y-82175000D03*
X76500000Y-83825000D03*
%TD*%
%TO.C,R80*%
X106000000Y-72675000D03*
X106000000Y-74325000D03*
%TD*%
%TO.C,R17*%
X115250000Y-24675000D03*
X115250000Y-26325000D03*
%TD*%
%TO.C,R57*%
X93750000Y-50275000D03*
X93750000Y-51925000D03*
%TD*%
%TO.C,R76*%
X89000000Y-72675000D03*
X89000000Y-74325000D03*
%TD*%
%TO.C,R47*%
X39750000Y-50275000D03*
X39750000Y-51925000D03*
%TD*%
D11*
%TO.C,SPRING28*%
X123647500Y-70189537D03*
%TD*%
D10*
%TO.C,R88*%
X41000000Y-82175000D03*
X41000000Y-83825000D03*
%TD*%
%TO.C,R30*%
X49000000Y-40675000D03*
X49000000Y-42325000D03*
%TD*%
D13*
%TO.C,J1*%
X5275000Y-14800000D03*
D14*
X14275000Y-14800000D03*
%TD*%
D10*
%TO.C,R44*%
X21250000Y-50275000D03*
X21250000Y-51925000D03*
%TD*%
%TO.C,R23*%
X13500000Y-40675000D03*
X13500000Y-42325000D03*
%TD*%
%TO.C,R3*%
X23300000Y-24675000D03*
X23300000Y-26325000D03*
%TD*%
%TO.C,R32*%
X69000000Y-40675000D03*
X69000000Y-42325000D03*
%TD*%
%TO.C,R25*%
X33500000Y-40675000D03*
X33500000Y-42325000D03*
%TD*%
%TO.C,R72*%
X49000000Y-72675000D03*
X49000000Y-74325000D03*
%TD*%
%TO.C,R102*%
X112000000Y-82175000D03*
X112000000Y-83825000D03*
%TD*%
D11*
%TO.C,SPRING17*%
X58991888Y-54205166D03*
%TD*%
D10*
%TO.C,R63*%
X130500000Y-50175000D03*
X130500000Y-51825000D03*
%TD*%
D11*
%TO.C,SPRING12*%
X86660652Y-38136591D03*
%TD*%
%TO.C,SPRING11*%
X68202510Y-38141737D03*
%TD*%
%TO.C,SPRING7*%
X132872500Y-22117600D03*
%TD*%
D10*
%TO.C,R81*%
X104500000Y-72675000D03*
X104500000Y-74325000D03*
%TD*%
%TO.C,R6*%
X39750000Y-24675000D03*
X39750000Y-26325000D03*
%TD*%
%TO.C,R90*%
X38000000Y-82175000D03*
X38000000Y-83825000D03*
%TD*%
%TO.C,R26*%
X32000000Y-40675000D03*
X32000000Y-42325000D03*
%TD*%
%TO.C,R89*%
X39500000Y-82175000D03*
X39500000Y-83825000D03*
%TD*%
%TO.C,R52*%
X78250000Y-50475000D03*
X78250000Y-52125000D03*
%TD*%
%TO.C,R87*%
X20400000Y-82275000D03*
X20400000Y-83925000D03*
%TD*%
D11*
%TO.C,SPRING2*%
X40400000Y-22122696D03*
%TD*%
D10*
%TO.C,R71*%
X50500000Y-72675000D03*
X50500000Y-74325000D03*
%TD*%
D15*
%TO.C,J2*%
X4400000Y-54175000D03*
D16*
X4400000Y-63175000D03*
%TD*%
D10*
%TO.C,R36*%
X85990000Y-40675000D03*
X85990000Y-42325000D03*
%TD*%
%TO.C,R9*%
X58250000Y-24675000D03*
X58250000Y-26325000D03*
%TD*%
%TO.C,R5*%
X41250000Y-24675000D03*
X41250000Y-26325000D03*
%TD*%
%TO.C,R39*%
X104500000Y-40675000D03*
X104500000Y-42325000D03*
%TD*%
%TO.C,R83*%
X124500000Y-72675000D03*
X124500000Y-74325000D03*
%TD*%
%TO.C,R67*%
X33500000Y-72675000D03*
X33500000Y-74325000D03*
%TD*%
D11*
%TO.C,SPRING27*%
X105105662Y-70184430D03*
%TD*%
D10*
%TO.C,R14*%
X96750000Y-24675000D03*
X96750000Y-26325000D03*
%TD*%
%TO.C,R37*%
X107500000Y-40675000D03*
X107500000Y-42325000D03*
%TD*%
%TO.C,R46*%
X41250000Y-50275000D03*
X41250000Y-51925000D03*
%TD*%
%TO.C,R74*%
X69000000Y-72675000D03*
X69000000Y-74325000D03*
%TD*%
%TO.C,R22*%
X15000000Y-40675000D03*
X15000000Y-42325000D03*
%TD*%
%TO.C,R73*%
X70500000Y-72675000D03*
X70500000Y-74325000D03*
%TD*%
%TO.C,R77*%
X87500000Y-72675000D03*
X87500000Y-74325000D03*
%TD*%
%TO.C,R79*%
X107500000Y-72675000D03*
X107500000Y-74325000D03*
%TD*%
%TO.C,R70*%
X52000000Y-72675000D03*
X52000000Y-74325000D03*
%TD*%
D13*
%TO.C,J3*%
X5275000Y-93600000D03*
D14*
X14275000Y-93600000D03*
%TD*%
D10*
%TO.C,R98*%
X95000000Y-82175000D03*
X95000000Y-83825000D03*
%TD*%
%TO.C,R40*%
X126000000Y-40675000D03*
X126000000Y-42325000D03*
%TD*%
%TO.C,R94*%
X78000000Y-82175000D03*
X78000000Y-83825000D03*
%TD*%
D11*
%TO.C,SPRING29*%
X21872490Y-86203430D03*
%TD*%
D10*
%TO.C,R59*%
X113750000Y-50275000D03*
X113750000Y-51925000D03*
%TD*%
D17*
%TO.C,F1*%
X12025000Y-17775000D03*
X12025000Y-19525000D03*
%TD*%
D10*
%TO.C,R68*%
X32000000Y-72675000D03*
X32000000Y-74325000D03*
%TD*%
%TO.C,R35*%
X87500000Y-40675000D03*
X87500000Y-42325000D03*
%TD*%
D11*
%TO.C,SPRING24*%
X49605632Y-70184410D03*
%TD*%
D10*
%TO.C,R53*%
X76750000Y-50475000D03*
X76750000Y-52125000D03*
%TD*%
%TO.C,R105*%
X130490000Y-82175000D03*
X130490000Y-83825000D03*
%TD*%
%TO.C,R18*%
X113750000Y-24675000D03*
X113750000Y-26325000D03*
%TD*%
%TO.C,R15*%
X95250000Y-24675000D03*
X95250000Y-26325000D03*
%TD*%
%TO.C,R38*%
X106000000Y-40675000D03*
X106000000Y-42325000D03*
%TD*%
%TO.C,R7*%
X61250000Y-24675000D03*
X61250000Y-26325000D03*
%TD*%
%TO.C,R92*%
X58000000Y-82175000D03*
X58000000Y-83825000D03*
%TD*%
%TO.C,R24*%
X12000000Y-40675000D03*
X12000000Y-42325000D03*
%TD*%
D11*
%TO.C,SPRING8*%
X12700000Y-38144167D03*
%TD*%
%TO.C,SPRING15*%
X21950000Y-54200000D03*
%TD*%
D10*
%TO.C,R62*%
X132000000Y-50175000D03*
X132000000Y-51825000D03*
%TD*%
%TO.C,R93*%
X56500000Y-82175000D03*
X56500000Y-83825000D03*
%TD*%
%TO.C,R41*%
X124500000Y-40675000D03*
X124500000Y-42325000D03*
%TD*%
D11*
%TO.C,SPRING1*%
X21914338Y-22122696D03*
%TD*%
D10*
%TO.C,R60*%
X112250000Y-50275000D03*
X112250000Y-51925000D03*
%TD*%
%TO.C,R20*%
X133750000Y-24675000D03*
X133750000Y-26325000D03*
%TD*%
%TO.C,R4*%
X42750000Y-24675000D03*
X42750000Y-26325000D03*
%TD*%
%TO.C,R61*%
X133500000Y-50175000D03*
X133500000Y-51825000D03*
%TD*%
%TO.C,R29*%
X50500000Y-40675000D03*
X50500000Y-42325000D03*
%TD*%
%TO.C,R65*%
X13500000Y-72675000D03*
X13500000Y-74325000D03*
%TD*%
%TO.C,R10*%
X79750000Y-24675000D03*
X79750000Y-26325000D03*
%TD*%
%TO.C,R84*%
X123000000Y-72675000D03*
X123000000Y-74325000D03*
%TD*%
%TO.C,R103*%
X133500000Y-82175000D03*
X133500000Y-83825000D03*
%TD*%
D11*
%TO.C,SPRING4*%
X77400000Y-22117550D03*
%TD*%
D10*
%TO.C,R99*%
X93500000Y-82175000D03*
X93500000Y-83825000D03*
%TD*%
%TO.C,R27*%
X30500000Y-40675000D03*
X30500000Y-42325000D03*
%TD*%
%TO.C,R49*%
X59750000Y-50275000D03*
X59750000Y-51925000D03*
%TD*%
%TO.C,R101*%
X113500000Y-82175000D03*
X113500000Y-83825000D03*
%TD*%
%TO.C,R11*%
X78260000Y-24675000D03*
X78260000Y-26325000D03*
%TD*%
D11*
%TO.C,SPRING35*%
X132872486Y-86203427D03*
%TD*%
%TO.C,SPRING14*%
X123635663Y-38150000D03*
%TD*%
D10*
%TO.C,R42*%
X123000000Y-40675000D03*
X123000000Y-42325000D03*
%TD*%
D11*
%TO.C,SPRING22*%
X12650000Y-70187126D03*
%TD*%
%TO.C,SPRING19*%
X95952540Y-54197590D03*
%TD*%
%TO.C,SPRING25*%
X68104367Y-70285014D03*
%TD*%
D10*
%TO.C,R54*%
X75250000Y-50475000D03*
X75250000Y-52125000D03*
%TD*%
D11*
%TO.C,SPRING5*%
X95900000Y-22100000D03*
%TD*%
%TO.C,SPRING3*%
X58914338Y-22122696D03*
%TD*%
D10*
%TO.C,R21*%
X132250000Y-24675000D03*
X132250000Y-26325000D03*
%TD*%
%TO.C,R13*%
X98250000Y-24675000D03*
X98250000Y-26325000D03*
%TD*%
%TO.C,R45*%
X19750000Y-50275000D03*
X19750000Y-51925000D03*
%TD*%
D11*
%TO.C,SPRING32*%
X77372486Y-86203417D03*
%TD*%
D18*
%TO.C,F2*%
X11075000Y-49100000D03*
X12825000Y-49100000D03*
%TD*%
D11*
%TO.C,SPRING20*%
X114451275Y-54298194D03*
%TD*%
D10*
%TO.C,R82*%
X126000000Y-72675000D03*
X126000000Y-74325000D03*
%TD*%
%TO.C,R28*%
X52000000Y-40675000D03*
X52000000Y-42325000D03*
%TD*%
D11*
%TO.C,SPRING23*%
X31147490Y-70189556D03*
%TD*%
D10*
%TO.C,R43*%
X22750000Y-50275000D03*
X22750000Y-51925000D03*
%TD*%
%TO.C,R19*%
X135250000Y-24675000D03*
X135250000Y-26325000D03*
%TD*%
%TO.C,R91*%
X59500000Y-82175000D03*
X59500000Y-83825000D03*
%TD*%
%TO.C,R8*%
X59750000Y-24675000D03*
X59750000Y-26325000D03*
%TD*%
%TO.C,R86*%
X21900000Y-82275000D03*
X21900000Y-83925000D03*
%TD*%
D11*
%TO.C,SPRING30*%
X40374996Y-86200987D03*
%TD*%
%TO.C,SPRING9*%
X31202510Y-38141737D03*
%TD*%
%TO.C,SPRING16*%
X40494398Y-54202736D03*
%TD*%
D10*
%TO.C,R96*%
X74990000Y-82175000D03*
X74990000Y-83825000D03*
%TD*%
D11*
%TO.C,SPRING26*%
X86606877Y-70282584D03*
%TD*%
D10*
%TO.C,R104*%
X132000000Y-82175000D03*
X132000000Y-83825000D03*
%TD*%
D11*
%TO.C,SPRING10*%
X49700000Y-38144167D03*
%TD*%
D10*
%TO.C,R64*%
X15000000Y-72675000D03*
X15000000Y-74325000D03*
%TD*%
M02*
