%TF.GenerationSoftware,KiCad,Pcbnew,8.0.0*%
%TF.CreationDate,2025-01-10T11:52:10+00:00*%
%TF.ProjectId,vape_powerbank_pcb,76617065-5f70-46f7-9765-7262616e6b5f,rev?*%
%TF.SameCoordinates,Original*%
%TF.FileFunction,Legend,Bot*%
%TF.FilePolarity,Positive*%
%FSLAX46Y46*%
G04 Gerber Fmt 4.6, Leading zero omitted, Abs format (unit mm)*
G04 Created by KiCad (PCBNEW 8.0.0) date 2025-01-10 11:52:10*
%MOMM*%
%LPD*%
G01*
G04 APERTURE LIST*
%ADD10C,0.200000*%
%ADD11C,1.314758*%
%ADD12C,1.282704*%
%ADD13C,1.287464*%
%ADD14C,1.282708*%
%ADD15C,1.163478*%
%ADD16C,1.297295*%
%ADD17C,1.283859*%
%ADD18C,1.328083*%
%ADD19C,1.283857*%
%ADD20C,0.100000*%
%ADD21C,0.150000*%
%ADD22C,3.200000*%
G04 APERTURE END LIST*
D10*
X16550813Y-75691421D02*
G75*
G02*
X14699999Y-74700000I-617773J1070011D01*
G01*
X43546411Y-87707879D02*
X21991807Y-81307960D01*
X21991807Y-81307960D02*
G75*
G02*
X21800003Y-79100007I337083J1141590D01*
G01*
X16600000Y-32700000D02*
X32000000Y-41600000D01*
D11*
X47084184Y-68846183D02*
G75*
G02*
X45769426Y-68846183I-657379J0D01*
G01*
X45769426Y-68846183D02*
G75*
G02*
X47084184Y-68846183I657379J0D01*
G01*
D10*
X81200000Y-47450000D02*
G75*
G02*
X82400000Y-46250000I1200000J0D01*
G01*
X38064680Y-59167508D02*
X38100000Y-49200000D01*
X87700000Y-40599999D02*
G75*
G02*
X86660504Y-38597613I-204400J1164899D01*
G01*
X95946080Y-89744523D02*
X59800000Y-89750000D01*
X78899999Y-38149999D02*
G75*
G02*
X77094139Y-38255861I-949999J749999D01*
G01*
X50700000Y-85400000D02*
X45300001Y-69300000D01*
X21728680Y-29194087D02*
G75*
G02*
X22000005Y-27000016I600220J1039587D01*
G01*
X44999998Y-86000000D02*
G75*
G02*
X43546420Y-87707850I-1100798J-535600D01*
G01*
X74700000Y-47600000D02*
X74700000Y-60900000D01*
X46427850Y-67631425D02*
X68000000Y-67700001D01*
X69039509Y-69702401D02*
X52716613Y-85999263D01*
X116020042Y-38135342D02*
X111734051Y-25304853D01*
X119478599Y-44855413D02*
G75*
G02*
X118368718Y-46767790I-4564299J1370713D01*
G01*
X39791708Y-37953831D02*
G75*
G02*
X38105629Y-38672738I-1161708J387931D01*
G01*
X105026085Y-23148564D02*
X110399999Y-39000001D01*
X109273195Y-40668576D01*
X87700000Y-40600000D01*
X86660491Y-38597600D01*
X102983387Y-22300738D01*
X105026085Y-23148564D01*
G36*
X105026085Y-23148564D02*
G01*
X110399999Y-39000001D01*
X109273195Y-40668576D01*
X87700000Y-40600000D01*
X86660491Y-38597600D01*
X102983387Y-22300738D01*
X105026085Y-23148564D01*
G37*
X110364042Y-69169766D02*
X104964043Y-85469766D01*
X102767385Y-85776104D01*
X86623721Y-69652127D01*
X87764043Y-67669767D01*
X109237236Y-67607631D01*
X110364042Y-69169766D01*
G36*
X110364042Y-69169766D02*
G01*
X104964043Y-85469766D01*
X102767385Y-85776104D01*
X86623721Y-69652127D01*
X87764043Y-67669767D01*
X109237236Y-67607631D01*
X110364042Y-69169766D01*
G37*
X129700000Y-38850001D02*
G75*
G02*
X131436867Y-39920409I538600J-1070399D01*
G01*
X76925585Y-70182010D02*
G75*
G02*
X78849999Y-70150001I974415J-717990D01*
G01*
X21800000Y-79100000D02*
X37900000Y-69800001D01*
D12*
X68845760Y-68864907D02*
G75*
G02*
X67563056Y-68864907I-641352J0D01*
G01*
X67563056Y-68864907D02*
G75*
G02*
X68845760Y-68864907I641352J0D01*
G01*
D10*
X118260107Y-61439708D02*
G75*
G02*
X119502981Y-63525489I-3345807J-3406892D01*
G01*
D13*
X47070539Y-39474671D02*
G75*
G02*
X45783075Y-39474671I-643732J0D01*
G01*
X45783075Y-39474671D02*
G75*
G02*
X47070539Y-39474671I643732J0D01*
G01*
D10*
X102983387Y-22300738D02*
G75*
G02*
X105000033Y-22899994I845413J-847862D01*
G01*
X111800000Y-60750000D02*
G75*
G02*
X110700000Y-61954536I-1100000J-100000D01*
G01*
X15700000Y-49499998D02*
G75*
G02*
X14004788Y-48325494I-481660J1115438D01*
G01*
X52896658Y-22493662D02*
X69040322Y-38617639D01*
X105000000Y-22900001D02*
X110399999Y-39000001D01*
D11*
X109930574Y-39453818D02*
G75*
G02*
X108615816Y-39453818I-657379J0D01*
G01*
X108615816Y-39453818D02*
G75*
G02*
X109930574Y-39453818I657379J0D01*
G01*
D10*
X36459757Y-47996380D02*
X22500000Y-53000001D01*
X14700000Y-74700000D02*
X14021070Y-59994569D01*
X113750000Y-24050000D02*
X126850000Y-32050000D01*
X109236215Y-67607631D02*
G75*
G02*
X110364016Y-69169757I985J-1187469D01*
G01*
X73500000Y-46400000D02*
X45300000Y-46400000D01*
X78849999Y-70150001D02*
X96799999Y-87700001D01*
X131450000Y-68400000D02*
G75*
G02*
X129674917Y-69472665I-1211400J-400D01*
G01*
X32000000Y-41600001D02*
G75*
G02*
X31781697Y-43740914I-618700J-1018499D01*
G01*
D14*
X88136944Y-39435090D02*
G75*
G02*
X86854236Y-39435090I-641354J0D01*
G01*
X86854236Y-39435090D02*
G75*
G02*
X88136944Y-39435090I641354J0D01*
G01*
D10*
X111700000Y-83150000D02*
X116096030Y-70191737D01*
X110364042Y-69169766D02*
X104964043Y-85469766D01*
X96799999Y-87700001D02*
G75*
G02*
X95946080Y-89744445I-853899J-843899D01*
G01*
X45300001Y-69300000D02*
G75*
G02*
X46427850Y-67631453I1126799J453800D01*
G01*
X73600000Y-62104536D02*
X45300000Y-62100000D01*
X86660491Y-38597600D02*
X102983387Y-22300738D01*
X126850000Y-74400000D02*
G75*
G02*
X126784380Y-76353229I-700000J-954200D01*
G01*
X74700000Y-60900000D02*
G75*
G02*
X73600000Y-62104536I-1100000J-100000D01*
G01*
X95946075Y-18590091D02*
G75*
G02*
X96749988Y-20649987I25J-1186809D01*
G01*
X117750000Y-69450001D02*
X126850000Y-74400000D01*
X14021070Y-59994569D02*
G75*
G02*
X15600001Y-58799997I1197270J58269D01*
G01*
X68000000Y-67700002D02*
G75*
G02*
X69039495Y-69702387I204400J-1164898D01*
G01*
X14732911Y-33641039D02*
G75*
G02*
X16599997Y-32700005I1200129J-58411D01*
G01*
X102767385Y-85776104D02*
X86623721Y-69652127D01*
X69040322Y-38617639D02*
G75*
G02*
X67900000Y-40599999I-835912J-838311D01*
G01*
X52716613Y-85999263D02*
G75*
G02*
X50699966Y-85400007I-845413J847863D01*
G01*
X126850000Y-32050000D02*
G75*
G02*
X126708940Y-34104378I-703900J-983700D01*
G01*
X68702510Y-38141737D02*
X67900000Y-40599999D01*
X46427828Y-40662135D01*
X45300001Y-39100000D01*
X50700000Y-22800000D01*
X52896658Y-22493662D01*
X68702510Y-38141737D01*
G36*
X68702510Y-38141737D02*
G01*
X67900000Y-40599999D01*
X46427828Y-40662135D01*
X45300001Y-39100000D01*
X50700000Y-22800000D01*
X52896658Y-22493662D01*
X68702510Y-38141737D01*
G37*
X38064680Y-59167508D02*
G75*
G02*
X36500003Y-60299992I-1192180J8D01*
G01*
X43700000Y-20600000D02*
X22000000Y-27000000D01*
X110600000Y-46250000D02*
X82400000Y-46250000D01*
X77094138Y-38255862D02*
X58932603Y-20645722D01*
X118260107Y-61439708D02*
G75*
G02*
X117559619Y-59848940I1429093J1578908D01*
G01*
X36459757Y-47996381D02*
G75*
G02*
X38099952Y-49199998I412743J-1156919D01*
G01*
X111734052Y-25304853D02*
G75*
G02*
X113750002Y-24049998I1157848J386653D01*
G01*
X46427828Y-40662135D02*
G75*
G02*
X45300031Y-39100010I-1028J1187435D01*
G01*
X45300001Y-39100000D02*
X50700000Y-22800000D01*
X31781692Y-43740901D02*
X15700000Y-49499999D01*
X50700000Y-22800000D02*
G75*
G02*
X52896651Y-22493667I1171200J-369400D01*
G01*
D15*
X52452949Y-85151437D02*
G75*
G02*
X51289471Y-85151437I-581739J0D01*
G01*
X51289471Y-85151437D02*
G75*
G02*
X52452949Y-85151437I581739J0D01*
G01*
D10*
X111800000Y-47450000D02*
X111800000Y-60750000D01*
X68200000Y-40650000D02*
X46427828Y-40662135D01*
X73500000Y-46400000D02*
G75*
G02*
X74700000Y-47600000I0J-1200000D01*
G01*
X113528136Y-84441693D02*
G75*
G02*
X111699969Y-83149993I-636236J1039093D01*
G01*
X39791709Y-37953831D02*
X45039255Y-22165946D01*
X44100000Y-47600000D02*
G75*
G02*
X45300000Y-46400000I1200000J0D01*
G01*
X126784344Y-76353172D02*
X113528136Y-84441694D01*
D13*
X109880968Y-68795094D02*
G75*
G02*
X108593504Y-68795094I-643732J0D01*
G01*
X108593504Y-68795094D02*
G75*
G02*
X109880968Y-68795094I643732J0D01*
G01*
D10*
X37900000Y-69800001D02*
G75*
G02*
X39770102Y-70374243I730000J-954899D01*
G01*
X119478600Y-44855413D02*
G75*
G02*
X120149992Y-43849984I1213700J-83587D01*
G01*
D16*
X104477437Y-23148564D02*
G75*
G02*
X103180143Y-23148564I-648647J0D01*
G01*
X103180143Y-23148564D02*
G75*
G02*
X104477437Y-23148564I648647J0D01*
G01*
D10*
X22431056Y-55298568D02*
X36500000Y-60300000D01*
X129674893Y-69472710D02*
X120150000Y-64450000D01*
X117700000Y-38849999D02*
G75*
G02*
X116020105Y-38135321I-523700J1100699D01*
G01*
X14004778Y-48325494D02*
X14732910Y-33641039D01*
X96750000Y-20650000D02*
X78899999Y-38149999D01*
X131436864Y-39920409D02*
X131450000Y-68400000D01*
X117537825Y-48700000D02*
G75*
G02*
X118368698Y-46767771I2662175J0D01*
G01*
D17*
X88101564Y-68813814D02*
G75*
G02*
X86817706Y-68813814I-641929J0D01*
G01*
X86817706Y-68813814D02*
G75*
G02*
X88101564Y-68813814I641929J0D01*
G01*
D10*
X86623721Y-69652127D02*
G75*
G02*
X87764042Y-67669772I835879J838327D01*
G01*
X110399998Y-39000001D02*
G75*
G02*
X109272150Y-40668546I-1126798J-453799D01*
G01*
X120150000Y-64450000D02*
G75*
G02*
X119503052Y-63525478I542300J1068100D01*
G01*
X31900000Y-64600001D02*
G75*
G02*
X31990436Y-66757460I-518720J-1102369D01*
G01*
X59800000Y-89749999D02*
G75*
G02*
X58947271Y-87689847I-1100J1206099D01*
G01*
X31990433Y-66757454D02*
X16550813Y-75691421D01*
X87764043Y-67669767D02*
X109236215Y-67607631D01*
D18*
X52535247Y-23169409D02*
G75*
G02*
X51207165Y-23169409I-664041J0D01*
G01*
X51207165Y-23169409D02*
G75*
G02*
X52535247Y-23169409I664041J0D01*
G01*
D10*
X43700000Y-20600000D02*
G75*
G02*
X45039255Y-22165946I199200J-1185300D01*
G01*
X59800000Y-18550000D02*
X95946075Y-18590091D01*
D19*
X68846336Y-39455949D02*
G75*
G02*
X67562480Y-39455949I-641928J0D01*
G01*
X67562480Y-39455949D02*
G75*
G02*
X68846336Y-39455949I641928J0D01*
G01*
D18*
X104456878Y-85100357D02*
G75*
G02*
X103128796Y-85100357I-664041J0D01*
G01*
X103128796Y-85100357D02*
G75*
G02*
X104456878Y-85100357I664041J0D01*
G01*
D10*
X58947326Y-87689902D02*
X76925584Y-70182009D01*
X45300000Y-62100000D02*
G75*
G02*
X44100664Y-60691722I100000J1300000D01*
G01*
X68000000Y-67700001D02*
X69039509Y-69702401D01*
X52716613Y-85999263D01*
X50700000Y-85400000D01*
X45300001Y-69300000D01*
X46427850Y-67631425D01*
X68000000Y-67700001D01*
G36*
X68000000Y-67700001D02*
G01*
X69039509Y-69702401D01*
X52716613Y-85999263D01*
X50700000Y-85400000D01*
X45300001Y-69300000D01*
X46427850Y-67631425D01*
X68000000Y-67700001D01*
G37*
X31900000Y-64600001D02*
X15600000Y-58800000D01*
X21728680Y-29194088D02*
X38105600Y-38672800D01*
X58932604Y-20645721D02*
G75*
G02*
X59800000Y-18549985I866296J868821D01*
G01*
X110600000Y-46250000D02*
G75*
G02*
X111800000Y-47450000I0J-1200000D01*
G01*
X117537825Y-48700000D02*
X117559608Y-59848940D01*
X82400000Y-61950000D02*
G75*
G02*
X81200664Y-60541722I100000J1300000D01*
G01*
X126708976Y-34104447D02*
X117700000Y-38850000D01*
X39770063Y-70374256D02*
X44999999Y-86000000D01*
X116096030Y-70191737D02*
G75*
G02*
X117750000Y-69450001I1153970J-358263D01*
G01*
X22431056Y-55298567D02*
G75*
G02*
X22500001Y-53000004I406024J1138137D01*
G01*
X104964042Y-85469766D02*
G75*
G02*
X102767321Y-85776146I-1171242J369366D01*
G01*
X110700000Y-61954536D02*
X82400000Y-61950000D01*
X109272150Y-40668576D02*
X87700000Y-40600000D01*
X120150000Y-43850000D02*
X129700000Y-38850001D01*
X44100000Y-60700000D02*
X44100000Y-47600000D01*
X81200000Y-60550000D02*
X81200000Y-47450000D01*
D20*
X125437342Y-44374711D02*
X125508770Y-44588997D01*
X125508770Y-44588997D02*
X125508770Y-44946139D01*
X125508770Y-44946139D02*
X125437342Y-45088997D01*
X125437342Y-45088997D02*
X125365913Y-45160425D01*
X125365913Y-45160425D02*
X125223056Y-45231854D01*
X125223056Y-45231854D02*
X125080199Y-45231854D01*
X125080199Y-45231854D02*
X124937342Y-45160425D01*
X124937342Y-45160425D02*
X124865913Y-45088997D01*
X124865913Y-45088997D02*
X124794484Y-44946139D01*
X124794484Y-44946139D02*
X124723056Y-44660425D01*
X124723056Y-44660425D02*
X124651627Y-44517568D01*
X124651627Y-44517568D02*
X124580199Y-44446139D01*
X124580199Y-44446139D02*
X124437342Y-44374711D01*
X124437342Y-44374711D02*
X124294484Y-44374711D01*
X124294484Y-44374711D02*
X124151627Y-44446139D01*
X124151627Y-44446139D02*
X124080199Y-44517568D01*
X124080199Y-44517568D02*
X124008770Y-44660425D01*
X124008770Y-44660425D02*
X124008770Y-45017568D01*
X124008770Y-45017568D02*
X124080199Y-45231854D01*
X125508770Y-46517568D02*
X124723056Y-46517568D01*
X124723056Y-46517568D02*
X124580199Y-46446139D01*
X124580199Y-46446139D02*
X124508770Y-46303282D01*
X124508770Y-46303282D02*
X124508770Y-46017568D01*
X124508770Y-46017568D02*
X124580199Y-45874710D01*
X125437342Y-46517568D02*
X125508770Y-46374710D01*
X125508770Y-46374710D02*
X125508770Y-46017568D01*
X125508770Y-46017568D02*
X125437342Y-45874710D01*
X125437342Y-45874710D02*
X125294484Y-45803282D01*
X125294484Y-45803282D02*
X125151627Y-45803282D01*
X125151627Y-45803282D02*
X125008770Y-45874710D01*
X125008770Y-45874710D02*
X124937342Y-46017568D01*
X124937342Y-46017568D02*
X124937342Y-46374710D01*
X124937342Y-46374710D02*
X124865913Y-46517568D01*
X124508770Y-47088996D02*
X125508770Y-47446139D01*
X125508770Y-47446139D02*
X124508770Y-47803282D01*
X125508770Y-48374710D02*
X124508770Y-48374710D01*
X124008770Y-48374710D02*
X124080199Y-48303282D01*
X124080199Y-48303282D02*
X124151627Y-48374710D01*
X124151627Y-48374710D02*
X124080199Y-48446139D01*
X124080199Y-48446139D02*
X124008770Y-48374710D01*
X124008770Y-48374710D02*
X124151627Y-48374710D01*
X124508770Y-49088996D02*
X125508770Y-49088996D01*
X124651627Y-49088996D02*
X124580199Y-49160425D01*
X124580199Y-49160425D02*
X124508770Y-49303282D01*
X124508770Y-49303282D02*
X124508770Y-49517568D01*
X124508770Y-49517568D02*
X124580199Y-49660425D01*
X124580199Y-49660425D02*
X124723056Y-49731854D01*
X124723056Y-49731854D02*
X125508770Y-49731854D01*
X124508770Y-51088997D02*
X125723056Y-51088997D01*
X125723056Y-51088997D02*
X125865913Y-51017568D01*
X125865913Y-51017568D02*
X125937342Y-50946139D01*
X125937342Y-50946139D02*
X126008770Y-50803282D01*
X126008770Y-50803282D02*
X126008770Y-50588997D01*
X126008770Y-50588997D02*
X125937342Y-50446139D01*
X125437342Y-51088997D02*
X125508770Y-50946139D01*
X125508770Y-50946139D02*
X125508770Y-50660425D01*
X125508770Y-50660425D02*
X125437342Y-50517568D01*
X125437342Y-50517568D02*
X125365913Y-50446139D01*
X125365913Y-50446139D02*
X125223056Y-50374711D01*
X125223056Y-50374711D02*
X124794484Y-50374711D01*
X124794484Y-50374711D02*
X124651627Y-50446139D01*
X124651627Y-50446139D02*
X124580199Y-50517568D01*
X124580199Y-50517568D02*
X124508770Y-50660425D01*
X124508770Y-50660425D02*
X124508770Y-50946139D01*
X124508770Y-50946139D02*
X124580199Y-51088997D01*
X124508770Y-52731854D02*
X124508770Y-53303282D01*
X124008770Y-52946139D02*
X125294484Y-52946139D01*
X125294484Y-52946139D02*
X125437342Y-53017568D01*
X125437342Y-53017568D02*
X125508770Y-53160425D01*
X125508770Y-53160425D02*
X125508770Y-53303282D01*
X125508770Y-53803282D02*
X124008770Y-53803282D01*
X125508770Y-54446140D02*
X124723056Y-54446140D01*
X124723056Y-54446140D02*
X124580199Y-54374711D01*
X124580199Y-54374711D02*
X124508770Y-54231854D01*
X124508770Y-54231854D02*
X124508770Y-54017568D01*
X124508770Y-54017568D02*
X124580199Y-53874711D01*
X124580199Y-53874711D02*
X124651627Y-53803282D01*
X125437342Y-55731854D02*
X125508770Y-55588997D01*
X125508770Y-55588997D02*
X125508770Y-55303283D01*
X125508770Y-55303283D02*
X125437342Y-55160425D01*
X125437342Y-55160425D02*
X125294484Y-55088997D01*
X125294484Y-55088997D02*
X124723056Y-55088997D01*
X124723056Y-55088997D02*
X124580199Y-55160425D01*
X124580199Y-55160425D02*
X124508770Y-55303283D01*
X124508770Y-55303283D02*
X124508770Y-55588997D01*
X124508770Y-55588997D02*
X124580199Y-55731854D01*
X124580199Y-55731854D02*
X124723056Y-55803283D01*
X124723056Y-55803283D02*
X124865913Y-55803283D01*
X124865913Y-55803283D02*
X125008770Y-55088997D01*
X124508770Y-57588996D02*
X126008770Y-57588996D01*
X124580199Y-57588996D02*
X124508770Y-57731854D01*
X124508770Y-57731854D02*
X124508770Y-58017568D01*
X124508770Y-58017568D02*
X124580199Y-58160425D01*
X124580199Y-58160425D02*
X124651627Y-58231854D01*
X124651627Y-58231854D02*
X124794484Y-58303282D01*
X124794484Y-58303282D02*
X125223056Y-58303282D01*
X125223056Y-58303282D02*
X125365913Y-58231854D01*
X125365913Y-58231854D02*
X125437342Y-58160425D01*
X125437342Y-58160425D02*
X125508770Y-58017568D01*
X125508770Y-58017568D02*
X125508770Y-57731854D01*
X125508770Y-57731854D02*
X125437342Y-57588996D01*
X125508770Y-59160425D02*
X125437342Y-59017568D01*
X125437342Y-59017568D02*
X125294484Y-58946139D01*
X125294484Y-58946139D02*
X124008770Y-58946139D01*
X125508770Y-60374711D02*
X124723056Y-60374711D01*
X124723056Y-60374711D02*
X124580199Y-60303282D01*
X124580199Y-60303282D02*
X124508770Y-60160425D01*
X124508770Y-60160425D02*
X124508770Y-59874711D01*
X124508770Y-59874711D02*
X124580199Y-59731853D01*
X125437342Y-60374711D02*
X125508770Y-60231853D01*
X125508770Y-60231853D02*
X125508770Y-59874711D01*
X125508770Y-59874711D02*
X125437342Y-59731853D01*
X125437342Y-59731853D02*
X125294484Y-59660425D01*
X125294484Y-59660425D02*
X125151627Y-59660425D01*
X125151627Y-59660425D02*
X125008770Y-59731853D01*
X125008770Y-59731853D02*
X124937342Y-59874711D01*
X124937342Y-59874711D02*
X124937342Y-60231853D01*
X124937342Y-60231853D02*
X124865913Y-60374711D01*
X124508770Y-61088996D02*
X125508770Y-61088996D01*
X124651627Y-61088996D02*
X124580199Y-61160425D01*
X124580199Y-61160425D02*
X124508770Y-61303282D01*
X124508770Y-61303282D02*
X124508770Y-61517568D01*
X124508770Y-61517568D02*
X124580199Y-61660425D01*
X124580199Y-61660425D02*
X124723056Y-61731854D01*
X124723056Y-61731854D02*
X125508770Y-61731854D01*
X125437342Y-63017568D02*
X125508770Y-62874711D01*
X125508770Y-62874711D02*
X125508770Y-62588997D01*
X125508770Y-62588997D02*
X125437342Y-62446139D01*
X125437342Y-62446139D02*
X125294484Y-62374711D01*
X125294484Y-62374711D02*
X124723056Y-62374711D01*
X124723056Y-62374711D02*
X124580199Y-62446139D01*
X124580199Y-62446139D02*
X124508770Y-62588997D01*
X124508770Y-62588997D02*
X124508770Y-62874711D01*
X124508770Y-62874711D02*
X124580199Y-63017568D01*
X124580199Y-63017568D02*
X124723056Y-63088997D01*
X124723056Y-63088997D02*
X124865913Y-63088997D01*
X124865913Y-63088997D02*
X125008770Y-62374711D01*
X124508770Y-63517568D02*
X124508770Y-64088996D01*
X124008770Y-63731853D02*
X125294484Y-63731853D01*
X125294484Y-63731853D02*
X125437342Y-63803282D01*
X125437342Y-63803282D02*
X125508770Y-63946139D01*
X125508770Y-63946139D02*
X125508770Y-64088996D01*
X126423686Y-43767568D02*
X126423686Y-44696140D01*
X126423686Y-44696140D02*
X126995115Y-44196140D01*
X126995115Y-44196140D02*
X126995115Y-44410425D01*
X126995115Y-44410425D02*
X127066543Y-44553283D01*
X127066543Y-44553283D02*
X127137972Y-44624711D01*
X127137972Y-44624711D02*
X127280829Y-44696140D01*
X127280829Y-44696140D02*
X127637972Y-44696140D01*
X127637972Y-44696140D02*
X127780829Y-44624711D01*
X127780829Y-44624711D02*
X127852258Y-44553283D01*
X127852258Y-44553283D02*
X127923686Y-44410425D01*
X127923686Y-44410425D02*
X127923686Y-43981854D01*
X127923686Y-43981854D02*
X127852258Y-43838997D01*
X127852258Y-43838997D02*
X127780829Y-43767568D01*
X126423686Y-46053282D02*
X126423686Y-45338996D01*
X126423686Y-45338996D02*
X127137972Y-45267568D01*
X127137972Y-45267568D02*
X127066543Y-45338996D01*
X127066543Y-45338996D02*
X126995115Y-45481854D01*
X126995115Y-45481854D02*
X126995115Y-45838996D01*
X126995115Y-45838996D02*
X127066543Y-45981854D01*
X127066543Y-45981854D02*
X127137972Y-46053282D01*
X127137972Y-46053282D02*
X127280829Y-46124711D01*
X127280829Y-46124711D02*
X127637972Y-46124711D01*
X127637972Y-46124711D02*
X127780829Y-46053282D01*
X127780829Y-46053282D02*
X127852258Y-45981854D01*
X127852258Y-45981854D02*
X127923686Y-45838996D01*
X127923686Y-45838996D02*
X127923686Y-45481854D01*
X127923686Y-45481854D02*
X127852258Y-45338996D01*
X127852258Y-45338996D02*
X127780829Y-45267568D01*
X127852258Y-48553282D02*
X127923686Y-48410424D01*
X127923686Y-48410424D02*
X127923686Y-48124710D01*
X127923686Y-48124710D02*
X127852258Y-47981853D01*
X127852258Y-47981853D02*
X127780829Y-47910424D01*
X127780829Y-47910424D02*
X127637972Y-47838996D01*
X127637972Y-47838996D02*
X127209400Y-47838996D01*
X127209400Y-47838996D02*
X127066543Y-47910424D01*
X127066543Y-47910424D02*
X126995115Y-47981853D01*
X126995115Y-47981853D02*
X126923686Y-48124710D01*
X126923686Y-48124710D02*
X126923686Y-48410424D01*
X126923686Y-48410424D02*
X126995115Y-48553282D01*
X127852258Y-49767567D02*
X127923686Y-49624710D01*
X127923686Y-49624710D02*
X127923686Y-49338996D01*
X127923686Y-49338996D02*
X127852258Y-49196138D01*
X127852258Y-49196138D02*
X127709400Y-49124710D01*
X127709400Y-49124710D02*
X127137972Y-49124710D01*
X127137972Y-49124710D02*
X126995115Y-49196138D01*
X126995115Y-49196138D02*
X126923686Y-49338996D01*
X126923686Y-49338996D02*
X126923686Y-49624710D01*
X126923686Y-49624710D02*
X126995115Y-49767567D01*
X126995115Y-49767567D02*
X127137972Y-49838996D01*
X127137972Y-49838996D02*
X127280829Y-49838996D01*
X127280829Y-49838996D02*
X127423686Y-49124710D01*
X127923686Y-50696138D02*
X127852258Y-50553281D01*
X127852258Y-50553281D02*
X127709400Y-50481852D01*
X127709400Y-50481852D02*
X126423686Y-50481852D01*
X127923686Y-51481852D02*
X127852258Y-51338995D01*
X127852258Y-51338995D02*
X127709400Y-51267566D01*
X127709400Y-51267566D02*
X126423686Y-51267566D01*
X127852258Y-51981852D02*
X127923686Y-52124709D01*
X127923686Y-52124709D02*
X127923686Y-52410423D01*
X127923686Y-52410423D02*
X127852258Y-52553280D01*
X127852258Y-52553280D02*
X127709400Y-52624709D01*
X127709400Y-52624709D02*
X127637972Y-52624709D01*
X127637972Y-52624709D02*
X127495115Y-52553280D01*
X127495115Y-52553280D02*
X127423686Y-52410423D01*
X127423686Y-52410423D02*
X127423686Y-52196138D01*
X127423686Y-52196138D02*
X127352258Y-52053280D01*
X127352258Y-52053280D02*
X127209400Y-51981852D01*
X127209400Y-51981852D02*
X127137972Y-51981852D01*
X127137972Y-51981852D02*
X126995115Y-52053280D01*
X126995115Y-52053280D02*
X126923686Y-52196138D01*
X126923686Y-52196138D02*
X126923686Y-52410423D01*
X126923686Y-52410423D02*
X126995115Y-52553280D01*
X127923686Y-55053281D02*
X127137972Y-55053281D01*
X127137972Y-55053281D02*
X126995115Y-54981852D01*
X126995115Y-54981852D02*
X126923686Y-54838995D01*
X126923686Y-54838995D02*
X126923686Y-54553281D01*
X126923686Y-54553281D02*
X126995115Y-54410423D01*
X127852258Y-55053281D02*
X127923686Y-54910423D01*
X127923686Y-54910423D02*
X127923686Y-54553281D01*
X127923686Y-54553281D02*
X127852258Y-54410423D01*
X127852258Y-54410423D02*
X127709400Y-54338995D01*
X127709400Y-54338995D02*
X127566543Y-54338995D01*
X127566543Y-54338995D02*
X127423686Y-54410423D01*
X127423686Y-54410423D02*
X127352258Y-54553281D01*
X127352258Y-54553281D02*
X127352258Y-54910423D01*
X127352258Y-54910423D02*
X127280829Y-55053281D01*
X126923686Y-55553281D02*
X126923686Y-56124709D01*
X126423686Y-55767566D02*
X127709400Y-55767566D01*
X127709400Y-55767566D02*
X127852258Y-55838995D01*
X127852258Y-55838995D02*
X127923686Y-55981852D01*
X127923686Y-55981852D02*
X127923686Y-56124709D01*
X127923686Y-58410424D02*
X127137972Y-58410424D01*
X127137972Y-58410424D02*
X126995115Y-58338995D01*
X126995115Y-58338995D02*
X126923686Y-58196138D01*
X126923686Y-58196138D02*
X126923686Y-57910424D01*
X126923686Y-57910424D02*
X126995115Y-57767566D01*
X127852258Y-58410424D02*
X127923686Y-58267566D01*
X127923686Y-58267566D02*
X127923686Y-57910424D01*
X127923686Y-57910424D02*
X127852258Y-57767566D01*
X127852258Y-57767566D02*
X127709400Y-57696138D01*
X127709400Y-57696138D02*
X127566543Y-57696138D01*
X127566543Y-57696138D02*
X127423686Y-57767566D01*
X127423686Y-57767566D02*
X127352258Y-57910424D01*
X127352258Y-57910424D02*
X127352258Y-58267566D01*
X127352258Y-58267566D02*
X127280829Y-58410424D01*
X126923686Y-60053281D02*
X126923686Y-60624709D01*
X126423686Y-60267566D02*
X127709400Y-60267566D01*
X127709400Y-60267566D02*
X127852258Y-60338995D01*
X127852258Y-60338995D02*
X127923686Y-60481852D01*
X127923686Y-60481852D02*
X127923686Y-60624709D01*
X127923686Y-61124709D02*
X126923686Y-61124709D01*
X126423686Y-61124709D02*
X126495115Y-61053281D01*
X126495115Y-61053281D02*
X126566543Y-61124709D01*
X126566543Y-61124709D02*
X126495115Y-61196138D01*
X126495115Y-61196138D02*
X126423686Y-61124709D01*
X126423686Y-61124709D02*
X126566543Y-61124709D01*
X127923686Y-61838995D02*
X126923686Y-61838995D01*
X127066543Y-61838995D02*
X126995115Y-61910424D01*
X126995115Y-61910424D02*
X126923686Y-62053281D01*
X126923686Y-62053281D02*
X126923686Y-62267567D01*
X126923686Y-62267567D02*
X126995115Y-62410424D01*
X126995115Y-62410424D02*
X127137972Y-62481853D01*
X127137972Y-62481853D02*
X127923686Y-62481853D01*
X127137972Y-62481853D02*
X126995115Y-62553281D01*
X126995115Y-62553281D02*
X126923686Y-62696138D01*
X126923686Y-62696138D02*
X126923686Y-62910424D01*
X126923686Y-62910424D02*
X126995115Y-63053281D01*
X126995115Y-63053281D02*
X127137972Y-63124710D01*
X127137972Y-63124710D02*
X127923686Y-63124710D01*
X127852258Y-64410424D02*
X127923686Y-64267567D01*
X127923686Y-64267567D02*
X127923686Y-63981853D01*
X127923686Y-63981853D02*
X127852258Y-63838995D01*
X127852258Y-63838995D02*
X127709400Y-63767567D01*
X127709400Y-63767567D02*
X127137972Y-63767567D01*
X127137972Y-63767567D02*
X126995115Y-63838995D01*
X126995115Y-63838995D02*
X126923686Y-63981853D01*
X126923686Y-63981853D02*
X126923686Y-64267567D01*
X126923686Y-64267567D02*
X126995115Y-64410424D01*
X126995115Y-64410424D02*
X127137972Y-64481853D01*
X127137972Y-64481853D02*
X127280829Y-64481853D01*
X127280829Y-64481853D02*
X127423686Y-63767567D01*
D21*
X4582431Y-24636615D02*
X5582431Y-24874710D01*
X5582431Y-24874710D02*
X4868145Y-25065186D01*
X4868145Y-25065186D02*
X5582431Y-25255662D01*
X5582431Y-25255662D02*
X4582431Y-25493758D01*
X5296716Y-25827091D02*
X5296716Y-26303281D01*
X5582431Y-25731853D02*
X4582431Y-26065186D01*
X4582431Y-26065186D02*
X5582431Y-26398519D01*
X5582431Y-27303281D02*
X5106240Y-26969948D01*
X5582431Y-26731853D02*
X4582431Y-26731853D01*
X4582431Y-26731853D02*
X4582431Y-27112805D01*
X4582431Y-27112805D02*
X4630050Y-27208043D01*
X4630050Y-27208043D02*
X4677669Y-27255662D01*
X4677669Y-27255662D02*
X4772907Y-27303281D01*
X4772907Y-27303281D02*
X4915764Y-27303281D01*
X4915764Y-27303281D02*
X5011002Y-27255662D01*
X5011002Y-27255662D02*
X5058621Y-27208043D01*
X5058621Y-27208043D02*
X5106240Y-27112805D01*
X5106240Y-27112805D02*
X5106240Y-26731853D01*
X5582431Y-27731853D02*
X4582431Y-27731853D01*
X4582431Y-27731853D02*
X5582431Y-28303281D01*
X5582431Y-28303281D02*
X4582431Y-28303281D01*
X5582431Y-28779472D02*
X4582431Y-28779472D01*
X5582431Y-29255662D02*
X4582431Y-29255662D01*
X4582431Y-29255662D02*
X5582431Y-29827090D01*
X5582431Y-29827090D02*
X4582431Y-29827090D01*
X4630050Y-30827090D02*
X4582431Y-30731852D01*
X4582431Y-30731852D02*
X4582431Y-30588995D01*
X4582431Y-30588995D02*
X4630050Y-30446138D01*
X4630050Y-30446138D02*
X4725288Y-30350900D01*
X4725288Y-30350900D02*
X4820526Y-30303281D01*
X4820526Y-30303281D02*
X5011002Y-30255662D01*
X5011002Y-30255662D02*
X5153859Y-30255662D01*
X5153859Y-30255662D02*
X5344335Y-30303281D01*
X5344335Y-30303281D02*
X5439573Y-30350900D01*
X5439573Y-30350900D02*
X5534812Y-30446138D01*
X5534812Y-30446138D02*
X5582431Y-30588995D01*
X5582431Y-30588995D02*
X5582431Y-30684233D01*
X5582431Y-30684233D02*
X5534812Y-30827090D01*
X5534812Y-30827090D02*
X5487192Y-30874709D01*
X5487192Y-30874709D02*
X5153859Y-30874709D01*
X5153859Y-30874709D02*
X5153859Y-30684233D01*
X5487192Y-31303281D02*
X5534812Y-31350900D01*
X5534812Y-31350900D02*
X5582431Y-31303281D01*
X5582431Y-31303281D02*
X5534812Y-31255662D01*
X5534812Y-31255662D02*
X5487192Y-31303281D01*
X5487192Y-31303281D02*
X5582431Y-31303281D01*
X4963383Y-31303281D02*
X5011002Y-31350900D01*
X5011002Y-31350900D02*
X5058621Y-31303281D01*
X5058621Y-31303281D02*
X5011002Y-31255662D01*
X5011002Y-31255662D02*
X4963383Y-31303281D01*
X4963383Y-31303281D02*
X5058621Y-31303281D01*
X4582431Y-32541376D02*
X5391954Y-32541376D01*
X5391954Y-32541376D02*
X5487192Y-32588995D01*
X5487192Y-32588995D02*
X5534812Y-32636614D01*
X5534812Y-32636614D02*
X5582431Y-32731852D01*
X5582431Y-32731852D02*
X5582431Y-32922328D01*
X5582431Y-32922328D02*
X5534812Y-33017566D01*
X5534812Y-33017566D02*
X5487192Y-33065185D01*
X5487192Y-33065185D02*
X5391954Y-33112804D01*
X5391954Y-33112804D02*
X4582431Y-33112804D01*
X5534812Y-33541376D02*
X5582431Y-33636614D01*
X5582431Y-33636614D02*
X5582431Y-33827090D01*
X5582431Y-33827090D02*
X5534812Y-33922328D01*
X5534812Y-33922328D02*
X5439573Y-33969947D01*
X5439573Y-33969947D02*
X5391954Y-33969947D01*
X5391954Y-33969947D02*
X5296716Y-33922328D01*
X5296716Y-33922328D02*
X5249097Y-33827090D01*
X5249097Y-33827090D02*
X5249097Y-33684233D01*
X5249097Y-33684233D02*
X5201478Y-33588995D01*
X5201478Y-33588995D02*
X5106240Y-33541376D01*
X5106240Y-33541376D02*
X5058621Y-33541376D01*
X5058621Y-33541376D02*
X4963383Y-33588995D01*
X4963383Y-33588995D02*
X4915764Y-33684233D01*
X4915764Y-33684233D02*
X4915764Y-33827090D01*
X4915764Y-33827090D02*
X4963383Y-33922328D01*
X5534812Y-34779471D02*
X5582431Y-34684233D01*
X5582431Y-34684233D02*
X5582431Y-34493757D01*
X5582431Y-34493757D02*
X5534812Y-34398519D01*
X5534812Y-34398519D02*
X5439573Y-34350900D01*
X5439573Y-34350900D02*
X5058621Y-34350900D01*
X5058621Y-34350900D02*
X4963383Y-34398519D01*
X4963383Y-34398519D02*
X4915764Y-34493757D01*
X4915764Y-34493757D02*
X4915764Y-34684233D01*
X4915764Y-34684233D02*
X4963383Y-34779471D01*
X4963383Y-34779471D02*
X5058621Y-34827090D01*
X5058621Y-34827090D02*
X5153859Y-34827090D01*
X5153859Y-34827090D02*
X5249097Y-34350900D01*
X5582431Y-36446138D02*
X5058621Y-36446138D01*
X5058621Y-36446138D02*
X4963383Y-36398519D01*
X4963383Y-36398519D02*
X4915764Y-36303281D01*
X4915764Y-36303281D02*
X4915764Y-36112805D01*
X4915764Y-36112805D02*
X4963383Y-36017567D01*
X5534812Y-36446138D02*
X5582431Y-36350900D01*
X5582431Y-36350900D02*
X5582431Y-36112805D01*
X5582431Y-36112805D02*
X5534812Y-36017567D01*
X5534812Y-36017567D02*
X5439573Y-35969948D01*
X5439573Y-35969948D02*
X5344335Y-35969948D01*
X5344335Y-35969948D02*
X5249097Y-36017567D01*
X5249097Y-36017567D02*
X5201478Y-36112805D01*
X5201478Y-36112805D02*
X5201478Y-36350900D01*
X5201478Y-36350900D02*
X5153859Y-36446138D01*
X4915764Y-36779472D02*
X4915764Y-37160424D01*
X4582431Y-36922329D02*
X5439573Y-36922329D01*
X5439573Y-36922329D02*
X5534812Y-36969948D01*
X5534812Y-36969948D02*
X5582431Y-37065186D01*
X5582431Y-37065186D02*
X5582431Y-37160424D01*
X4915764Y-38160425D02*
X5582431Y-38398520D01*
X4915764Y-38636615D02*
X5582431Y-38398520D01*
X5582431Y-38398520D02*
X5820526Y-38303282D01*
X5820526Y-38303282D02*
X5868145Y-38255663D01*
X5868145Y-38255663D02*
X5915764Y-38160425D01*
X5582431Y-39160425D02*
X5534812Y-39065187D01*
X5534812Y-39065187D02*
X5487192Y-39017568D01*
X5487192Y-39017568D02*
X5391954Y-38969949D01*
X5391954Y-38969949D02*
X5106240Y-38969949D01*
X5106240Y-38969949D02*
X5011002Y-39017568D01*
X5011002Y-39017568D02*
X4963383Y-39065187D01*
X4963383Y-39065187D02*
X4915764Y-39160425D01*
X4915764Y-39160425D02*
X4915764Y-39303282D01*
X4915764Y-39303282D02*
X4963383Y-39398520D01*
X4963383Y-39398520D02*
X5011002Y-39446139D01*
X5011002Y-39446139D02*
X5106240Y-39493758D01*
X5106240Y-39493758D02*
X5391954Y-39493758D01*
X5391954Y-39493758D02*
X5487192Y-39446139D01*
X5487192Y-39446139D02*
X5534812Y-39398520D01*
X5534812Y-39398520D02*
X5582431Y-39303282D01*
X5582431Y-39303282D02*
X5582431Y-39160425D01*
X4915764Y-40350901D02*
X5582431Y-40350901D01*
X4915764Y-39922330D02*
X5439573Y-39922330D01*
X5439573Y-39922330D02*
X5534812Y-39969949D01*
X5534812Y-39969949D02*
X5582431Y-40065187D01*
X5582431Y-40065187D02*
X5582431Y-40208044D01*
X5582431Y-40208044D02*
X5534812Y-40303282D01*
X5534812Y-40303282D02*
X5487192Y-40350901D01*
X5582431Y-40827092D02*
X4915764Y-40827092D01*
X5106240Y-40827092D02*
X5011002Y-40874711D01*
X5011002Y-40874711D02*
X4963383Y-40922330D01*
X4963383Y-40922330D02*
X4915764Y-41017568D01*
X4915764Y-41017568D02*
X4915764Y-41112806D01*
X5582431Y-42350902D02*
X5534812Y-42255664D01*
X5534812Y-42255664D02*
X5487192Y-42208045D01*
X5487192Y-42208045D02*
X5391954Y-42160426D01*
X5391954Y-42160426D02*
X5106240Y-42160426D01*
X5106240Y-42160426D02*
X5011002Y-42208045D01*
X5011002Y-42208045D02*
X4963383Y-42255664D01*
X4963383Y-42255664D02*
X4915764Y-42350902D01*
X4915764Y-42350902D02*
X4915764Y-42493759D01*
X4915764Y-42493759D02*
X4963383Y-42588997D01*
X4963383Y-42588997D02*
X5011002Y-42636616D01*
X5011002Y-42636616D02*
X5106240Y-42684235D01*
X5106240Y-42684235D02*
X5391954Y-42684235D01*
X5391954Y-42684235D02*
X5487192Y-42636616D01*
X5487192Y-42636616D02*
X5534812Y-42588997D01*
X5534812Y-42588997D02*
X5582431Y-42493759D01*
X5582431Y-42493759D02*
X5582431Y-42350902D01*
X4915764Y-43017569D02*
X5582431Y-43208045D01*
X5582431Y-43208045D02*
X5106240Y-43398521D01*
X5106240Y-43398521D02*
X5582431Y-43588997D01*
X5582431Y-43588997D02*
X4915764Y-43779473D01*
X4915764Y-44160426D02*
X5582431Y-44160426D01*
X5011002Y-44160426D02*
X4963383Y-44208045D01*
X4963383Y-44208045D02*
X4915764Y-44303283D01*
X4915764Y-44303283D02*
X4915764Y-44446140D01*
X4915764Y-44446140D02*
X4963383Y-44541378D01*
X4963383Y-44541378D02*
X5058621Y-44588997D01*
X5058621Y-44588997D02*
X5582431Y-44588997D01*
X5582431Y-45827093D02*
X4915764Y-45827093D01*
X5106240Y-45827093D02*
X5011002Y-45874712D01*
X5011002Y-45874712D02*
X4963383Y-45922331D01*
X4963383Y-45922331D02*
X4915764Y-46017569D01*
X4915764Y-46017569D02*
X4915764Y-46112807D01*
X5582431Y-46446141D02*
X4915764Y-46446141D01*
X4582431Y-46446141D02*
X4630050Y-46398522D01*
X4630050Y-46398522D02*
X4677669Y-46446141D01*
X4677669Y-46446141D02*
X4630050Y-46493760D01*
X4630050Y-46493760D02*
X4582431Y-46446141D01*
X4582431Y-46446141D02*
X4677669Y-46446141D01*
X5534812Y-46874712D02*
X5582431Y-46969950D01*
X5582431Y-46969950D02*
X5582431Y-47160426D01*
X5582431Y-47160426D02*
X5534812Y-47255664D01*
X5534812Y-47255664D02*
X5439573Y-47303283D01*
X5439573Y-47303283D02*
X5391954Y-47303283D01*
X5391954Y-47303283D02*
X5296716Y-47255664D01*
X5296716Y-47255664D02*
X5249097Y-47160426D01*
X5249097Y-47160426D02*
X5249097Y-47017569D01*
X5249097Y-47017569D02*
X5201478Y-46922331D01*
X5201478Y-46922331D02*
X5106240Y-46874712D01*
X5106240Y-46874712D02*
X5058621Y-46874712D01*
X5058621Y-46874712D02*
X4963383Y-46922331D01*
X4963383Y-46922331D02*
X4915764Y-47017569D01*
X4915764Y-47017569D02*
X4915764Y-47160426D01*
X4915764Y-47160426D02*
X4963383Y-47255664D01*
X5582431Y-47731855D02*
X4582431Y-47731855D01*
X5201478Y-47827093D02*
X5582431Y-48112807D01*
X4915764Y-48112807D02*
X5296716Y-47731855D01*
X5487192Y-48541379D02*
X5534812Y-48588998D01*
X5534812Y-48588998D02*
X5582431Y-48541379D01*
X5582431Y-48541379D02*
X5534812Y-48493760D01*
X5534812Y-48493760D02*
X5487192Y-48541379D01*
X5487192Y-48541379D02*
X5582431Y-48541379D01*
X5201478Y-48541379D02*
X4630050Y-48493760D01*
X4630050Y-48493760D02*
X4582431Y-48541379D01*
X4582431Y-48541379D02*
X4630050Y-48588998D01*
X4630050Y-48588998D02*
X5201478Y-48541379D01*
X5201478Y-48541379D02*
X4582431Y-48541379D01*
X5058621Y-49779474D02*
X5058621Y-50112807D01*
X5582431Y-50255664D02*
X5582431Y-49779474D01*
X5582431Y-49779474D02*
X4582431Y-49779474D01*
X4582431Y-49779474D02*
X4582431Y-50255664D01*
X4915764Y-50684236D02*
X5582431Y-50684236D01*
X5011002Y-50684236D02*
X4963383Y-50731855D01*
X4963383Y-50731855D02*
X4915764Y-50827093D01*
X4915764Y-50827093D02*
X4915764Y-50969950D01*
X4915764Y-50969950D02*
X4963383Y-51065188D01*
X4963383Y-51065188D02*
X5058621Y-51112807D01*
X5058621Y-51112807D02*
X5582431Y-51112807D01*
X5534812Y-51541379D02*
X5582431Y-51636617D01*
X5582431Y-51636617D02*
X5582431Y-51827093D01*
X5582431Y-51827093D02*
X5534812Y-51922331D01*
X5534812Y-51922331D02*
X5439573Y-51969950D01*
X5439573Y-51969950D02*
X5391954Y-51969950D01*
X5391954Y-51969950D02*
X5296716Y-51922331D01*
X5296716Y-51922331D02*
X5249097Y-51827093D01*
X5249097Y-51827093D02*
X5249097Y-51684236D01*
X5249097Y-51684236D02*
X5201478Y-51588998D01*
X5201478Y-51588998D02*
X5106240Y-51541379D01*
X5106240Y-51541379D02*
X5058621Y-51541379D01*
X5058621Y-51541379D02*
X4963383Y-51588998D01*
X4963383Y-51588998D02*
X4915764Y-51684236D01*
X4915764Y-51684236D02*
X4915764Y-51827093D01*
X4915764Y-51827093D02*
X4963383Y-51922331D01*
X4915764Y-52827093D02*
X5582431Y-52827093D01*
X4915764Y-52398522D02*
X5439573Y-52398522D01*
X5439573Y-52398522D02*
X5534812Y-52446141D01*
X5534812Y-52446141D02*
X5582431Y-52541379D01*
X5582431Y-52541379D02*
X5582431Y-52684236D01*
X5582431Y-52684236D02*
X5534812Y-52779474D01*
X5534812Y-52779474D02*
X5487192Y-52827093D01*
X5582431Y-53303284D02*
X4915764Y-53303284D01*
X5106240Y-53303284D02*
X5011002Y-53350903D01*
X5011002Y-53350903D02*
X4963383Y-53398522D01*
X4963383Y-53398522D02*
X4915764Y-53493760D01*
X4915764Y-53493760D02*
X4915764Y-53588998D01*
X5534812Y-54303284D02*
X5582431Y-54208046D01*
X5582431Y-54208046D02*
X5582431Y-54017570D01*
X5582431Y-54017570D02*
X5534812Y-53922332D01*
X5534812Y-53922332D02*
X5439573Y-53874713D01*
X5439573Y-53874713D02*
X5058621Y-53874713D01*
X5058621Y-53874713D02*
X4963383Y-53922332D01*
X4963383Y-53922332D02*
X4915764Y-54017570D01*
X4915764Y-54017570D02*
X4915764Y-54208046D01*
X4915764Y-54208046D02*
X4963383Y-54303284D01*
X4963383Y-54303284D02*
X5058621Y-54350903D01*
X5058621Y-54350903D02*
X5153859Y-54350903D01*
X5153859Y-54350903D02*
X5249097Y-53874713D01*
X4915764Y-55541380D02*
X5915764Y-55541380D01*
X4963383Y-55541380D02*
X4915764Y-55636618D01*
X4915764Y-55636618D02*
X4915764Y-55827094D01*
X4915764Y-55827094D02*
X4963383Y-55922332D01*
X4963383Y-55922332D02*
X5011002Y-55969951D01*
X5011002Y-55969951D02*
X5106240Y-56017570D01*
X5106240Y-56017570D02*
X5391954Y-56017570D01*
X5391954Y-56017570D02*
X5487192Y-55969951D01*
X5487192Y-55969951D02*
X5534812Y-55922332D01*
X5534812Y-55922332D02*
X5582431Y-55827094D01*
X5582431Y-55827094D02*
X5582431Y-55636618D01*
X5582431Y-55636618D02*
X5534812Y-55541380D01*
X5582431Y-56446142D02*
X4915764Y-56446142D01*
X5106240Y-56446142D02*
X5011002Y-56493761D01*
X5011002Y-56493761D02*
X4963383Y-56541380D01*
X4963383Y-56541380D02*
X4915764Y-56636618D01*
X4915764Y-56636618D02*
X4915764Y-56731856D01*
X5582431Y-57208047D02*
X5534812Y-57112809D01*
X5534812Y-57112809D02*
X5487192Y-57065190D01*
X5487192Y-57065190D02*
X5391954Y-57017571D01*
X5391954Y-57017571D02*
X5106240Y-57017571D01*
X5106240Y-57017571D02*
X5011002Y-57065190D01*
X5011002Y-57065190D02*
X4963383Y-57112809D01*
X4963383Y-57112809D02*
X4915764Y-57208047D01*
X4915764Y-57208047D02*
X4915764Y-57350904D01*
X4915764Y-57350904D02*
X4963383Y-57446142D01*
X4963383Y-57446142D02*
X5011002Y-57493761D01*
X5011002Y-57493761D02*
X5106240Y-57541380D01*
X5106240Y-57541380D02*
X5391954Y-57541380D01*
X5391954Y-57541380D02*
X5487192Y-57493761D01*
X5487192Y-57493761D02*
X5534812Y-57446142D01*
X5534812Y-57446142D02*
X5582431Y-57350904D01*
X5582431Y-57350904D02*
X5582431Y-57208047D01*
X4915764Y-57969952D02*
X5915764Y-57969952D01*
X4963383Y-57969952D02*
X4915764Y-58065190D01*
X4915764Y-58065190D02*
X4915764Y-58255666D01*
X4915764Y-58255666D02*
X4963383Y-58350904D01*
X4963383Y-58350904D02*
X5011002Y-58398523D01*
X5011002Y-58398523D02*
X5106240Y-58446142D01*
X5106240Y-58446142D02*
X5391954Y-58446142D01*
X5391954Y-58446142D02*
X5487192Y-58398523D01*
X5487192Y-58398523D02*
X5534812Y-58350904D01*
X5534812Y-58350904D02*
X5582431Y-58255666D01*
X5582431Y-58255666D02*
X5582431Y-58065190D01*
X5582431Y-58065190D02*
X5534812Y-57969952D01*
X5534812Y-59255666D02*
X5582431Y-59160428D01*
X5582431Y-59160428D02*
X5582431Y-58969952D01*
X5582431Y-58969952D02*
X5534812Y-58874714D01*
X5534812Y-58874714D02*
X5439573Y-58827095D01*
X5439573Y-58827095D02*
X5058621Y-58827095D01*
X5058621Y-58827095D02*
X4963383Y-58874714D01*
X4963383Y-58874714D02*
X4915764Y-58969952D01*
X4915764Y-58969952D02*
X4915764Y-59160428D01*
X4915764Y-59160428D02*
X4963383Y-59255666D01*
X4963383Y-59255666D02*
X5058621Y-59303285D01*
X5058621Y-59303285D02*
X5153859Y-59303285D01*
X5153859Y-59303285D02*
X5249097Y-58827095D01*
X5582431Y-59731857D02*
X4915764Y-59731857D01*
X5106240Y-59731857D02*
X5011002Y-59779476D01*
X5011002Y-59779476D02*
X4963383Y-59827095D01*
X4963383Y-59827095D02*
X4915764Y-59922333D01*
X4915764Y-59922333D02*
X4915764Y-60017571D01*
X5582431Y-61112810D02*
X4582431Y-61112810D01*
X5582431Y-61541381D02*
X5058621Y-61541381D01*
X5058621Y-61541381D02*
X4963383Y-61493762D01*
X4963383Y-61493762D02*
X4915764Y-61398524D01*
X4915764Y-61398524D02*
X4915764Y-61255667D01*
X4915764Y-61255667D02*
X4963383Y-61160429D01*
X4963383Y-61160429D02*
X5011002Y-61112810D01*
X5582431Y-62446143D02*
X5058621Y-62446143D01*
X5058621Y-62446143D02*
X4963383Y-62398524D01*
X4963383Y-62398524D02*
X4915764Y-62303286D01*
X4915764Y-62303286D02*
X4915764Y-62112810D01*
X4915764Y-62112810D02*
X4963383Y-62017572D01*
X5534812Y-62446143D02*
X5582431Y-62350905D01*
X5582431Y-62350905D02*
X5582431Y-62112810D01*
X5582431Y-62112810D02*
X5534812Y-62017572D01*
X5534812Y-62017572D02*
X5439573Y-61969953D01*
X5439573Y-61969953D02*
X5344335Y-61969953D01*
X5344335Y-61969953D02*
X5249097Y-62017572D01*
X5249097Y-62017572D02*
X5201478Y-62112810D01*
X5201478Y-62112810D02*
X5201478Y-62350905D01*
X5201478Y-62350905D02*
X5153859Y-62446143D01*
X4915764Y-62922334D02*
X5582431Y-62922334D01*
X5011002Y-62922334D02*
X4963383Y-62969953D01*
X4963383Y-62969953D02*
X4915764Y-63065191D01*
X4915764Y-63065191D02*
X4915764Y-63208048D01*
X4915764Y-63208048D02*
X4963383Y-63303286D01*
X4963383Y-63303286D02*
X5058621Y-63350905D01*
X5058621Y-63350905D02*
X5582431Y-63350905D01*
X5582431Y-64255667D02*
X4582431Y-64255667D01*
X5534812Y-64255667D02*
X5582431Y-64160429D01*
X5582431Y-64160429D02*
X5582431Y-63969953D01*
X5582431Y-63969953D02*
X5534812Y-63874715D01*
X5534812Y-63874715D02*
X5487192Y-63827096D01*
X5487192Y-63827096D02*
X5391954Y-63779477D01*
X5391954Y-63779477D02*
X5106240Y-63779477D01*
X5106240Y-63779477D02*
X5011002Y-63827096D01*
X5011002Y-63827096D02*
X4963383Y-63874715D01*
X4963383Y-63874715D02*
X4915764Y-63969953D01*
X4915764Y-63969953D02*
X4915764Y-64160429D01*
X4915764Y-64160429D02*
X4963383Y-64255667D01*
X5582431Y-64874715D02*
X5534812Y-64779477D01*
X5534812Y-64779477D02*
X5439573Y-64731858D01*
X5439573Y-64731858D02*
X4582431Y-64731858D01*
X5582431Y-65255668D02*
X4915764Y-65255668D01*
X4582431Y-65255668D02*
X4630050Y-65208049D01*
X4630050Y-65208049D02*
X4677669Y-65255668D01*
X4677669Y-65255668D02*
X4630050Y-65303287D01*
X4630050Y-65303287D02*
X4582431Y-65255668D01*
X4582431Y-65255668D02*
X4677669Y-65255668D01*
X4915764Y-65731858D02*
X5582431Y-65731858D01*
X5011002Y-65731858D02*
X4963383Y-65779477D01*
X4963383Y-65779477D02*
X4915764Y-65874715D01*
X4915764Y-65874715D02*
X4915764Y-66017572D01*
X4915764Y-66017572D02*
X4963383Y-66112810D01*
X4963383Y-66112810D02*
X5058621Y-66160429D01*
X5058621Y-66160429D02*
X5582431Y-66160429D01*
X4915764Y-67065191D02*
X5725288Y-67065191D01*
X5725288Y-67065191D02*
X5820526Y-67017572D01*
X5820526Y-67017572D02*
X5868145Y-66969953D01*
X5868145Y-66969953D02*
X5915764Y-66874715D01*
X5915764Y-66874715D02*
X5915764Y-66731858D01*
X5915764Y-66731858D02*
X5868145Y-66636620D01*
X5534812Y-67065191D02*
X5582431Y-66969953D01*
X5582431Y-66969953D02*
X5582431Y-66779477D01*
X5582431Y-66779477D02*
X5534812Y-66684239D01*
X5534812Y-66684239D02*
X5487192Y-66636620D01*
X5487192Y-66636620D02*
X5391954Y-66589001D01*
X5391954Y-66589001D02*
X5106240Y-66589001D01*
X5106240Y-66589001D02*
X5011002Y-66636620D01*
X5011002Y-66636620D02*
X4963383Y-66684239D01*
X4963383Y-66684239D02*
X4915764Y-66779477D01*
X4915764Y-66779477D02*
X4915764Y-66969953D01*
X4915764Y-66969953D02*
X4963383Y-67065191D01*
X5582431Y-68446144D02*
X5534812Y-68350906D01*
X5534812Y-68350906D02*
X5487192Y-68303287D01*
X5487192Y-68303287D02*
X5391954Y-68255668D01*
X5391954Y-68255668D02*
X5106240Y-68255668D01*
X5106240Y-68255668D02*
X5011002Y-68303287D01*
X5011002Y-68303287D02*
X4963383Y-68350906D01*
X4963383Y-68350906D02*
X4915764Y-68446144D01*
X4915764Y-68446144D02*
X4915764Y-68589001D01*
X4915764Y-68589001D02*
X4963383Y-68684239D01*
X4963383Y-68684239D02*
X5011002Y-68731858D01*
X5011002Y-68731858D02*
X5106240Y-68779477D01*
X5106240Y-68779477D02*
X5391954Y-68779477D01*
X5391954Y-68779477D02*
X5487192Y-68731858D01*
X5487192Y-68731858D02*
X5534812Y-68684239D01*
X5534812Y-68684239D02*
X5582431Y-68589001D01*
X5582431Y-68589001D02*
X5582431Y-68446144D01*
X4915764Y-69065192D02*
X4915764Y-69446144D01*
X5582431Y-69208049D02*
X4725288Y-69208049D01*
X4725288Y-69208049D02*
X4630050Y-69255668D01*
X4630050Y-69255668D02*
X4582431Y-69350906D01*
X4582431Y-69350906D02*
X4582431Y-69446144D01*
X5582431Y-70684240D02*
X5534812Y-70589002D01*
X5534812Y-70589002D02*
X5439573Y-70541383D01*
X5439573Y-70541383D02*
X4582431Y-70541383D01*
X5582431Y-71065193D02*
X4915764Y-71065193D01*
X4582431Y-71065193D02*
X4630050Y-71017574D01*
X4630050Y-71017574D02*
X4677669Y-71065193D01*
X4677669Y-71065193D02*
X4630050Y-71112812D01*
X4630050Y-71112812D02*
X4582431Y-71065193D01*
X4582431Y-71065193D02*
X4677669Y-71065193D01*
X4915764Y-71398526D02*
X4915764Y-71779478D01*
X4582431Y-71541383D02*
X5439573Y-71541383D01*
X5439573Y-71541383D02*
X5534812Y-71589002D01*
X5534812Y-71589002D02*
X5582431Y-71684240D01*
X5582431Y-71684240D02*
X5582431Y-71779478D01*
X5582431Y-72112812D02*
X4582431Y-72112812D01*
X5582431Y-72541383D02*
X5058621Y-72541383D01*
X5058621Y-72541383D02*
X4963383Y-72493764D01*
X4963383Y-72493764D02*
X4915764Y-72398526D01*
X4915764Y-72398526D02*
X4915764Y-72255669D01*
X4915764Y-72255669D02*
X4963383Y-72160431D01*
X4963383Y-72160431D02*
X5011002Y-72112812D01*
X5582431Y-73017574D02*
X4915764Y-73017574D01*
X4582431Y-73017574D02*
X4630050Y-72969955D01*
X4630050Y-72969955D02*
X4677669Y-73017574D01*
X4677669Y-73017574D02*
X4630050Y-73065193D01*
X4630050Y-73065193D02*
X4582431Y-73017574D01*
X4582431Y-73017574D02*
X4677669Y-73017574D01*
X4915764Y-73922335D02*
X5582431Y-73922335D01*
X4915764Y-73493764D02*
X5439573Y-73493764D01*
X5439573Y-73493764D02*
X5534812Y-73541383D01*
X5534812Y-73541383D02*
X5582431Y-73636621D01*
X5582431Y-73636621D02*
X5582431Y-73779478D01*
X5582431Y-73779478D02*
X5534812Y-73874716D01*
X5534812Y-73874716D02*
X5487192Y-73922335D01*
X5582431Y-74398526D02*
X4915764Y-74398526D01*
X5011002Y-74398526D02*
X4963383Y-74446145D01*
X4963383Y-74446145D02*
X4915764Y-74541383D01*
X4915764Y-74541383D02*
X4915764Y-74684240D01*
X4915764Y-74684240D02*
X4963383Y-74779478D01*
X4963383Y-74779478D02*
X5058621Y-74827097D01*
X5058621Y-74827097D02*
X5582431Y-74827097D01*
X5058621Y-74827097D02*
X4963383Y-74874716D01*
X4963383Y-74874716D02*
X4915764Y-74969954D01*
X4915764Y-74969954D02*
X4915764Y-75112811D01*
X4915764Y-75112811D02*
X4963383Y-75208050D01*
X4963383Y-75208050D02*
X5058621Y-75255669D01*
X5058621Y-75255669D02*
X5582431Y-75255669D01*
X5201478Y-75731859D02*
X5201478Y-76493764D01*
X5582431Y-76969954D02*
X4915764Y-76969954D01*
X4582431Y-76969954D02*
X4630050Y-76922335D01*
X4630050Y-76922335D02*
X4677669Y-76969954D01*
X4677669Y-76969954D02*
X4630050Y-77017573D01*
X4630050Y-77017573D02*
X4582431Y-76969954D01*
X4582431Y-76969954D02*
X4677669Y-76969954D01*
X5582431Y-77589001D02*
X5534812Y-77493763D01*
X5534812Y-77493763D02*
X5487192Y-77446144D01*
X5487192Y-77446144D02*
X5391954Y-77398525D01*
X5391954Y-77398525D02*
X5106240Y-77398525D01*
X5106240Y-77398525D02*
X5011002Y-77446144D01*
X5011002Y-77446144D02*
X4963383Y-77493763D01*
X4963383Y-77493763D02*
X4915764Y-77589001D01*
X4915764Y-77589001D02*
X4915764Y-77731858D01*
X4915764Y-77731858D02*
X4963383Y-77827096D01*
X4963383Y-77827096D02*
X5011002Y-77874715D01*
X5011002Y-77874715D02*
X5106240Y-77922334D01*
X5106240Y-77922334D02*
X5391954Y-77922334D01*
X5391954Y-77922334D02*
X5487192Y-77874715D01*
X5487192Y-77874715D02*
X5534812Y-77827096D01*
X5534812Y-77827096D02*
X5582431Y-77731858D01*
X5582431Y-77731858D02*
X5582431Y-77589001D01*
X4915764Y-78350906D02*
X5582431Y-78350906D01*
X5011002Y-78350906D02*
X4963383Y-78398525D01*
X4963383Y-78398525D02*
X4915764Y-78493763D01*
X4915764Y-78493763D02*
X4915764Y-78636620D01*
X4915764Y-78636620D02*
X4963383Y-78731858D01*
X4963383Y-78731858D02*
X5058621Y-78779477D01*
X5058621Y-78779477D02*
X5582431Y-78779477D01*
X5534812Y-80446144D02*
X5582431Y-80350906D01*
X5582431Y-80350906D02*
X5582431Y-80160430D01*
X5582431Y-80160430D02*
X5534812Y-80065192D01*
X5534812Y-80065192D02*
X5487192Y-80017573D01*
X5487192Y-80017573D02*
X5391954Y-79969954D01*
X5391954Y-79969954D02*
X5106240Y-79969954D01*
X5106240Y-79969954D02*
X5011002Y-80017573D01*
X5011002Y-80017573D02*
X4963383Y-80065192D01*
X4963383Y-80065192D02*
X4915764Y-80160430D01*
X4915764Y-80160430D02*
X4915764Y-80350906D01*
X4915764Y-80350906D02*
X4963383Y-80446144D01*
X5534812Y-81255668D02*
X5582431Y-81160430D01*
X5582431Y-81160430D02*
X5582431Y-80969954D01*
X5582431Y-80969954D02*
X5534812Y-80874716D01*
X5534812Y-80874716D02*
X5439573Y-80827097D01*
X5439573Y-80827097D02*
X5058621Y-80827097D01*
X5058621Y-80827097D02*
X4963383Y-80874716D01*
X4963383Y-80874716D02*
X4915764Y-80969954D01*
X4915764Y-80969954D02*
X4915764Y-81160430D01*
X4915764Y-81160430D02*
X4963383Y-81255668D01*
X4963383Y-81255668D02*
X5058621Y-81303287D01*
X5058621Y-81303287D02*
X5153859Y-81303287D01*
X5153859Y-81303287D02*
X5249097Y-80827097D01*
X5582431Y-81874716D02*
X5534812Y-81779478D01*
X5534812Y-81779478D02*
X5439573Y-81731859D01*
X5439573Y-81731859D02*
X4582431Y-81731859D01*
X5582431Y-82398526D02*
X5534812Y-82303288D01*
X5534812Y-82303288D02*
X5439573Y-82255669D01*
X5439573Y-82255669D02*
X4582431Y-82255669D01*
X5534812Y-82731860D02*
X5582431Y-82827098D01*
X5582431Y-82827098D02*
X5582431Y-83017574D01*
X5582431Y-83017574D02*
X5534812Y-83112812D01*
X5534812Y-83112812D02*
X5439573Y-83160431D01*
X5439573Y-83160431D02*
X5391954Y-83160431D01*
X5391954Y-83160431D02*
X5296716Y-83112812D01*
X5296716Y-83112812D02*
X5249097Y-83017574D01*
X5249097Y-83017574D02*
X5249097Y-82874717D01*
X5249097Y-82874717D02*
X5201478Y-82779479D01*
X5201478Y-82779479D02*
X5106240Y-82731860D01*
X5106240Y-82731860D02*
X5058621Y-82731860D01*
X5058621Y-82731860D02*
X4963383Y-82779479D01*
X4963383Y-82779479D02*
X4915764Y-82874717D01*
X4915764Y-82874717D02*
X4915764Y-83017574D01*
X4915764Y-83017574D02*
X4963383Y-83112812D01*
X5487192Y-83589003D02*
X5534812Y-83636622D01*
X5534812Y-83636622D02*
X5582431Y-83589003D01*
X5582431Y-83589003D02*
X5534812Y-83541384D01*
X5534812Y-83541384D02*
X5487192Y-83589003D01*
X5487192Y-83589003D02*
X5582431Y-83589003D01*
X7192375Y-20303281D02*
X6192375Y-20303281D01*
X6192375Y-20303281D02*
X6906660Y-20636614D01*
X6906660Y-20636614D02*
X6192375Y-20969947D01*
X6192375Y-20969947D02*
X7192375Y-20969947D01*
X7192375Y-21446138D02*
X6525708Y-21446138D01*
X6192375Y-21446138D02*
X6239994Y-21398519D01*
X6239994Y-21398519D02*
X6287613Y-21446138D01*
X6287613Y-21446138D02*
X6239994Y-21493757D01*
X6239994Y-21493757D02*
X6192375Y-21446138D01*
X6192375Y-21446138D02*
X6287613Y-21446138D01*
X7144756Y-21874709D02*
X7192375Y-21969947D01*
X7192375Y-21969947D02*
X7192375Y-22160423D01*
X7192375Y-22160423D02*
X7144756Y-22255661D01*
X7144756Y-22255661D02*
X7049517Y-22303280D01*
X7049517Y-22303280D02*
X7001898Y-22303280D01*
X7001898Y-22303280D02*
X6906660Y-22255661D01*
X6906660Y-22255661D02*
X6859041Y-22160423D01*
X6859041Y-22160423D02*
X6859041Y-22017566D01*
X6859041Y-22017566D02*
X6811422Y-21922328D01*
X6811422Y-21922328D02*
X6716184Y-21874709D01*
X6716184Y-21874709D02*
X6668565Y-21874709D01*
X6668565Y-21874709D02*
X6573327Y-21922328D01*
X6573327Y-21922328D02*
X6525708Y-22017566D01*
X6525708Y-22017566D02*
X6525708Y-22160423D01*
X6525708Y-22160423D02*
X6573327Y-22255661D01*
X6525708Y-23160423D02*
X7192375Y-23160423D01*
X6525708Y-22731852D02*
X7049517Y-22731852D01*
X7049517Y-22731852D02*
X7144756Y-22779471D01*
X7144756Y-22779471D02*
X7192375Y-22874709D01*
X7192375Y-22874709D02*
X7192375Y-23017566D01*
X7192375Y-23017566D02*
X7144756Y-23112804D01*
X7144756Y-23112804D02*
X7097136Y-23160423D01*
X7144756Y-23588995D02*
X7192375Y-23684233D01*
X7192375Y-23684233D02*
X7192375Y-23874709D01*
X7192375Y-23874709D02*
X7144756Y-23969947D01*
X7144756Y-23969947D02*
X7049517Y-24017566D01*
X7049517Y-24017566D02*
X7001898Y-24017566D01*
X7001898Y-24017566D02*
X6906660Y-23969947D01*
X6906660Y-23969947D02*
X6859041Y-23874709D01*
X6859041Y-23874709D02*
X6859041Y-23731852D01*
X6859041Y-23731852D02*
X6811422Y-23636614D01*
X6811422Y-23636614D02*
X6716184Y-23588995D01*
X6716184Y-23588995D02*
X6668565Y-23588995D01*
X6668565Y-23588995D02*
X6573327Y-23636614D01*
X6573327Y-23636614D02*
X6525708Y-23731852D01*
X6525708Y-23731852D02*
X6525708Y-23874709D01*
X6525708Y-23874709D02*
X6573327Y-23969947D01*
X7144756Y-24827090D02*
X7192375Y-24731852D01*
X7192375Y-24731852D02*
X7192375Y-24541376D01*
X7192375Y-24541376D02*
X7144756Y-24446138D01*
X7144756Y-24446138D02*
X7049517Y-24398519D01*
X7049517Y-24398519D02*
X6668565Y-24398519D01*
X6668565Y-24398519D02*
X6573327Y-24446138D01*
X6573327Y-24446138D02*
X6525708Y-24541376D01*
X6525708Y-24541376D02*
X6525708Y-24731852D01*
X6525708Y-24731852D02*
X6573327Y-24827090D01*
X6573327Y-24827090D02*
X6668565Y-24874709D01*
X6668565Y-24874709D02*
X6763803Y-24874709D01*
X6763803Y-24874709D02*
X6859041Y-24398519D01*
X7192375Y-26065186D02*
X6525708Y-26065186D01*
X6620946Y-26065186D02*
X6573327Y-26112805D01*
X6573327Y-26112805D02*
X6525708Y-26208043D01*
X6525708Y-26208043D02*
X6525708Y-26350900D01*
X6525708Y-26350900D02*
X6573327Y-26446138D01*
X6573327Y-26446138D02*
X6668565Y-26493757D01*
X6668565Y-26493757D02*
X7192375Y-26493757D01*
X6668565Y-26493757D02*
X6573327Y-26541376D01*
X6573327Y-26541376D02*
X6525708Y-26636614D01*
X6525708Y-26636614D02*
X6525708Y-26779471D01*
X6525708Y-26779471D02*
X6573327Y-26874710D01*
X6573327Y-26874710D02*
X6668565Y-26922329D01*
X6668565Y-26922329D02*
X7192375Y-26922329D01*
X7192375Y-27827090D02*
X6668565Y-27827090D01*
X6668565Y-27827090D02*
X6573327Y-27779471D01*
X6573327Y-27779471D02*
X6525708Y-27684233D01*
X6525708Y-27684233D02*
X6525708Y-27493757D01*
X6525708Y-27493757D02*
X6573327Y-27398519D01*
X7144756Y-27827090D02*
X7192375Y-27731852D01*
X7192375Y-27731852D02*
X7192375Y-27493757D01*
X7192375Y-27493757D02*
X7144756Y-27398519D01*
X7144756Y-27398519D02*
X7049517Y-27350900D01*
X7049517Y-27350900D02*
X6954279Y-27350900D01*
X6954279Y-27350900D02*
X6859041Y-27398519D01*
X6859041Y-27398519D02*
X6811422Y-27493757D01*
X6811422Y-27493757D02*
X6811422Y-27731852D01*
X6811422Y-27731852D02*
X6763803Y-27827090D01*
X6525708Y-28208043D02*
X7192375Y-28446138D01*
X6525708Y-28684233D02*
X7192375Y-28446138D01*
X7192375Y-28446138D02*
X7430470Y-28350900D01*
X7430470Y-28350900D02*
X7478089Y-28303281D01*
X7478089Y-28303281D02*
X7525708Y-28208043D01*
X7144756Y-30255662D02*
X7192375Y-30160424D01*
X7192375Y-30160424D02*
X7192375Y-29969948D01*
X7192375Y-29969948D02*
X7144756Y-29874710D01*
X7144756Y-29874710D02*
X7097136Y-29827091D01*
X7097136Y-29827091D02*
X7001898Y-29779472D01*
X7001898Y-29779472D02*
X6716184Y-29779472D01*
X6716184Y-29779472D02*
X6620946Y-29827091D01*
X6620946Y-29827091D02*
X6573327Y-29874710D01*
X6573327Y-29874710D02*
X6525708Y-29969948D01*
X6525708Y-29969948D02*
X6525708Y-30160424D01*
X6525708Y-30160424D02*
X6573327Y-30255662D01*
X7192375Y-31112805D02*
X6668565Y-31112805D01*
X6668565Y-31112805D02*
X6573327Y-31065186D01*
X6573327Y-31065186D02*
X6525708Y-30969948D01*
X6525708Y-30969948D02*
X6525708Y-30779472D01*
X6525708Y-30779472D02*
X6573327Y-30684234D01*
X7144756Y-31112805D02*
X7192375Y-31017567D01*
X7192375Y-31017567D02*
X7192375Y-30779472D01*
X7192375Y-30779472D02*
X7144756Y-30684234D01*
X7144756Y-30684234D02*
X7049517Y-30636615D01*
X7049517Y-30636615D02*
X6954279Y-30636615D01*
X6954279Y-30636615D02*
X6859041Y-30684234D01*
X6859041Y-30684234D02*
X6811422Y-30779472D01*
X6811422Y-30779472D02*
X6811422Y-31017567D01*
X6811422Y-31017567D02*
X6763803Y-31112805D01*
X6525708Y-32017567D02*
X7192375Y-32017567D01*
X6525708Y-31588996D02*
X7049517Y-31588996D01*
X7049517Y-31588996D02*
X7144756Y-31636615D01*
X7144756Y-31636615D02*
X7192375Y-31731853D01*
X7192375Y-31731853D02*
X7192375Y-31874710D01*
X7192375Y-31874710D02*
X7144756Y-31969948D01*
X7144756Y-31969948D02*
X7097136Y-32017567D01*
X7144756Y-32446139D02*
X7192375Y-32541377D01*
X7192375Y-32541377D02*
X7192375Y-32731853D01*
X7192375Y-32731853D02*
X7144756Y-32827091D01*
X7144756Y-32827091D02*
X7049517Y-32874710D01*
X7049517Y-32874710D02*
X7001898Y-32874710D01*
X7001898Y-32874710D02*
X6906660Y-32827091D01*
X6906660Y-32827091D02*
X6859041Y-32731853D01*
X6859041Y-32731853D02*
X6859041Y-32588996D01*
X6859041Y-32588996D02*
X6811422Y-32493758D01*
X6811422Y-32493758D02*
X6716184Y-32446139D01*
X6716184Y-32446139D02*
X6668565Y-32446139D01*
X6668565Y-32446139D02*
X6573327Y-32493758D01*
X6573327Y-32493758D02*
X6525708Y-32588996D01*
X6525708Y-32588996D02*
X6525708Y-32731853D01*
X6525708Y-32731853D02*
X6573327Y-32827091D01*
X7144756Y-33684234D02*
X7192375Y-33588996D01*
X7192375Y-33588996D02*
X7192375Y-33398520D01*
X7192375Y-33398520D02*
X7144756Y-33303282D01*
X7144756Y-33303282D02*
X7049517Y-33255663D01*
X7049517Y-33255663D02*
X6668565Y-33255663D01*
X6668565Y-33255663D02*
X6573327Y-33303282D01*
X6573327Y-33303282D02*
X6525708Y-33398520D01*
X6525708Y-33398520D02*
X6525708Y-33588996D01*
X6525708Y-33588996D02*
X6573327Y-33684234D01*
X6573327Y-33684234D02*
X6668565Y-33731853D01*
X6668565Y-33731853D02*
X6763803Y-33731853D01*
X6763803Y-33731853D02*
X6859041Y-33255663D01*
X6525708Y-34779473D02*
X6525708Y-35160425D01*
X7192375Y-34922330D02*
X6335232Y-34922330D01*
X6335232Y-34922330D02*
X6239994Y-34969949D01*
X6239994Y-34969949D02*
X6192375Y-35065187D01*
X6192375Y-35065187D02*
X6192375Y-35160425D01*
X7192375Y-35493759D02*
X6525708Y-35493759D01*
X6192375Y-35493759D02*
X6239994Y-35446140D01*
X6239994Y-35446140D02*
X6287613Y-35493759D01*
X6287613Y-35493759D02*
X6239994Y-35541378D01*
X6239994Y-35541378D02*
X6192375Y-35493759D01*
X6192375Y-35493759D02*
X6287613Y-35493759D01*
X7192375Y-35969949D02*
X6525708Y-35969949D01*
X6716184Y-35969949D02*
X6620946Y-36017568D01*
X6620946Y-36017568D02*
X6573327Y-36065187D01*
X6573327Y-36065187D02*
X6525708Y-36160425D01*
X6525708Y-36160425D02*
X6525708Y-36255663D01*
X7144756Y-36969949D02*
X7192375Y-36874711D01*
X7192375Y-36874711D02*
X7192375Y-36684235D01*
X7192375Y-36684235D02*
X7144756Y-36588997D01*
X7144756Y-36588997D02*
X7049517Y-36541378D01*
X7049517Y-36541378D02*
X6668565Y-36541378D01*
X6668565Y-36541378D02*
X6573327Y-36588997D01*
X6573327Y-36588997D02*
X6525708Y-36684235D01*
X6525708Y-36684235D02*
X6525708Y-36874711D01*
X6525708Y-36874711D02*
X6573327Y-36969949D01*
X6573327Y-36969949D02*
X6668565Y-37017568D01*
X6668565Y-37017568D02*
X6763803Y-37017568D01*
X6763803Y-37017568D02*
X6859041Y-36541378D01*
X7144756Y-37493759D02*
X7192375Y-37493759D01*
X7192375Y-37493759D02*
X7287613Y-37446140D01*
X7287613Y-37446140D02*
X7335232Y-37398521D01*
X7192375Y-38684235D02*
X6525708Y-38684235D01*
X6192375Y-38684235D02*
X6239994Y-38636616D01*
X6239994Y-38636616D02*
X6287613Y-38684235D01*
X6287613Y-38684235D02*
X6239994Y-38731854D01*
X6239994Y-38731854D02*
X6192375Y-38684235D01*
X6192375Y-38684235D02*
X6287613Y-38684235D01*
X6525708Y-39160425D02*
X7192375Y-39160425D01*
X6620946Y-39160425D02*
X6573327Y-39208044D01*
X6573327Y-39208044D02*
X6525708Y-39303282D01*
X6525708Y-39303282D02*
X6525708Y-39446139D01*
X6525708Y-39446139D02*
X6573327Y-39541377D01*
X6573327Y-39541377D02*
X6668565Y-39588996D01*
X6668565Y-39588996D02*
X7192375Y-39588996D01*
X6525708Y-40065187D02*
X7382851Y-40065187D01*
X7382851Y-40065187D02*
X7478089Y-40017568D01*
X7478089Y-40017568D02*
X7525708Y-39922330D01*
X7525708Y-39922330D02*
X7525708Y-39874711D01*
X6192375Y-40065187D02*
X6239994Y-40017568D01*
X6239994Y-40017568D02*
X6287613Y-40065187D01*
X6287613Y-40065187D02*
X6239994Y-40112806D01*
X6239994Y-40112806D02*
X6192375Y-40065187D01*
X6192375Y-40065187D02*
X6287613Y-40065187D01*
X6525708Y-40969948D02*
X7192375Y-40969948D01*
X6525708Y-40541377D02*
X7049517Y-40541377D01*
X7049517Y-40541377D02*
X7144756Y-40588996D01*
X7144756Y-40588996D02*
X7192375Y-40684234D01*
X7192375Y-40684234D02*
X7192375Y-40827091D01*
X7192375Y-40827091D02*
X7144756Y-40922329D01*
X7144756Y-40922329D02*
X7097136Y-40969948D01*
X7192375Y-41446139D02*
X6525708Y-41446139D01*
X6716184Y-41446139D02*
X6620946Y-41493758D01*
X6620946Y-41493758D02*
X6573327Y-41541377D01*
X6573327Y-41541377D02*
X6525708Y-41636615D01*
X6525708Y-41636615D02*
X6525708Y-41731853D01*
X6525708Y-41969949D02*
X7192375Y-42208044D01*
X6525708Y-42446139D02*
X7192375Y-42208044D01*
X7192375Y-42208044D02*
X7430470Y-42112806D01*
X7430470Y-42112806D02*
X7478089Y-42065187D01*
X7478089Y-42065187D02*
X7525708Y-41969949D01*
X7144756Y-42874711D02*
X7192375Y-42874711D01*
X7192375Y-42874711D02*
X7287613Y-42827092D01*
X7287613Y-42827092D02*
X7335232Y-42779473D01*
X7192375Y-44208044D02*
X7144756Y-44112806D01*
X7144756Y-44112806D02*
X7097136Y-44065187D01*
X7097136Y-44065187D02*
X7001898Y-44017568D01*
X7001898Y-44017568D02*
X6716184Y-44017568D01*
X6716184Y-44017568D02*
X6620946Y-44065187D01*
X6620946Y-44065187D02*
X6573327Y-44112806D01*
X6573327Y-44112806D02*
X6525708Y-44208044D01*
X6525708Y-44208044D02*
X6525708Y-44350901D01*
X6525708Y-44350901D02*
X6573327Y-44446139D01*
X6573327Y-44446139D02*
X6620946Y-44493758D01*
X6620946Y-44493758D02*
X6716184Y-44541377D01*
X6716184Y-44541377D02*
X7001898Y-44541377D01*
X7001898Y-44541377D02*
X7097136Y-44493758D01*
X7097136Y-44493758D02*
X7144756Y-44446139D01*
X7144756Y-44446139D02*
X7192375Y-44350901D01*
X7192375Y-44350901D02*
X7192375Y-44208044D01*
X7192375Y-44969949D02*
X6525708Y-44969949D01*
X6716184Y-44969949D02*
X6620946Y-45017568D01*
X6620946Y-45017568D02*
X6573327Y-45065187D01*
X6573327Y-45065187D02*
X6525708Y-45160425D01*
X6525708Y-45160425D02*
X6525708Y-45255663D01*
X7192375Y-46779473D02*
X6192375Y-46779473D01*
X7144756Y-46779473D02*
X7192375Y-46684235D01*
X7192375Y-46684235D02*
X7192375Y-46493759D01*
X7192375Y-46493759D02*
X7144756Y-46398521D01*
X7144756Y-46398521D02*
X7097136Y-46350902D01*
X7097136Y-46350902D02*
X7001898Y-46303283D01*
X7001898Y-46303283D02*
X6716184Y-46303283D01*
X6716184Y-46303283D02*
X6620946Y-46350902D01*
X6620946Y-46350902D02*
X6573327Y-46398521D01*
X6573327Y-46398521D02*
X6525708Y-46493759D01*
X6525708Y-46493759D02*
X6525708Y-46684235D01*
X6525708Y-46684235D02*
X6573327Y-46779473D01*
X7192375Y-47684235D02*
X6668565Y-47684235D01*
X6668565Y-47684235D02*
X6573327Y-47636616D01*
X6573327Y-47636616D02*
X6525708Y-47541378D01*
X6525708Y-47541378D02*
X6525708Y-47350902D01*
X6525708Y-47350902D02*
X6573327Y-47255664D01*
X7144756Y-47684235D02*
X7192375Y-47588997D01*
X7192375Y-47588997D02*
X7192375Y-47350902D01*
X7192375Y-47350902D02*
X7144756Y-47255664D01*
X7144756Y-47255664D02*
X7049517Y-47208045D01*
X7049517Y-47208045D02*
X6954279Y-47208045D01*
X6954279Y-47208045D02*
X6859041Y-47255664D01*
X6859041Y-47255664D02*
X6811422Y-47350902D01*
X6811422Y-47350902D02*
X6811422Y-47588997D01*
X6811422Y-47588997D02*
X6763803Y-47684235D01*
X7192375Y-48160426D02*
X6525708Y-48160426D01*
X6620946Y-48160426D02*
X6573327Y-48208045D01*
X6573327Y-48208045D02*
X6525708Y-48303283D01*
X6525708Y-48303283D02*
X6525708Y-48446140D01*
X6525708Y-48446140D02*
X6573327Y-48541378D01*
X6573327Y-48541378D02*
X6668565Y-48588997D01*
X6668565Y-48588997D02*
X7192375Y-48588997D01*
X6668565Y-48588997D02*
X6573327Y-48636616D01*
X6573327Y-48636616D02*
X6525708Y-48731854D01*
X6525708Y-48731854D02*
X6525708Y-48874711D01*
X6525708Y-48874711D02*
X6573327Y-48969950D01*
X6573327Y-48969950D02*
X6668565Y-49017569D01*
X6668565Y-49017569D02*
X7192375Y-49017569D01*
X7192375Y-49922330D02*
X6668565Y-49922330D01*
X6668565Y-49922330D02*
X6573327Y-49874711D01*
X6573327Y-49874711D02*
X6525708Y-49779473D01*
X6525708Y-49779473D02*
X6525708Y-49588997D01*
X6525708Y-49588997D02*
X6573327Y-49493759D01*
X7144756Y-49922330D02*
X7192375Y-49827092D01*
X7192375Y-49827092D02*
X7192375Y-49588997D01*
X7192375Y-49588997D02*
X7144756Y-49493759D01*
X7144756Y-49493759D02*
X7049517Y-49446140D01*
X7049517Y-49446140D02*
X6954279Y-49446140D01*
X6954279Y-49446140D02*
X6859041Y-49493759D01*
X6859041Y-49493759D02*
X6811422Y-49588997D01*
X6811422Y-49588997D02*
X6811422Y-49827092D01*
X6811422Y-49827092D02*
X6763803Y-49922330D01*
X6525708Y-50827092D02*
X7335232Y-50827092D01*
X7335232Y-50827092D02*
X7430470Y-50779473D01*
X7430470Y-50779473D02*
X7478089Y-50731854D01*
X7478089Y-50731854D02*
X7525708Y-50636616D01*
X7525708Y-50636616D02*
X7525708Y-50493759D01*
X7525708Y-50493759D02*
X7478089Y-50398521D01*
X7144756Y-50827092D02*
X7192375Y-50731854D01*
X7192375Y-50731854D02*
X7192375Y-50541378D01*
X7192375Y-50541378D02*
X7144756Y-50446140D01*
X7144756Y-50446140D02*
X7097136Y-50398521D01*
X7097136Y-50398521D02*
X7001898Y-50350902D01*
X7001898Y-50350902D02*
X6716184Y-50350902D01*
X6716184Y-50350902D02*
X6620946Y-50398521D01*
X6620946Y-50398521D02*
X6573327Y-50446140D01*
X6573327Y-50446140D02*
X6525708Y-50541378D01*
X6525708Y-50541378D02*
X6525708Y-50731854D01*
X6525708Y-50731854D02*
X6573327Y-50827092D01*
X7144756Y-51684235D02*
X7192375Y-51588997D01*
X7192375Y-51588997D02*
X7192375Y-51398521D01*
X7192375Y-51398521D02*
X7144756Y-51303283D01*
X7144756Y-51303283D02*
X7049517Y-51255664D01*
X7049517Y-51255664D02*
X6668565Y-51255664D01*
X6668565Y-51255664D02*
X6573327Y-51303283D01*
X6573327Y-51303283D02*
X6525708Y-51398521D01*
X6525708Y-51398521D02*
X6525708Y-51588997D01*
X6525708Y-51588997D02*
X6573327Y-51684235D01*
X6573327Y-51684235D02*
X6668565Y-51731854D01*
X6668565Y-51731854D02*
X6763803Y-51731854D01*
X6763803Y-51731854D02*
X6859041Y-51255664D01*
X7097136Y-52160426D02*
X7144756Y-52208045D01*
X7144756Y-52208045D02*
X7192375Y-52160426D01*
X7192375Y-52160426D02*
X7144756Y-52112807D01*
X7144756Y-52112807D02*
X7097136Y-52160426D01*
X7097136Y-52160426D02*
X7192375Y-52160426D01*
X6192375Y-53588997D02*
X6192375Y-53779473D01*
X6192375Y-53779473D02*
X6239994Y-53874711D01*
X6239994Y-53874711D02*
X6335232Y-53969949D01*
X6335232Y-53969949D02*
X6525708Y-54017568D01*
X6525708Y-54017568D02*
X6859041Y-54017568D01*
X6859041Y-54017568D02*
X7049517Y-53969949D01*
X7049517Y-53969949D02*
X7144756Y-53874711D01*
X7144756Y-53874711D02*
X7192375Y-53779473D01*
X7192375Y-53779473D02*
X7192375Y-53588997D01*
X7192375Y-53588997D02*
X7144756Y-53493759D01*
X7144756Y-53493759D02*
X7049517Y-53398521D01*
X7049517Y-53398521D02*
X6859041Y-53350902D01*
X6859041Y-53350902D02*
X6525708Y-53350902D01*
X6525708Y-53350902D02*
X6335232Y-53398521D01*
X6335232Y-53398521D02*
X6239994Y-53493759D01*
X6239994Y-53493759D02*
X6192375Y-53588997D01*
X6525708Y-54446140D02*
X7192375Y-54446140D01*
X6620946Y-54446140D02*
X6573327Y-54493759D01*
X6573327Y-54493759D02*
X6525708Y-54588997D01*
X6525708Y-54588997D02*
X6525708Y-54731854D01*
X6525708Y-54731854D02*
X6573327Y-54827092D01*
X6573327Y-54827092D02*
X6668565Y-54874711D01*
X6668565Y-54874711D02*
X7192375Y-54874711D01*
X7192375Y-55493759D02*
X7144756Y-55398521D01*
X7144756Y-55398521D02*
X7049517Y-55350902D01*
X7049517Y-55350902D02*
X6192375Y-55350902D01*
X6525708Y-55779474D02*
X7192375Y-56017569D01*
X6525708Y-56255664D02*
X7192375Y-56017569D01*
X7192375Y-56017569D02*
X7430470Y-55922331D01*
X7430470Y-55922331D02*
X7478089Y-55874712D01*
X7478089Y-55874712D02*
X7525708Y-55779474D01*
X6525708Y-57255665D02*
X6525708Y-57636617D01*
X7192375Y-57398522D02*
X6335232Y-57398522D01*
X6335232Y-57398522D02*
X6239994Y-57446141D01*
X6239994Y-57446141D02*
X6192375Y-57541379D01*
X6192375Y-57541379D02*
X6192375Y-57636617D01*
X7192375Y-58112808D02*
X7144756Y-58017570D01*
X7144756Y-58017570D02*
X7097136Y-57969951D01*
X7097136Y-57969951D02*
X7001898Y-57922332D01*
X7001898Y-57922332D02*
X6716184Y-57922332D01*
X6716184Y-57922332D02*
X6620946Y-57969951D01*
X6620946Y-57969951D02*
X6573327Y-58017570D01*
X6573327Y-58017570D02*
X6525708Y-58112808D01*
X6525708Y-58112808D02*
X6525708Y-58255665D01*
X6525708Y-58255665D02*
X6573327Y-58350903D01*
X6573327Y-58350903D02*
X6620946Y-58398522D01*
X6620946Y-58398522D02*
X6716184Y-58446141D01*
X6716184Y-58446141D02*
X7001898Y-58446141D01*
X7001898Y-58446141D02*
X7097136Y-58398522D01*
X7097136Y-58398522D02*
X7144756Y-58350903D01*
X7144756Y-58350903D02*
X7192375Y-58255665D01*
X7192375Y-58255665D02*
X7192375Y-58112808D01*
X7192375Y-58874713D02*
X6525708Y-58874713D01*
X6716184Y-58874713D02*
X6620946Y-58922332D01*
X6620946Y-58922332D02*
X6573327Y-58969951D01*
X6573327Y-58969951D02*
X6525708Y-59065189D01*
X6525708Y-59065189D02*
X6525708Y-59160427D01*
X6525708Y-60684237D02*
X7192375Y-60684237D01*
X6525708Y-60255666D02*
X7049517Y-60255666D01*
X7049517Y-60255666D02*
X7144756Y-60303285D01*
X7144756Y-60303285D02*
X7192375Y-60398523D01*
X7192375Y-60398523D02*
X7192375Y-60541380D01*
X7192375Y-60541380D02*
X7144756Y-60636618D01*
X7144756Y-60636618D02*
X7097136Y-60684237D01*
X7144756Y-61112809D02*
X7192375Y-61208047D01*
X7192375Y-61208047D02*
X7192375Y-61398523D01*
X7192375Y-61398523D02*
X7144756Y-61493761D01*
X7144756Y-61493761D02*
X7049517Y-61541380D01*
X7049517Y-61541380D02*
X7001898Y-61541380D01*
X7001898Y-61541380D02*
X6906660Y-61493761D01*
X6906660Y-61493761D02*
X6859041Y-61398523D01*
X6859041Y-61398523D02*
X6859041Y-61255666D01*
X6859041Y-61255666D02*
X6811422Y-61160428D01*
X6811422Y-61160428D02*
X6716184Y-61112809D01*
X6716184Y-61112809D02*
X6668565Y-61112809D01*
X6668565Y-61112809D02*
X6573327Y-61160428D01*
X6573327Y-61160428D02*
X6525708Y-61255666D01*
X6525708Y-61255666D02*
X6525708Y-61398523D01*
X6525708Y-61398523D02*
X6573327Y-61493761D01*
X7144756Y-62350904D02*
X7192375Y-62255666D01*
X7192375Y-62255666D02*
X7192375Y-62065190D01*
X7192375Y-62065190D02*
X7144756Y-61969952D01*
X7144756Y-61969952D02*
X7049517Y-61922333D01*
X7049517Y-61922333D02*
X6668565Y-61922333D01*
X6668565Y-61922333D02*
X6573327Y-61969952D01*
X6573327Y-61969952D02*
X6525708Y-62065190D01*
X6525708Y-62065190D02*
X6525708Y-62255666D01*
X6525708Y-62255666D02*
X6573327Y-62350904D01*
X6573327Y-62350904D02*
X6668565Y-62398523D01*
X6668565Y-62398523D02*
X6763803Y-62398523D01*
X6763803Y-62398523D02*
X6859041Y-61922333D01*
X6525708Y-63493762D02*
X7192375Y-63684238D01*
X7192375Y-63684238D02*
X6716184Y-63874714D01*
X6716184Y-63874714D02*
X7192375Y-64065190D01*
X7192375Y-64065190D02*
X6525708Y-64255666D01*
X7192375Y-64636619D02*
X6525708Y-64636619D01*
X6192375Y-64636619D02*
X6239994Y-64589000D01*
X6239994Y-64589000D02*
X6287613Y-64636619D01*
X6287613Y-64636619D02*
X6239994Y-64684238D01*
X6239994Y-64684238D02*
X6192375Y-64636619D01*
X6192375Y-64636619D02*
X6287613Y-64636619D01*
X6525708Y-64969952D02*
X6525708Y-65350904D01*
X6192375Y-65112809D02*
X7049517Y-65112809D01*
X7049517Y-65112809D02*
X7144756Y-65160428D01*
X7144756Y-65160428D02*
X7192375Y-65255666D01*
X7192375Y-65255666D02*
X7192375Y-65350904D01*
X7192375Y-65684238D02*
X6192375Y-65684238D01*
X7192375Y-66112809D02*
X6668565Y-66112809D01*
X6668565Y-66112809D02*
X6573327Y-66065190D01*
X6573327Y-66065190D02*
X6525708Y-65969952D01*
X6525708Y-65969952D02*
X6525708Y-65827095D01*
X6525708Y-65827095D02*
X6573327Y-65731857D01*
X6573327Y-65731857D02*
X6620946Y-65684238D01*
X6525708Y-67208048D02*
X6525708Y-67589000D01*
X6192375Y-67350905D02*
X7049517Y-67350905D01*
X7049517Y-67350905D02*
X7144756Y-67398524D01*
X7144756Y-67398524D02*
X7192375Y-67493762D01*
X7192375Y-67493762D02*
X7192375Y-67589000D01*
X7144756Y-68303286D02*
X7192375Y-68208048D01*
X7192375Y-68208048D02*
X7192375Y-68017572D01*
X7192375Y-68017572D02*
X7144756Y-67922334D01*
X7144756Y-67922334D02*
X7049517Y-67874715D01*
X7049517Y-67874715D02*
X6668565Y-67874715D01*
X6668565Y-67874715D02*
X6573327Y-67922334D01*
X6573327Y-67922334D02*
X6525708Y-68017572D01*
X6525708Y-68017572D02*
X6525708Y-68208048D01*
X6525708Y-68208048D02*
X6573327Y-68303286D01*
X6573327Y-68303286D02*
X6668565Y-68350905D01*
X6668565Y-68350905D02*
X6763803Y-68350905D01*
X6763803Y-68350905D02*
X6859041Y-67874715D01*
X7144756Y-68731858D02*
X7192375Y-68827096D01*
X7192375Y-68827096D02*
X7192375Y-69017572D01*
X7192375Y-69017572D02*
X7144756Y-69112810D01*
X7144756Y-69112810D02*
X7049517Y-69160429D01*
X7049517Y-69160429D02*
X7001898Y-69160429D01*
X7001898Y-69160429D02*
X6906660Y-69112810D01*
X6906660Y-69112810D02*
X6859041Y-69017572D01*
X6859041Y-69017572D02*
X6859041Y-68874715D01*
X6859041Y-68874715D02*
X6811422Y-68779477D01*
X6811422Y-68779477D02*
X6716184Y-68731858D01*
X6716184Y-68731858D02*
X6668565Y-68731858D01*
X6668565Y-68731858D02*
X6573327Y-68779477D01*
X6573327Y-68779477D02*
X6525708Y-68874715D01*
X6525708Y-68874715D02*
X6525708Y-69017572D01*
X6525708Y-69017572D02*
X6573327Y-69112810D01*
X6525708Y-69446144D02*
X6525708Y-69827096D01*
X6192375Y-69589001D02*
X7049517Y-69589001D01*
X7049517Y-69589001D02*
X7144756Y-69636620D01*
X7144756Y-69636620D02*
X7192375Y-69731858D01*
X7192375Y-69731858D02*
X7192375Y-69827096D01*
X7144756Y-70541382D02*
X7192375Y-70446144D01*
X7192375Y-70446144D02*
X7192375Y-70255668D01*
X7192375Y-70255668D02*
X7144756Y-70160430D01*
X7144756Y-70160430D02*
X7049517Y-70112811D01*
X7049517Y-70112811D02*
X6668565Y-70112811D01*
X6668565Y-70112811D02*
X6573327Y-70160430D01*
X6573327Y-70160430D02*
X6525708Y-70255668D01*
X6525708Y-70255668D02*
X6525708Y-70446144D01*
X6525708Y-70446144D02*
X6573327Y-70541382D01*
X6573327Y-70541382D02*
X6668565Y-70589001D01*
X6668565Y-70589001D02*
X6763803Y-70589001D01*
X6763803Y-70589001D02*
X6859041Y-70112811D01*
X7192375Y-71446144D02*
X6192375Y-71446144D01*
X7144756Y-71446144D02*
X7192375Y-71350906D01*
X7192375Y-71350906D02*
X7192375Y-71160430D01*
X7192375Y-71160430D02*
X7144756Y-71065192D01*
X7144756Y-71065192D02*
X7097136Y-71017573D01*
X7097136Y-71017573D02*
X7001898Y-70969954D01*
X7001898Y-70969954D02*
X6716184Y-70969954D01*
X6716184Y-70969954D02*
X6620946Y-71017573D01*
X6620946Y-71017573D02*
X6573327Y-71065192D01*
X6573327Y-71065192D02*
X6525708Y-71160430D01*
X6525708Y-71160430D02*
X6525708Y-71350906D01*
X6525708Y-71350906D02*
X6573327Y-71446144D01*
X7192375Y-73493764D02*
X7192375Y-73446145D01*
X7192375Y-73446145D02*
X7144756Y-73350906D01*
X7144756Y-73350906D02*
X7001898Y-73208049D01*
X7001898Y-73208049D02*
X6716184Y-72969954D01*
X6716184Y-72969954D02*
X6573327Y-72874716D01*
X6573327Y-72874716D02*
X6430470Y-72827097D01*
X6430470Y-72827097D02*
X6335232Y-72827097D01*
X6335232Y-72827097D02*
X6239994Y-72874716D01*
X6239994Y-72874716D02*
X6192375Y-72969954D01*
X6192375Y-72969954D02*
X6192375Y-73017573D01*
X6192375Y-73017573D02*
X6239994Y-73112811D01*
X6239994Y-73112811D02*
X6335232Y-73160430D01*
X6335232Y-73160430D02*
X6382851Y-73160430D01*
X6382851Y-73160430D02*
X6478089Y-73112811D01*
X6478089Y-73112811D02*
X6525708Y-73065192D01*
X6525708Y-73065192D02*
X6716184Y-72779478D01*
X6716184Y-72779478D02*
X6763803Y-72731859D01*
X6763803Y-72731859D02*
X6859041Y-72684240D01*
X6859041Y-72684240D02*
X7001898Y-72684240D01*
X7001898Y-72684240D02*
X7097136Y-72731859D01*
X7097136Y-72731859D02*
X7144756Y-72779478D01*
X7144756Y-72779478D02*
X7192375Y-72874716D01*
X7192375Y-72874716D02*
X7192375Y-73017573D01*
X7192375Y-73017573D02*
X7144756Y-73112811D01*
X7144756Y-73112811D02*
X7097136Y-73160430D01*
X7097136Y-73160430D02*
X6906660Y-73303287D01*
X6906660Y-73303287D02*
X6763803Y-73350906D01*
X6763803Y-73350906D02*
X6668565Y-73350906D01*
X7192375Y-74684240D02*
X6192375Y-74684240D01*
X7192375Y-75112811D02*
X6668565Y-75112811D01*
X6668565Y-75112811D02*
X6573327Y-75065192D01*
X6573327Y-75065192D02*
X6525708Y-74969954D01*
X6525708Y-74969954D02*
X6525708Y-74827097D01*
X6525708Y-74827097D02*
X6573327Y-74731859D01*
X6573327Y-74731859D02*
X6620946Y-74684240D01*
X7192375Y-75589002D02*
X6525708Y-75589002D01*
X6192375Y-75589002D02*
X6239994Y-75541383D01*
X6239994Y-75541383D02*
X6287613Y-75589002D01*
X6287613Y-75589002D02*
X6239994Y-75636621D01*
X6239994Y-75636621D02*
X6192375Y-75589002D01*
X6192375Y-75589002D02*
X6287613Y-75589002D01*
X6525708Y-76493763D02*
X7335232Y-76493763D01*
X7335232Y-76493763D02*
X7430470Y-76446144D01*
X7430470Y-76446144D02*
X7478089Y-76398525D01*
X7478089Y-76398525D02*
X7525708Y-76303287D01*
X7525708Y-76303287D02*
X7525708Y-76160430D01*
X7525708Y-76160430D02*
X7478089Y-76065192D01*
X7144756Y-76493763D02*
X7192375Y-76398525D01*
X7192375Y-76398525D02*
X7192375Y-76208049D01*
X7192375Y-76208049D02*
X7144756Y-76112811D01*
X7144756Y-76112811D02*
X7097136Y-76065192D01*
X7097136Y-76065192D02*
X7001898Y-76017573D01*
X7001898Y-76017573D02*
X6716184Y-76017573D01*
X6716184Y-76017573D02*
X6620946Y-76065192D01*
X6620946Y-76065192D02*
X6573327Y-76112811D01*
X6573327Y-76112811D02*
X6525708Y-76208049D01*
X6525708Y-76208049D02*
X6525708Y-76398525D01*
X6525708Y-76398525D02*
X6573327Y-76493763D01*
X7192375Y-76969954D02*
X6192375Y-76969954D01*
X7192375Y-77398525D02*
X6668565Y-77398525D01*
X6668565Y-77398525D02*
X6573327Y-77350906D01*
X6573327Y-77350906D02*
X6525708Y-77255668D01*
X6525708Y-77255668D02*
X6525708Y-77112811D01*
X6525708Y-77112811D02*
X6573327Y-77017573D01*
X6573327Y-77017573D02*
X6620946Y-76969954D01*
X6525708Y-79065192D02*
X7525708Y-79065192D01*
X7144756Y-79065192D02*
X7192375Y-78969954D01*
X7192375Y-78969954D02*
X7192375Y-78779478D01*
X7192375Y-78779478D02*
X7144756Y-78684240D01*
X7144756Y-78684240D02*
X7097136Y-78636621D01*
X7097136Y-78636621D02*
X7001898Y-78589002D01*
X7001898Y-78589002D02*
X6716184Y-78589002D01*
X6716184Y-78589002D02*
X6620946Y-78636621D01*
X6620946Y-78636621D02*
X6573327Y-78684240D01*
X6573327Y-78684240D02*
X6525708Y-78779478D01*
X6525708Y-78779478D02*
X6525708Y-78969954D01*
X6525708Y-78969954D02*
X6573327Y-79065192D01*
X6525708Y-79969954D02*
X7192375Y-79969954D01*
X6525708Y-79541383D02*
X7049517Y-79541383D01*
X7049517Y-79541383D02*
X7144756Y-79589002D01*
X7144756Y-79589002D02*
X7192375Y-79684240D01*
X7192375Y-79684240D02*
X7192375Y-79827097D01*
X7192375Y-79827097D02*
X7144756Y-79922335D01*
X7144756Y-79922335D02*
X7097136Y-79969954D01*
X7192375Y-80874716D02*
X6668565Y-80874716D01*
X6668565Y-80874716D02*
X6573327Y-80827097D01*
X6573327Y-80827097D02*
X6525708Y-80731859D01*
X6525708Y-80731859D02*
X6525708Y-80541383D01*
X6525708Y-80541383D02*
X6573327Y-80446145D01*
X7144756Y-80874716D02*
X7192375Y-80779478D01*
X7192375Y-80779478D02*
X7192375Y-80541383D01*
X7192375Y-80541383D02*
X7144756Y-80446145D01*
X7144756Y-80446145D02*
X7049517Y-80398526D01*
X7049517Y-80398526D02*
X6954279Y-80398526D01*
X6954279Y-80398526D02*
X6859041Y-80446145D01*
X6859041Y-80446145D02*
X6811422Y-80541383D01*
X6811422Y-80541383D02*
X6811422Y-80779478D01*
X6811422Y-80779478D02*
X6763803Y-80874716D01*
X7192375Y-81493764D02*
X7144756Y-81398526D01*
X7144756Y-81398526D02*
X7049517Y-81350907D01*
X7049517Y-81350907D02*
X6192375Y-81350907D01*
X7192375Y-81874717D02*
X6525708Y-81874717D01*
X6192375Y-81874717D02*
X6239994Y-81827098D01*
X6239994Y-81827098D02*
X6287613Y-81874717D01*
X6287613Y-81874717D02*
X6239994Y-81922336D01*
X6239994Y-81922336D02*
X6192375Y-81874717D01*
X6192375Y-81874717D02*
X6287613Y-81874717D01*
X6525708Y-82208050D02*
X6525708Y-82589002D01*
X6192375Y-82350907D02*
X7049517Y-82350907D01*
X7049517Y-82350907D02*
X7144756Y-82398526D01*
X7144756Y-82398526D02*
X7192375Y-82493764D01*
X7192375Y-82493764D02*
X7192375Y-82589002D01*
X6525708Y-82827098D02*
X7192375Y-83065193D01*
X6525708Y-83303288D02*
X7192375Y-83065193D01*
X7192375Y-83065193D02*
X7430470Y-82969955D01*
X7430470Y-82969955D02*
X7478089Y-82922336D01*
X7478089Y-82922336D02*
X7525708Y-82827098D01*
X7144756Y-84874717D02*
X7192375Y-84779479D01*
X7192375Y-84779479D02*
X7192375Y-84589003D01*
X7192375Y-84589003D02*
X7144756Y-84493765D01*
X7144756Y-84493765D02*
X7097136Y-84446146D01*
X7097136Y-84446146D02*
X7001898Y-84398527D01*
X7001898Y-84398527D02*
X6716184Y-84398527D01*
X6716184Y-84398527D02*
X6620946Y-84446146D01*
X6620946Y-84446146D02*
X6573327Y-84493765D01*
X6573327Y-84493765D02*
X6525708Y-84589003D01*
X6525708Y-84589003D02*
X6525708Y-84779479D01*
X6525708Y-84779479D02*
X6573327Y-84874717D01*
X7144756Y-85684241D02*
X7192375Y-85589003D01*
X7192375Y-85589003D02*
X7192375Y-85398527D01*
X7192375Y-85398527D02*
X7144756Y-85303289D01*
X7144756Y-85303289D02*
X7049517Y-85255670D01*
X7049517Y-85255670D02*
X6668565Y-85255670D01*
X6668565Y-85255670D02*
X6573327Y-85303289D01*
X6573327Y-85303289D02*
X6525708Y-85398527D01*
X6525708Y-85398527D02*
X6525708Y-85589003D01*
X6525708Y-85589003D02*
X6573327Y-85684241D01*
X6573327Y-85684241D02*
X6668565Y-85731860D01*
X6668565Y-85731860D02*
X6763803Y-85731860D01*
X6763803Y-85731860D02*
X6859041Y-85255670D01*
X7192375Y-86303289D02*
X7144756Y-86208051D01*
X7144756Y-86208051D02*
X7049517Y-86160432D01*
X7049517Y-86160432D02*
X6192375Y-86160432D01*
X7192375Y-86827099D02*
X7144756Y-86731861D01*
X7144756Y-86731861D02*
X7049517Y-86684242D01*
X7049517Y-86684242D02*
X6192375Y-86684242D01*
X7144756Y-87160433D02*
X7192375Y-87255671D01*
X7192375Y-87255671D02*
X7192375Y-87446147D01*
X7192375Y-87446147D02*
X7144756Y-87541385D01*
X7144756Y-87541385D02*
X7049517Y-87589004D01*
X7049517Y-87589004D02*
X7001898Y-87589004D01*
X7001898Y-87589004D02*
X6906660Y-87541385D01*
X6906660Y-87541385D02*
X6859041Y-87446147D01*
X6859041Y-87446147D02*
X6859041Y-87303290D01*
X6859041Y-87303290D02*
X6811422Y-87208052D01*
X6811422Y-87208052D02*
X6716184Y-87160433D01*
X6716184Y-87160433D02*
X6668565Y-87160433D01*
X6668565Y-87160433D02*
X6573327Y-87208052D01*
X6573327Y-87208052D02*
X6525708Y-87303290D01*
X6525708Y-87303290D02*
X6525708Y-87446147D01*
X6525708Y-87446147D02*
X6573327Y-87541385D01*
X7097136Y-88017576D02*
X7144756Y-88065195D01*
X7144756Y-88065195D02*
X7192375Y-88017576D01*
X7192375Y-88017576D02*
X7144756Y-87969957D01*
X7144756Y-87969957D02*
X7097136Y-88017576D01*
X7097136Y-88017576D02*
X7192375Y-88017576D01*
X8278509Y-23184232D02*
X8278509Y-22850899D01*
X8802319Y-22850899D02*
X7802319Y-22850899D01*
X7802319Y-22850899D02*
X7802319Y-23327089D01*
X8802319Y-23850899D02*
X8754700Y-23755661D01*
X8754700Y-23755661D02*
X8707080Y-23708042D01*
X8707080Y-23708042D02*
X8611842Y-23660423D01*
X8611842Y-23660423D02*
X8326128Y-23660423D01*
X8326128Y-23660423D02*
X8230890Y-23708042D01*
X8230890Y-23708042D02*
X8183271Y-23755661D01*
X8183271Y-23755661D02*
X8135652Y-23850899D01*
X8135652Y-23850899D02*
X8135652Y-23993756D01*
X8135652Y-23993756D02*
X8183271Y-24088994D01*
X8183271Y-24088994D02*
X8230890Y-24136613D01*
X8230890Y-24136613D02*
X8326128Y-24184232D01*
X8326128Y-24184232D02*
X8611842Y-24184232D01*
X8611842Y-24184232D02*
X8707080Y-24136613D01*
X8707080Y-24136613D02*
X8754700Y-24088994D01*
X8754700Y-24088994D02*
X8802319Y-23993756D01*
X8802319Y-23993756D02*
X8802319Y-23850899D01*
X8802319Y-24755661D02*
X8754700Y-24660423D01*
X8754700Y-24660423D02*
X8659461Y-24612804D01*
X8659461Y-24612804D02*
X7802319Y-24612804D01*
X8802319Y-25279471D02*
X8754700Y-25184233D01*
X8754700Y-25184233D02*
X8659461Y-25136614D01*
X8659461Y-25136614D02*
X7802319Y-25136614D01*
X8802319Y-25803281D02*
X8754700Y-25708043D01*
X8754700Y-25708043D02*
X8707080Y-25660424D01*
X8707080Y-25660424D02*
X8611842Y-25612805D01*
X8611842Y-25612805D02*
X8326128Y-25612805D01*
X8326128Y-25612805D02*
X8230890Y-25660424D01*
X8230890Y-25660424D02*
X8183271Y-25708043D01*
X8183271Y-25708043D02*
X8135652Y-25803281D01*
X8135652Y-25803281D02*
X8135652Y-25946138D01*
X8135652Y-25946138D02*
X8183271Y-26041376D01*
X8183271Y-26041376D02*
X8230890Y-26088995D01*
X8230890Y-26088995D02*
X8326128Y-26136614D01*
X8326128Y-26136614D02*
X8611842Y-26136614D01*
X8611842Y-26136614D02*
X8707080Y-26088995D01*
X8707080Y-26088995D02*
X8754700Y-26041376D01*
X8754700Y-26041376D02*
X8802319Y-25946138D01*
X8802319Y-25946138D02*
X8802319Y-25803281D01*
X8135652Y-26469948D02*
X8802319Y-26660424D01*
X8802319Y-26660424D02*
X8326128Y-26850900D01*
X8326128Y-26850900D02*
X8802319Y-27041376D01*
X8802319Y-27041376D02*
X8135652Y-27231852D01*
X8802319Y-28803281D02*
X8278509Y-28803281D01*
X8278509Y-28803281D02*
X8183271Y-28755662D01*
X8183271Y-28755662D02*
X8135652Y-28660424D01*
X8135652Y-28660424D02*
X8135652Y-28469948D01*
X8135652Y-28469948D02*
X8183271Y-28374710D01*
X8754700Y-28803281D02*
X8802319Y-28708043D01*
X8802319Y-28708043D02*
X8802319Y-28469948D01*
X8802319Y-28469948D02*
X8754700Y-28374710D01*
X8754700Y-28374710D02*
X8659461Y-28327091D01*
X8659461Y-28327091D02*
X8564223Y-28327091D01*
X8564223Y-28327091D02*
X8468985Y-28374710D01*
X8468985Y-28374710D02*
X8421366Y-28469948D01*
X8421366Y-28469948D02*
X8421366Y-28708043D01*
X8421366Y-28708043D02*
X8373747Y-28803281D01*
X8802319Y-29422329D02*
X8754700Y-29327091D01*
X8754700Y-29327091D02*
X8659461Y-29279472D01*
X8659461Y-29279472D02*
X7802319Y-29279472D01*
X8802319Y-29946139D02*
X8754700Y-29850901D01*
X8754700Y-29850901D02*
X8659461Y-29803282D01*
X8659461Y-29803282D02*
X7802319Y-29803282D01*
X8802319Y-31231854D02*
X8754700Y-31136616D01*
X8754700Y-31136616D02*
X8659461Y-31088997D01*
X8659461Y-31088997D02*
X7802319Y-31088997D01*
X8802319Y-31612807D02*
X8135652Y-31612807D01*
X7802319Y-31612807D02*
X7849938Y-31565188D01*
X7849938Y-31565188D02*
X7897557Y-31612807D01*
X7897557Y-31612807D02*
X7849938Y-31660426D01*
X7849938Y-31660426D02*
X7802319Y-31612807D01*
X7802319Y-31612807D02*
X7897557Y-31612807D01*
X8135652Y-31946140D02*
X8135652Y-32327092D01*
X7802319Y-32088997D02*
X8659461Y-32088997D01*
X8659461Y-32088997D02*
X8754700Y-32136616D01*
X8754700Y-32136616D02*
X8802319Y-32231854D01*
X8802319Y-32231854D02*
X8802319Y-32327092D01*
X8802319Y-32660426D02*
X7802319Y-32660426D01*
X8802319Y-33088997D02*
X8278509Y-33088997D01*
X8278509Y-33088997D02*
X8183271Y-33041378D01*
X8183271Y-33041378D02*
X8135652Y-32946140D01*
X8135652Y-32946140D02*
X8135652Y-32803283D01*
X8135652Y-32803283D02*
X8183271Y-32708045D01*
X8183271Y-32708045D02*
X8230890Y-32660426D01*
X8802319Y-33565188D02*
X8135652Y-33565188D01*
X7802319Y-33565188D02*
X7849938Y-33517569D01*
X7849938Y-33517569D02*
X7897557Y-33565188D01*
X7897557Y-33565188D02*
X7849938Y-33612807D01*
X7849938Y-33612807D02*
X7802319Y-33565188D01*
X7802319Y-33565188D02*
X7897557Y-33565188D01*
X8135652Y-34469949D02*
X8802319Y-34469949D01*
X8135652Y-34041378D02*
X8659461Y-34041378D01*
X8659461Y-34041378D02*
X8754700Y-34088997D01*
X8754700Y-34088997D02*
X8802319Y-34184235D01*
X8802319Y-34184235D02*
X8802319Y-34327092D01*
X8802319Y-34327092D02*
X8754700Y-34422330D01*
X8754700Y-34422330D02*
X8707080Y-34469949D01*
X8802319Y-34946140D02*
X8135652Y-34946140D01*
X8230890Y-34946140D02*
X8183271Y-34993759D01*
X8183271Y-34993759D02*
X8135652Y-35088997D01*
X8135652Y-35088997D02*
X8135652Y-35231854D01*
X8135652Y-35231854D02*
X8183271Y-35327092D01*
X8183271Y-35327092D02*
X8278509Y-35374711D01*
X8278509Y-35374711D02*
X8802319Y-35374711D01*
X8278509Y-35374711D02*
X8183271Y-35422330D01*
X8183271Y-35422330D02*
X8135652Y-35517568D01*
X8135652Y-35517568D02*
X8135652Y-35660425D01*
X8135652Y-35660425D02*
X8183271Y-35755664D01*
X8183271Y-35755664D02*
X8278509Y-35803283D01*
X8278509Y-35803283D02*
X8802319Y-35803283D01*
X8802319Y-37041378D02*
X8135652Y-37041378D01*
X7802319Y-37041378D02*
X7849938Y-36993759D01*
X7849938Y-36993759D02*
X7897557Y-37041378D01*
X7897557Y-37041378D02*
X7849938Y-37088997D01*
X7849938Y-37088997D02*
X7802319Y-37041378D01*
X7802319Y-37041378D02*
X7897557Y-37041378D01*
X8802319Y-37660425D02*
X8754700Y-37565187D01*
X8754700Y-37565187D02*
X8707080Y-37517568D01*
X8707080Y-37517568D02*
X8611842Y-37469949D01*
X8611842Y-37469949D02*
X8326128Y-37469949D01*
X8326128Y-37469949D02*
X8230890Y-37517568D01*
X8230890Y-37517568D02*
X8183271Y-37565187D01*
X8183271Y-37565187D02*
X8135652Y-37660425D01*
X8135652Y-37660425D02*
X8135652Y-37803282D01*
X8135652Y-37803282D02*
X8183271Y-37898520D01*
X8183271Y-37898520D02*
X8230890Y-37946139D01*
X8230890Y-37946139D02*
X8326128Y-37993758D01*
X8326128Y-37993758D02*
X8611842Y-37993758D01*
X8611842Y-37993758D02*
X8707080Y-37946139D01*
X8707080Y-37946139D02*
X8754700Y-37898520D01*
X8754700Y-37898520D02*
X8802319Y-37803282D01*
X8802319Y-37803282D02*
X8802319Y-37660425D01*
X8135652Y-38422330D02*
X8802319Y-38422330D01*
X8230890Y-38422330D02*
X8183271Y-38469949D01*
X8183271Y-38469949D02*
X8135652Y-38565187D01*
X8135652Y-38565187D02*
X8135652Y-38708044D01*
X8135652Y-38708044D02*
X8183271Y-38803282D01*
X8183271Y-38803282D02*
X8278509Y-38850901D01*
X8278509Y-38850901D02*
X8802319Y-38850901D01*
X8754700Y-40041378D02*
X8802319Y-40136616D01*
X8802319Y-40136616D02*
X8802319Y-40327092D01*
X8802319Y-40327092D02*
X8754700Y-40422330D01*
X8754700Y-40422330D02*
X8659461Y-40469949D01*
X8659461Y-40469949D02*
X8611842Y-40469949D01*
X8611842Y-40469949D02*
X8516604Y-40422330D01*
X8516604Y-40422330D02*
X8468985Y-40327092D01*
X8468985Y-40327092D02*
X8468985Y-40184235D01*
X8468985Y-40184235D02*
X8421366Y-40088997D01*
X8421366Y-40088997D02*
X8326128Y-40041378D01*
X8326128Y-40041378D02*
X8278509Y-40041378D01*
X8278509Y-40041378D02*
X8183271Y-40088997D01*
X8183271Y-40088997D02*
X8135652Y-40184235D01*
X8135652Y-40184235D02*
X8135652Y-40327092D01*
X8135652Y-40327092D02*
X8183271Y-40422330D01*
X8802319Y-41327092D02*
X8278509Y-41327092D01*
X8278509Y-41327092D02*
X8183271Y-41279473D01*
X8183271Y-41279473D02*
X8135652Y-41184235D01*
X8135652Y-41184235D02*
X8135652Y-40993759D01*
X8135652Y-40993759D02*
X8183271Y-40898521D01*
X8754700Y-41327092D02*
X8802319Y-41231854D01*
X8802319Y-41231854D02*
X8802319Y-40993759D01*
X8802319Y-40993759D02*
X8754700Y-40898521D01*
X8754700Y-40898521D02*
X8659461Y-40850902D01*
X8659461Y-40850902D02*
X8564223Y-40850902D01*
X8564223Y-40850902D02*
X8468985Y-40898521D01*
X8468985Y-40898521D02*
X8421366Y-40993759D01*
X8421366Y-40993759D02*
X8421366Y-41231854D01*
X8421366Y-41231854D02*
X8373747Y-41327092D01*
X8135652Y-41660426D02*
X8135652Y-42041378D01*
X8802319Y-41803283D02*
X7945176Y-41803283D01*
X7945176Y-41803283D02*
X7849938Y-41850902D01*
X7849938Y-41850902D02*
X7802319Y-41946140D01*
X7802319Y-41946140D02*
X7802319Y-42041378D01*
X8754700Y-42755664D02*
X8802319Y-42660426D01*
X8802319Y-42660426D02*
X8802319Y-42469950D01*
X8802319Y-42469950D02*
X8754700Y-42374712D01*
X8754700Y-42374712D02*
X8659461Y-42327093D01*
X8659461Y-42327093D02*
X8278509Y-42327093D01*
X8278509Y-42327093D02*
X8183271Y-42374712D01*
X8183271Y-42374712D02*
X8135652Y-42469950D01*
X8135652Y-42469950D02*
X8135652Y-42660426D01*
X8135652Y-42660426D02*
X8183271Y-42755664D01*
X8183271Y-42755664D02*
X8278509Y-42803283D01*
X8278509Y-42803283D02*
X8373747Y-42803283D01*
X8373747Y-42803283D02*
X8468985Y-42327093D01*
X8135652Y-43088998D02*
X8135652Y-43469950D01*
X7802319Y-43231855D02*
X8659461Y-43231855D01*
X8659461Y-43231855D02*
X8754700Y-43279474D01*
X8754700Y-43279474D02*
X8802319Y-43374712D01*
X8802319Y-43374712D02*
X8802319Y-43469950D01*
X8135652Y-43708046D02*
X8802319Y-43946141D01*
X8135652Y-44184236D02*
X8802319Y-43946141D01*
X8802319Y-43946141D02*
X9040414Y-43850903D01*
X9040414Y-43850903D02*
X9088033Y-43803284D01*
X9088033Y-43803284D02*
X9135652Y-43708046D01*
X8135652Y-45755665D02*
X8945176Y-45755665D01*
X8945176Y-45755665D02*
X9040414Y-45708046D01*
X9040414Y-45708046D02*
X9088033Y-45660427D01*
X9088033Y-45660427D02*
X9135652Y-45565189D01*
X9135652Y-45565189D02*
X9135652Y-45422332D01*
X9135652Y-45422332D02*
X9088033Y-45327094D01*
X8754700Y-45755665D02*
X8802319Y-45660427D01*
X8802319Y-45660427D02*
X8802319Y-45469951D01*
X8802319Y-45469951D02*
X8754700Y-45374713D01*
X8754700Y-45374713D02*
X8707080Y-45327094D01*
X8707080Y-45327094D02*
X8611842Y-45279475D01*
X8611842Y-45279475D02*
X8326128Y-45279475D01*
X8326128Y-45279475D02*
X8230890Y-45327094D01*
X8230890Y-45327094D02*
X8183271Y-45374713D01*
X8183271Y-45374713D02*
X8135652Y-45469951D01*
X8135652Y-45469951D02*
X8135652Y-45660427D01*
X8135652Y-45660427D02*
X8183271Y-45755665D01*
X8135652Y-46660427D02*
X8802319Y-46660427D01*
X8135652Y-46231856D02*
X8659461Y-46231856D01*
X8659461Y-46231856D02*
X8754700Y-46279475D01*
X8754700Y-46279475D02*
X8802319Y-46374713D01*
X8802319Y-46374713D02*
X8802319Y-46517570D01*
X8802319Y-46517570D02*
X8754700Y-46612808D01*
X8754700Y-46612808D02*
X8707080Y-46660427D01*
X8802319Y-47136618D02*
X8135652Y-47136618D01*
X7802319Y-47136618D02*
X7849938Y-47088999D01*
X7849938Y-47088999D02*
X7897557Y-47136618D01*
X7897557Y-47136618D02*
X7849938Y-47184237D01*
X7849938Y-47184237D02*
X7802319Y-47136618D01*
X7802319Y-47136618D02*
X7897557Y-47136618D01*
X8802319Y-48041379D02*
X7802319Y-48041379D01*
X8754700Y-48041379D02*
X8802319Y-47946141D01*
X8802319Y-47946141D02*
X8802319Y-47755665D01*
X8802319Y-47755665D02*
X8754700Y-47660427D01*
X8754700Y-47660427D02*
X8707080Y-47612808D01*
X8707080Y-47612808D02*
X8611842Y-47565189D01*
X8611842Y-47565189D02*
X8326128Y-47565189D01*
X8326128Y-47565189D02*
X8230890Y-47612808D01*
X8230890Y-47612808D02*
X8183271Y-47660427D01*
X8183271Y-47660427D02*
X8135652Y-47755665D01*
X8135652Y-47755665D02*
X8135652Y-47946141D01*
X8135652Y-47946141D02*
X8183271Y-48041379D01*
X8754700Y-48898522D02*
X8802319Y-48803284D01*
X8802319Y-48803284D02*
X8802319Y-48612808D01*
X8802319Y-48612808D02*
X8754700Y-48517570D01*
X8754700Y-48517570D02*
X8659461Y-48469951D01*
X8659461Y-48469951D02*
X8278509Y-48469951D01*
X8278509Y-48469951D02*
X8183271Y-48517570D01*
X8183271Y-48517570D02*
X8135652Y-48612808D01*
X8135652Y-48612808D02*
X8135652Y-48803284D01*
X8135652Y-48803284D02*
X8183271Y-48898522D01*
X8183271Y-48898522D02*
X8278509Y-48946141D01*
X8278509Y-48946141D02*
X8373747Y-48946141D01*
X8373747Y-48946141D02*
X8468985Y-48469951D01*
X8802319Y-49517570D02*
X8754700Y-49422332D01*
X8754700Y-49422332D02*
X8659461Y-49374713D01*
X8659461Y-49374713D02*
X7802319Y-49374713D01*
X8802319Y-49898523D02*
X8135652Y-49898523D01*
X7802319Y-49898523D02*
X7849938Y-49850904D01*
X7849938Y-49850904D02*
X7897557Y-49898523D01*
X7897557Y-49898523D02*
X7849938Y-49946142D01*
X7849938Y-49946142D02*
X7802319Y-49898523D01*
X7802319Y-49898523D02*
X7897557Y-49898523D01*
X8135652Y-50374713D02*
X8802319Y-50374713D01*
X8230890Y-50374713D02*
X8183271Y-50422332D01*
X8183271Y-50422332D02*
X8135652Y-50517570D01*
X8135652Y-50517570D02*
X8135652Y-50660427D01*
X8135652Y-50660427D02*
X8183271Y-50755665D01*
X8183271Y-50755665D02*
X8278509Y-50803284D01*
X8278509Y-50803284D02*
X8802319Y-50803284D01*
X8754700Y-51660427D02*
X8802319Y-51565189D01*
X8802319Y-51565189D02*
X8802319Y-51374713D01*
X8802319Y-51374713D02*
X8754700Y-51279475D01*
X8754700Y-51279475D02*
X8659461Y-51231856D01*
X8659461Y-51231856D02*
X8278509Y-51231856D01*
X8278509Y-51231856D02*
X8183271Y-51279475D01*
X8183271Y-51279475D02*
X8135652Y-51374713D01*
X8135652Y-51374713D02*
X8135652Y-51565189D01*
X8135652Y-51565189D02*
X8183271Y-51660427D01*
X8183271Y-51660427D02*
X8278509Y-51708046D01*
X8278509Y-51708046D02*
X8373747Y-51708046D01*
X8373747Y-51708046D02*
X8468985Y-51231856D01*
X8754700Y-52088999D02*
X8802319Y-52184237D01*
X8802319Y-52184237D02*
X8802319Y-52374713D01*
X8802319Y-52374713D02*
X8754700Y-52469951D01*
X8754700Y-52469951D02*
X8659461Y-52517570D01*
X8659461Y-52517570D02*
X8611842Y-52517570D01*
X8611842Y-52517570D02*
X8516604Y-52469951D01*
X8516604Y-52469951D02*
X8468985Y-52374713D01*
X8468985Y-52374713D02*
X8468985Y-52231856D01*
X8468985Y-52231856D02*
X8421366Y-52136618D01*
X8421366Y-52136618D02*
X8326128Y-52088999D01*
X8326128Y-52088999D02*
X8278509Y-52088999D01*
X8278509Y-52088999D02*
X8183271Y-52136618D01*
X8183271Y-52136618D02*
X8135652Y-52231856D01*
X8135652Y-52231856D02*
X8135652Y-52374713D01*
X8135652Y-52374713D02*
X8183271Y-52469951D01*
X8707080Y-52946142D02*
X8754700Y-52993761D01*
X8754700Y-52993761D02*
X8802319Y-52946142D01*
X8802319Y-52946142D02*
X8754700Y-52898523D01*
X8754700Y-52898523D02*
X8707080Y-52946142D01*
X8707080Y-52946142D02*
X8802319Y-52946142D01*
X7802319Y-54041380D02*
X7802319Y-54612808D01*
X8802319Y-54327094D02*
X7802319Y-54327094D01*
X8802319Y-54946142D02*
X7802319Y-54946142D01*
X8802319Y-55374713D02*
X8278509Y-55374713D01*
X8278509Y-55374713D02*
X8183271Y-55327094D01*
X8183271Y-55327094D02*
X8135652Y-55231856D01*
X8135652Y-55231856D02*
X8135652Y-55088999D01*
X8135652Y-55088999D02*
X8183271Y-54993761D01*
X8183271Y-54993761D02*
X8230890Y-54946142D01*
X8802319Y-55850904D02*
X8135652Y-55850904D01*
X7802319Y-55850904D02*
X7849938Y-55803285D01*
X7849938Y-55803285D02*
X7897557Y-55850904D01*
X7897557Y-55850904D02*
X7849938Y-55898523D01*
X7849938Y-55898523D02*
X7802319Y-55850904D01*
X7802319Y-55850904D02*
X7897557Y-55850904D01*
X8754700Y-56279475D02*
X8802319Y-56374713D01*
X8802319Y-56374713D02*
X8802319Y-56565189D01*
X8802319Y-56565189D02*
X8754700Y-56660427D01*
X8754700Y-56660427D02*
X8659461Y-56708046D01*
X8659461Y-56708046D02*
X8611842Y-56708046D01*
X8611842Y-56708046D02*
X8516604Y-56660427D01*
X8516604Y-56660427D02*
X8468985Y-56565189D01*
X8468985Y-56565189D02*
X8468985Y-56422332D01*
X8468985Y-56422332D02*
X8421366Y-56327094D01*
X8421366Y-56327094D02*
X8326128Y-56279475D01*
X8326128Y-56279475D02*
X8278509Y-56279475D01*
X8278509Y-56279475D02*
X8183271Y-56327094D01*
X8183271Y-56327094D02*
X8135652Y-56422332D01*
X8135652Y-56422332D02*
X8135652Y-56565189D01*
X8135652Y-56565189D02*
X8183271Y-56660427D01*
X8802319Y-57898523D02*
X7802319Y-57898523D01*
X8421366Y-57993761D02*
X8802319Y-58279475D01*
X8135652Y-58279475D02*
X8516604Y-57898523D01*
X8802319Y-58708047D02*
X8135652Y-58708047D01*
X7802319Y-58708047D02*
X7849938Y-58660428D01*
X7849938Y-58660428D02*
X7897557Y-58708047D01*
X7897557Y-58708047D02*
X7849938Y-58755666D01*
X7849938Y-58755666D02*
X7802319Y-58708047D01*
X7802319Y-58708047D02*
X7897557Y-58708047D01*
X8135652Y-59041380D02*
X8135652Y-59422332D01*
X7802319Y-59184237D02*
X8659461Y-59184237D01*
X8659461Y-59184237D02*
X8754700Y-59231856D01*
X8754700Y-59231856D02*
X8802319Y-59327094D01*
X8802319Y-59327094D02*
X8802319Y-59422332D01*
X8802319Y-60517571D02*
X8135652Y-60517571D01*
X7802319Y-60517571D02*
X7849938Y-60469952D01*
X7849938Y-60469952D02*
X7897557Y-60517571D01*
X7897557Y-60517571D02*
X7849938Y-60565190D01*
X7849938Y-60565190D02*
X7802319Y-60517571D01*
X7802319Y-60517571D02*
X7897557Y-60517571D01*
X8754700Y-60946142D02*
X8802319Y-61041380D01*
X8802319Y-61041380D02*
X8802319Y-61231856D01*
X8802319Y-61231856D02*
X8754700Y-61327094D01*
X8754700Y-61327094D02*
X8659461Y-61374713D01*
X8659461Y-61374713D02*
X8611842Y-61374713D01*
X8611842Y-61374713D02*
X8516604Y-61327094D01*
X8516604Y-61327094D02*
X8468985Y-61231856D01*
X8468985Y-61231856D02*
X8468985Y-61088999D01*
X8468985Y-61088999D02*
X8421366Y-60993761D01*
X8421366Y-60993761D02*
X8326128Y-60946142D01*
X8326128Y-60946142D02*
X8278509Y-60946142D01*
X8278509Y-60946142D02*
X8183271Y-60993761D01*
X8183271Y-60993761D02*
X8135652Y-61088999D01*
X8135652Y-61088999D02*
X8135652Y-61231856D01*
X8135652Y-61231856D02*
X8183271Y-61327094D01*
X8135652Y-62422333D02*
X8135652Y-62803285D01*
X8802319Y-62565190D02*
X7945176Y-62565190D01*
X7945176Y-62565190D02*
X7849938Y-62612809D01*
X7849938Y-62612809D02*
X7802319Y-62708047D01*
X7802319Y-62708047D02*
X7802319Y-62803285D01*
X8802319Y-63279476D02*
X8754700Y-63184238D01*
X8754700Y-63184238D02*
X8707080Y-63136619D01*
X8707080Y-63136619D02*
X8611842Y-63089000D01*
X8611842Y-63089000D02*
X8326128Y-63089000D01*
X8326128Y-63089000D02*
X8230890Y-63136619D01*
X8230890Y-63136619D02*
X8183271Y-63184238D01*
X8183271Y-63184238D02*
X8135652Y-63279476D01*
X8135652Y-63279476D02*
X8135652Y-63422333D01*
X8135652Y-63422333D02*
X8183271Y-63517571D01*
X8183271Y-63517571D02*
X8230890Y-63565190D01*
X8230890Y-63565190D02*
X8326128Y-63612809D01*
X8326128Y-63612809D02*
X8611842Y-63612809D01*
X8611842Y-63612809D02*
X8707080Y-63565190D01*
X8707080Y-63565190D02*
X8754700Y-63517571D01*
X8754700Y-63517571D02*
X8802319Y-63422333D01*
X8802319Y-63422333D02*
X8802319Y-63279476D01*
X8802319Y-64041381D02*
X8135652Y-64041381D01*
X8326128Y-64041381D02*
X8230890Y-64089000D01*
X8230890Y-64089000D02*
X8183271Y-64136619D01*
X8183271Y-64136619D02*
X8135652Y-64231857D01*
X8135652Y-64231857D02*
X8135652Y-64327095D01*
X8754700Y-65803286D02*
X8802319Y-65708048D01*
X8802319Y-65708048D02*
X8802319Y-65517572D01*
X8802319Y-65517572D02*
X8754700Y-65422334D01*
X8754700Y-65422334D02*
X8659461Y-65374715D01*
X8659461Y-65374715D02*
X8278509Y-65374715D01*
X8278509Y-65374715D02*
X8183271Y-65422334D01*
X8183271Y-65422334D02*
X8135652Y-65517572D01*
X8135652Y-65517572D02*
X8135652Y-65708048D01*
X8135652Y-65708048D02*
X8183271Y-65803286D01*
X8183271Y-65803286D02*
X8278509Y-65850905D01*
X8278509Y-65850905D02*
X8373747Y-65850905D01*
X8373747Y-65850905D02*
X8468985Y-65374715D01*
X8802319Y-66708048D02*
X7802319Y-66708048D01*
X8754700Y-66708048D02*
X8802319Y-66612810D01*
X8802319Y-66612810D02*
X8802319Y-66422334D01*
X8802319Y-66422334D02*
X8754700Y-66327096D01*
X8754700Y-66327096D02*
X8707080Y-66279477D01*
X8707080Y-66279477D02*
X8611842Y-66231858D01*
X8611842Y-66231858D02*
X8326128Y-66231858D01*
X8326128Y-66231858D02*
X8230890Y-66279477D01*
X8230890Y-66279477D02*
X8183271Y-66327096D01*
X8183271Y-66327096D02*
X8135652Y-66422334D01*
X8135652Y-66422334D02*
X8135652Y-66612810D01*
X8135652Y-66612810D02*
X8183271Y-66708048D01*
X8135652Y-67612810D02*
X8802319Y-67612810D01*
X8135652Y-67184239D02*
X8659461Y-67184239D01*
X8659461Y-67184239D02*
X8754700Y-67231858D01*
X8754700Y-67231858D02*
X8802319Y-67327096D01*
X8802319Y-67327096D02*
X8802319Y-67469953D01*
X8802319Y-67469953D02*
X8754700Y-67565191D01*
X8754700Y-67565191D02*
X8707080Y-67612810D01*
X8754700Y-68517572D02*
X8802319Y-68422334D01*
X8802319Y-68422334D02*
X8802319Y-68231858D01*
X8802319Y-68231858D02*
X8754700Y-68136620D01*
X8754700Y-68136620D02*
X8707080Y-68089001D01*
X8707080Y-68089001D02*
X8611842Y-68041382D01*
X8611842Y-68041382D02*
X8326128Y-68041382D01*
X8326128Y-68041382D02*
X8230890Y-68089001D01*
X8230890Y-68089001D02*
X8183271Y-68136620D01*
X8183271Y-68136620D02*
X8135652Y-68231858D01*
X8135652Y-68231858D02*
X8135652Y-68422334D01*
X8135652Y-68422334D02*
X8183271Y-68517572D01*
X8802319Y-69374715D02*
X8278509Y-69374715D01*
X8278509Y-69374715D02*
X8183271Y-69327096D01*
X8183271Y-69327096D02*
X8135652Y-69231858D01*
X8135652Y-69231858D02*
X8135652Y-69041382D01*
X8135652Y-69041382D02*
X8183271Y-68946144D01*
X8754700Y-69374715D02*
X8802319Y-69279477D01*
X8802319Y-69279477D02*
X8802319Y-69041382D01*
X8802319Y-69041382D02*
X8754700Y-68946144D01*
X8754700Y-68946144D02*
X8659461Y-68898525D01*
X8659461Y-68898525D02*
X8564223Y-68898525D01*
X8564223Y-68898525D02*
X8468985Y-68946144D01*
X8468985Y-68946144D02*
X8421366Y-69041382D01*
X8421366Y-69041382D02*
X8421366Y-69279477D01*
X8421366Y-69279477D02*
X8373747Y-69374715D01*
X8135652Y-69708049D02*
X8135652Y-70089001D01*
X7802319Y-69850906D02*
X8659461Y-69850906D01*
X8659461Y-69850906D02*
X8754700Y-69898525D01*
X8754700Y-69898525D02*
X8802319Y-69993763D01*
X8802319Y-69993763D02*
X8802319Y-70089001D01*
X8802319Y-70422335D02*
X8135652Y-70422335D01*
X7802319Y-70422335D02*
X7849938Y-70374716D01*
X7849938Y-70374716D02*
X7897557Y-70422335D01*
X7897557Y-70422335D02*
X7849938Y-70469954D01*
X7849938Y-70469954D02*
X7802319Y-70422335D01*
X7802319Y-70422335D02*
X7897557Y-70422335D01*
X8802319Y-71041382D02*
X8754700Y-70946144D01*
X8754700Y-70946144D02*
X8707080Y-70898525D01*
X8707080Y-70898525D02*
X8611842Y-70850906D01*
X8611842Y-70850906D02*
X8326128Y-70850906D01*
X8326128Y-70850906D02*
X8230890Y-70898525D01*
X8230890Y-70898525D02*
X8183271Y-70946144D01*
X8183271Y-70946144D02*
X8135652Y-71041382D01*
X8135652Y-71041382D02*
X8135652Y-71184239D01*
X8135652Y-71184239D02*
X8183271Y-71279477D01*
X8183271Y-71279477D02*
X8230890Y-71327096D01*
X8230890Y-71327096D02*
X8326128Y-71374715D01*
X8326128Y-71374715D02*
X8611842Y-71374715D01*
X8611842Y-71374715D02*
X8707080Y-71327096D01*
X8707080Y-71327096D02*
X8754700Y-71279477D01*
X8754700Y-71279477D02*
X8802319Y-71184239D01*
X8802319Y-71184239D02*
X8802319Y-71041382D01*
X8135652Y-71803287D02*
X8802319Y-71803287D01*
X8230890Y-71803287D02*
X8183271Y-71850906D01*
X8183271Y-71850906D02*
X8135652Y-71946144D01*
X8135652Y-71946144D02*
X8135652Y-72089001D01*
X8135652Y-72089001D02*
X8183271Y-72184239D01*
X8183271Y-72184239D02*
X8278509Y-72231858D01*
X8278509Y-72231858D02*
X8802319Y-72231858D01*
X8802319Y-73136620D02*
X8278509Y-73136620D01*
X8278509Y-73136620D02*
X8183271Y-73089001D01*
X8183271Y-73089001D02*
X8135652Y-72993763D01*
X8135652Y-72993763D02*
X8135652Y-72803287D01*
X8135652Y-72803287D02*
X8183271Y-72708049D01*
X8754700Y-73136620D02*
X8802319Y-73041382D01*
X8802319Y-73041382D02*
X8802319Y-72803287D01*
X8802319Y-72803287D02*
X8754700Y-72708049D01*
X8754700Y-72708049D02*
X8659461Y-72660430D01*
X8659461Y-72660430D02*
X8564223Y-72660430D01*
X8564223Y-72660430D02*
X8468985Y-72708049D01*
X8468985Y-72708049D02*
X8421366Y-72803287D01*
X8421366Y-72803287D02*
X8421366Y-73041382D01*
X8421366Y-73041382D02*
X8373747Y-73136620D01*
X8802319Y-73755668D02*
X8754700Y-73660430D01*
X8754700Y-73660430D02*
X8659461Y-73612811D01*
X8659461Y-73612811D02*
X7802319Y-73612811D01*
X8135652Y-74898526D02*
X9135652Y-74898526D01*
X8183271Y-74898526D02*
X8135652Y-74993764D01*
X8135652Y-74993764D02*
X8135652Y-75184240D01*
X8135652Y-75184240D02*
X8183271Y-75279478D01*
X8183271Y-75279478D02*
X8230890Y-75327097D01*
X8230890Y-75327097D02*
X8326128Y-75374716D01*
X8326128Y-75374716D02*
X8611842Y-75374716D01*
X8611842Y-75374716D02*
X8707080Y-75327097D01*
X8707080Y-75327097D02*
X8754700Y-75279478D01*
X8754700Y-75279478D02*
X8802319Y-75184240D01*
X8802319Y-75184240D02*
X8802319Y-74993764D01*
X8802319Y-74993764D02*
X8754700Y-74898526D01*
X8135652Y-76231859D02*
X8802319Y-76231859D01*
X8135652Y-75803288D02*
X8659461Y-75803288D01*
X8659461Y-75803288D02*
X8754700Y-75850907D01*
X8754700Y-75850907D02*
X8802319Y-75946145D01*
X8802319Y-75946145D02*
X8802319Y-76089002D01*
X8802319Y-76089002D02*
X8754700Y-76184240D01*
X8754700Y-76184240D02*
X8707080Y-76231859D01*
X8802319Y-76708050D02*
X8135652Y-76708050D01*
X8326128Y-76708050D02*
X8230890Y-76755669D01*
X8230890Y-76755669D02*
X8183271Y-76803288D01*
X8183271Y-76803288D02*
X8135652Y-76898526D01*
X8135652Y-76898526D02*
X8135652Y-76993764D01*
X8135652Y-77327098D02*
X9135652Y-77327098D01*
X8183271Y-77327098D02*
X8135652Y-77422336D01*
X8135652Y-77422336D02*
X8135652Y-77612812D01*
X8135652Y-77612812D02*
X8183271Y-77708050D01*
X8183271Y-77708050D02*
X8230890Y-77755669D01*
X8230890Y-77755669D02*
X8326128Y-77803288D01*
X8326128Y-77803288D02*
X8611842Y-77803288D01*
X8611842Y-77803288D02*
X8707080Y-77755669D01*
X8707080Y-77755669D02*
X8754700Y-77708050D01*
X8754700Y-77708050D02*
X8802319Y-77612812D01*
X8802319Y-77612812D02*
X8802319Y-77422336D01*
X8802319Y-77422336D02*
X8754700Y-77327098D01*
X8802319Y-78374717D02*
X8754700Y-78279479D01*
X8754700Y-78279479D02*
X8707080Y-78231860D01*
X8707080Y-78231860D02*
X8611842Y-78184241D01*
X8611842Y-78184241D02*
X8326128Y-78184241D01*
X8326128Y-78184241D02*
X8230890Y-78231860D01*
X8230890Y-78231860D02*
X8183271Y-78279479D01*
X8183271Y-78279479D02*
X8135652Y-78374717D01*
X8135652Y-78374717D02*
X8135652Y-78517574D01*
X8135652Y-78517574D02*
X8183271Y-78612812D01*
X8183271Y-78612812D02*
X8230890Y-78660431D01*
X8230890Y-78660431D02*
X8326128Y-78708050D01*
X8326128Y-78708050D02*
X8611842Y-78708050D01*
X8611842Y-78708050D02*
X8707080Y-78660431D01*
X8707080Y-78660431D02*
X8754700Y-78612812D01*
X8754700Y-78612812D02*
X8802319Y-78517574D01*
X8802319Y-78517574D02*
X8802319Y-78374717D01*
X8754700Y-79089003D02*
X8802319Y-79184241D01*
X8802319Y-79184241D02*
X8802319Y-79374717D01*
X8802319Y-79374717D02*
X8754700Y-79469955D01*
X8754700Y-79469955D02*
X8659461Y-79517574D01*
X8659461Y-79517574D02*
X8611842Y-79517574D01*
X8611842Y-79517574D02*
X8516604Y-79469955D01*
X8516604Y-79469955D02*
X8468985Y-79374717D01*
X8468985Y-79374717D02*
X8468985Y-79231860D01*
X8468985Y-79231860D02*
X8421366Y-79136622D01*
X8421366Y-79136622D02*
X8326128Y-79089003D01*
X8326128Y-79089003D02*
X8278509Y-79089003D01*
X8278509Y-79089003D02*
X8183271Y-79136622D01*
X8183271Y-79136622D02*
X8135652Y-79231860D01*
X8135652Y-79231860D02*
X8135652Y-79374717D01*
X8135652Y-79374717D02*
X8183271Y-79469955D01*
X8754700Y-80327098D02*
X8802319Y-80231860D01*
X8802319Y-80231860D02*
X8802319Y-80041384D01*
X8802319Y-80041384D02*
X8754700Y-79946146D01*
X8754700Y-79946146D02*
X8659461Y-79898527D01*
X8659461Y-79898527D02*
X8278509Y-79898527D01*
X8278509Y-79898527D02*
X8183271Y-79946146D01*
X8183271Y-79946146D02*
X8135652Y-80041384D01*
X8135652Y-80041384D02*
X8135652Y-80231860D01*
X8135652Y-80231860D02*
X8183271Y-80327098D01*
X8183271Y-80327098D02*
X8278509Y-80374717D01*
X8278509Y-80374717D02*
X8373747Y-80374717D01*
X8373747Y-80374717D02*
X8468985Y-79898527D01*
X8754700Y-80755670D02*
X8802319Y-80850908D01*
X8802319Y-80850908D02*
X8802319Y-81041384D01*
X8802319Y-81041384D02*
X8754700Y-81136622D01*
X8754700Y-81136622D02*
X8659461Y-81184241D01*
X8659461Y-81184241D02*
X8611842Y-81184241D01*
X8611842Y-81184241D02*
X8516604Y-81136622D01*
X8516604Y-81136622D02*
X8468985Y-81041384D01*
X8468985Y-81041384D02*
X8468985Y-80898527D01*
X8468985Y-80898527D02*
X8421366Y-80803289D01*
X8421366Y-80803289D02*
X8326128Y-80755670D01*
X8326128Y-80755670D02*
X8278509Y-80755670D01*
X8278509Y-80755670D02*
X8183271Y-80803289D01*
X8183271Y-80803289D02*
X8135652Y-80898527D01*
X8135652Y-80898527D02*
X8135652Y-81041384D01*
X8135652Y-81041384D02*
X8183271Y-81136622D01*
X8802319Y-82517575D02*
X8754700Y-82422337D01*
X8754700Y-82422337D02*
X8707080Y-82374718D01*
X8707080Y-82374718D02*
X8611842Y-82327099D01*
X8611842Y-82327099D02*
X8326128Y-82327099D01*
X8326128Y-82327099D02*
X8230890Y-82374718D01*
X8230890Y-82374718D02*
X8183271Y-82422337D01*
X8183271Y-82422337D02*
X8135652Y-82517575D01*
X8135652Y-82517575D02*
X8135652Y-82660432D01*
X8135652Y-82660432D02*
X8183271Y-82755670D01*
X8183271Y-82755670D02*
X8230890Y-82803289D01*
X8230890Y-82803289D02*
X8326128Y-82850908D01*
X8326128Y-82850908D02*
X8611842Y-82850908D01*
X8611842Y-82850908D02*
X8707080Y-82803289D01*
X8707080Y-82803289D02*
X8754700Y-82755670D01*
X8754700Y-82755670D02*
X8802319Y-82660432D01*
X8802319Y-82660432D02*
X8802319Y-82517575D01*
X8135652Y-83279480D02*
X8802319Y-83279480D01*
X8230890Y-83279480D02*
X8183271Y-83327099D01*
X8183271Y-83327099D02*
X8135652Y-83422337D01*
X8135652Y-83422337D02*
X8135652Y-83565194D01*
X8135652Y-83565194D02*
X8183271Y-83660432D01*
X8183271Y-83660432D02*
X8278509Y-83708051D01*
X8278509Y-83708051D02*
X8802319Y-83708051D01*
X8802319Y-84327099D02*
X8754700Y-84231861D01*
X8754700Y-84231861D02*
X8659461Y-84184242D01*
X8659461Y-84184242D02*
X7802319Y-84184242D01*
X8135652Y-84612814D02*
X8802319Y-84850909D01*
X8135652Y-85089004D02*
X8802319Y-84850909D01*
X8802319Y-84850909D02*
X9040414Y-84755671D01*
X9040414Y-84755671D02*
X9088033Y-84708052D01*
X9088033Y-84708052D02*
X9135652Y-84612814D01*
X8707080Y-85469957D02*
X8754700Y-85517576D01*
X8754700Y-85517576D02*
X8802319Y-85469957D01*
X8802319Y-85469957D02*
X8754700Y-85422338D01*
X8754700Y-85422338D02*
X8707080Y-85469957D01*
X8707080Y-85469957D02*
X8802319Y-85469957D01*
%LPC*%
D22*
%TO.C,REF\u002A\u002A*%
X50164338Y-92549144D03*
%TD*%
%TO.C,REF\u002A\u002A*%
X134238592Y-33298585D03*
%TD*%
%TO.C,REF\u002A\u002A*%
X12256502Y-81362920D03*
%TD*%
%TO.C,REF\u002A\u002A*%
X114914338Y-64846616D03*
%TD*%
%TO.C,REF\u002A\u002A*%
X105664338Y-92549144D03*
%TD*%
%TO.C,REF\u002A\u002A*%
X40872505Y-64841489D03*
%TD*%
%TO.C,REF\u002A\u002A*%
X77900000Y-64900000D03*
%TD*%
%TO.C,REF\u002A\u002A*%
X77914338Y-43452847D03*
%TD*%
%TO.C,REF\u002A\u002A*%
X50164338Y-15782128D03*
%TD*%
%TO.C,REF\u002A\u002A*%
X134238594Y-75022433D03*
%TD*%
%TO.C,REF\u002A\u002A*%
X12256412Y-26958020D03*
%TD*%
%TO.C,REF\u002A\u002A*%
X114914338Y-43484656D03*
%TD*%
%TO.C,REF\u002A\u002A*%
X40872505Y-43479529D03*
%TD*%
%TO.C,REF\u002A\u002A*%
X10932505Y-54160509D03*
%TD*%
%TO.C,REF\u002A\u002A*%
X105664338Y-15782126D03*
%TD*%
%LPD*%
M02*
