%TF.GenerationSoftware,KiCad,Pcbnew,8.0.0*%
%TF.CreationDate,2025-01-10T11:52:10+00:00*%
%TF.ProjectId,vape_powerbank_pcb,76617065-5f70-46f7-9765-7262616e6b5f,rev?*%
%TF.SameCoordinates,Original*%
%TF.FileFunction,Profile,NP*%
%FSLAX46Y46*%
G04 Gerber Fmt 4.6, Leading zero omitted, Abs format (unit mm)*
G04 Created by KiCad (PCBNEW 8.0.0) date 2025-01-10 11:52:10*
%MOMM*%
%LPD*%
G01*
G04 APERTURE LIST*
%TA.AperFunction,Profile*%
%ADD10C,0.050000*%
%TD*%
G04 APERTURE END LIST*
D10*
X32508518Y-17740657D02*
G75*
G02*
X30812454Y-17863371I-886018J463657D01*
G01*
X3525000Y-18850000D02*
X2250000Y-17600000D01*
X86280012Y-90496143D02*
G75*
G02*
X69508522Y-90580361I-8407512J4292703D01*
G01*
X3525000Y-48800000D02*
X3525000Y-18850000D01*
X30736456Y-90580344D02*
G75*
G02*
X22399007Y-95609095I-8322116J4371764D01*
G01*
X132111016Y-65161178D02*
G75*
G02*
X133448289Y-71676306I-7946716J-5025922D01*
G01*
X133465273Y-36650523D02*
X133443601Y-36645464D01*
X67736490Y-90580361D02*
G75*
G02*
X53427406Y-93536221I-8363990J4376911D01*
G01*
X125008519Y-17740657D02*
G75*
G02*
X136739592Y-30936698I8363981J-4376943D01*
G01*
X2250000Y-95600000D02*
X22399007Y-95609095D01*
X22400026Y-12717364D02*
X2250000Y-12720000D01*
X88008546Y-17740604D02*
G75*
G02*
X86236484Y-17740661I-886046J463604D01*
G01*
X53417225Y-93533165D02*
X53427406Y-93536221D01*
X67736490Y-90580361D02*
G75*
G02*
X69508520Y-90580361I886015J-463657D01*
G01*
X2250000Y-12720000D02*
X2250000Y-17600000D01*
X108938168Y-14776082D02*
X108915721Y-14782858D01*
X88008533Y-17740664D02*
G75*
G02*
X102326526Y-14792051I8363967J-4376836D01*
G01*
X102285881Y-93555430D02*
G75*
G02*
X88012911Y-90578064I-5913381J7352030D01*
G01*
X2250000Y-90600000D02*
X3500000Y-89300000D01*
X30736490Y-17740657D02*
X30812460Y-17863367D01*
X108938169Y-14776083D02*
G75*
G02*
X123236500Y-17740652I5934331J-7341517D01*
G01*
X136739592Y-30936698D02*
G75*
G02*
X133465269Y-36650539I-2500992J-2361902D01*
G01*
X3500000Y-89300000D02*
X3500000Y-67300000D01*
X123236490Y-90580361D02*
G75*
G02*
X125008520Y-90580361I886015J-463657D01*
G01*
X125008518Y-17740657D02*
G75*
G02*
X123236492Y-17740657I-886013J463656D01*
G01*
X133008998Y-44729472D02*
G75*
G02*
X132092965Y-43192701I-69498J999972D01*
G01*
X133008998Y-44729474D02*
G75*
G02*
X132900664Y-63586727I363502J-9431026D01*
G01*
X46826521Y-93528961D02*
G75*
G02*
X32508519Y-90580361I-5954021J7325521D01*
G01*
X46826529Y-14792050D02*
G75*
G02*
X53418481Y-14792050I3295976J-984951D01*
G01*
X53418483Y-14792050D02*
G75*
G02*
X67736492Y-17740656I5954017J-7325550D01*
G01*
X69508569Y-17740561D02*
G75*
G02*
X67736484Y-17740661I-886069J463561D01*
G01*
X30736458Y-90580344D02*
G75*
G02*
X32508552Y-90580344I886047J-463675D01*
G01*
X123236497Y-90580365D02*
G75*
G02*
X108918482Y-93528968I-8363987J4376915D01*
G01*
X2250000Y-95600000D02*
X2250000Y-90600000D01*
X102326529Y-14792050D02*
G75*
G02*
X108915711Y-14782861I3295971J-984950D01*
G01*
X132111017Y-65161178D02*
G75*
G02*
X132900664Y-63586728I828583J569678D01*
G01*
X22400026Y-12717365D02*
G75*
G02*
X30736492Y-17740656I14314J-9405335D01*
G01*
X102285881Y-93555430D02*
X102326527Y-93528968D01*
X133443600Y-36645464D02*
G75*
G02*
X132092966Y-43192702I-9279260J-1498706D01*
G01*
X2250000Y-66050000D02*
X2250000Y-50050000D01*
X69508520Y-17740657D02*
G75*
G02*
X86236482Y-17740661I8363980J-4376943D01*
G01*
X133448299Y-71676310D02*
G75*
G02*
X136738222Y-77383074I790301J-3346090D01*
G01*
X32508520Y-17740657D02*
G75*
G02*
X46826420Y-14792182I8363880J-4376943D01*
G01*
X53417224Y-93533165D02*
G75*
G02*
X46826519Y-93528971I-3294724J989165D01*
G01*
X86280013Y-90496143D02*
G75*
G02*
X88012912Y-90578063I842487J-547857D01*
G01*
X2250000Y-50050000D02*
X3525000Y-48800000D01*
X136738223Y-77383075D02*
G75*
G02*
X125007882Y-90580695I-3365723J-8820375D01*
G01*
X3500000Y-67300000D02*
X2250000Y-66050000D01*
X108918481Y-93528968D02*
G75*
G02*
X102326529Y-93528968I-3295976J984951D01*
G01*
M02*
